%TF.GenerationSoftware,KiCad,Pcbnew,9.0.7*%
%TF.CreationDate,2026-02-05T22:02:29+07:00*%
%TF.ProjectId,Lapka42,4c61706b-6134-4322-9e6b-696361645f70,rev?*%
%TF.SameCoordinates,Original*%
%TF.FileFunction,Profile,NP*%
%FSLAX46Y46*%
G04 Gerber Fmt 4.6, Leading zero omitted, Abs format (unit mm)*
G04 Created by KiCad (PCBNEW 9.0.7) date 2026-02-05 22:02:29*
%MOMM*%
%LPD*%
G01*
G04 APERTURE LIST*
%TA.AperFunction,Profile*%
%ADD10C,0.200000*%
%TD*%
G04 APERTURE END LIST*
D10*
X82508620Y-192768295D02*
G75*
G02*
X80671512Y-191707644I-388220J1448895D01*
G01*
X125225556Y-113881282D02*
G75*
G02*
X126356166Y-113198796I1261344J-811818D01*
G01*
X242162154Y-118000013D02*
G75*
G02*
X243662152Y-116499954I1500046J13D01*
G01*
X245412150Y-116500015D02*
X243662152Y-116500010D01*
X220896519Y-181465260D02*
X220896510Y-181465244D01*
X214515644Y-181465261D02*
X214515651Y-181465240D01*
X185017101Y-173004042D02*
X188613486Y-173638183D01*
X156499998Y-173000008D02*
G75*
G02*
X158000014Y-171499998I1500002J8D01*
G01*
X246912155Y-164000011D02*
X250912155Y-164000016D01*
X254412152Y-167500011D02*
X254412153Y-172380476D01*
X144054398Y-112233977D02*
X146663993Y-115055504D01*
X297796356Y-167500011D02*
G75*
G02*
X305231049Y-170585436I44J-10499989D01*
G01*
X226412152Y-161600000D02*
X226412152Y-166000009D01*
X188500010Y-166000019D02*
X188499995Y-164000018D01*
X252412154Y-167500013D02*
G75*
G02*
X250912187Y-166000012I46J1500013D01*
G01*
X209000000Y-138000000D02*
X209000000Y-154400000D01*
X68248195Y-145343197D02*
G75*
G02*
X69308867Y-143506105I1448905J388197D01*
G01*
X201500010Y-146950019D02*
X196000007Y-146950013D01*
X240162145Y-150200000D02*
G75*
G02*
X239412149Y-150950045I-750045J0D01*
G01*
X202250002Y-150200008D02*
X202250011Y-147700010D01*
X181000012Y-172380477D02*
X185017101Y-173004042D01*
X183000008Y-116500013D02*
G75*
G02*
X184499987Y-118000013I-8J-1499987D01*
G01*
X184500001Y-166000009D02*
G75*
G02*
X183000007Y-167500001I-1500001J9D01*
G01*
X207500007Y-167500016D02*
X190000005Y-167500019D01*
X319982924Y-183947251D02*
X352903529Y-192768299D01*
X209000009Y-166000014D02*
X209000000Y-161600000D01*
X103421839Y-131348322D02*
G75*
G02*
X100108250Y-135253412I-4478339J441622D01*
G01*
X184196883Y-190121674D02*
X183529866Y-190004058D01*
X126356166Y-113198796D02*
X126356164Y-113198798D01*
X250912150Y-118000009D02*
G75*
G02*
X252412151Y-116499950I1500050J9D01*
G01*
X309055994Y-113198790D02*
G75*
G02*
X310186570Y-113881303I-130794J-1494310D01*
G01*
X229662155Y-116500008D02*
G75*
G02*
X231162092Y-118000014I-55J-1499992D01*
G01*
X331990312Y-131348318D02*
X331169673Y-123025748D01*
X251882296Y-190004053D02*
G75*
G02*
X269073538Y-188500011I17191304J-97496847D01*
G01*
X309055995Y-113198790D02*
X292589699Y-111758177D01*
X233912151Y-150950000D02*
X239412149Y-150950007D01*
X158000014Y-171500016D02*
X160000008Y-171500010D01*
X226412151Y-118000012D02*
G75*
G02*
X227912155Y-116500051I1499949J12D01*
G01*
X166338619Y-188500021D02*
X158000014Y-188500020D01*
X149967624Y-116500012D02*
X183000008Y-116500013D01*
X188500006Y-118000013D02*
G75*
G02*
X190000005Y-116500006I1499994J13D01*
G01*
X269073538Y-188500012D02*
X277412153Y-188500012D01*
X181000006Y-167500013D02*
X181000012Y-172380477D01*
X193250000Y-118000014D02*
X193250005Y-128950012D01*
X100108249Y-135253408D02*
X100108248Y-135253413D01*
X105474771Y-121695727D02*
X120142952Y-119109338D01*
X231912150Y-129700012D02*
G75*
G02*
X231162088Y-128950011I-50J750012D01*
G01*
X226412151Y-118000012D02*
X226412151Y-130800000D01*
X184500006Y-164000013D02*
X184500001Y-166000009D01*
X196000008Y-150950008D02*
G75*
G02*
X195249992Y-150200017I-8J750008D01*
G01*
X190000005Y-167500019D02*
G75*
G02*
X188499981Y-166000019I-5J1500019D01*
G01*
X230129841Y-178104585D02*
G75*
G02*
X246798670Y-173638188I33859859J-93029115D01*
G01*
X202250002Y-150200008D02*
G75*
G02*
X201500006Y-150950002I-750002J8D01*
G01*
X204250004Y-128950008D02*
X204249997Y-118000011D01*
X208701258Y-197440000D02*
X200865568Y-194588036D01*
X291357760Y-112233971D02*
G75*
G02*
X292589700Y-111758161I1101240J-1018529D01*
G01*
X309055994Y-113198790D02*
X309055995Y-113198790D01*
X227912151Y-167500015D02*
G75*
G02*
X226412185Y-166000009I49J1500015D01*
G01*
X250395055Y-173004043D02*
X246798670Y-173638186D01*
X305231028Y-170585457D02*
X316613582Y-181998917D01*
X277412150Y-171500010D02*
X275412151Y-171500012D01*
X366103296Y-143506083D02*
X335303908Y-135253409D01*
X242162154Y-118000013D02*
X242162156Y-128950008D01*
X241412154Y-129700010D02*
X231912150Y-129700012D01*
X226412151Y-138000000D02*
X226412152Y-154400000D01*
X319982924Y-183947251D02*
G75*
G02*
X316613574Y-181998925I1941176J7244551D01*
G01*
X130181128Y-170585453D02*
G75*
G02*
X137615793Y-167500048I7434572J-7414447D01*
G01*
X204249997Y-118000011D02*
G75*
G02*
X205750005Y-116499997I1500003J11D01*
G01*
X126356164Y-113198798D02*
X142822457Y-111758185D01*
X226710901Y-197439998D02*
G75*
G02*
X224788316Y-196543440I-513001J1409598D01*
G01*
X278912148Y-187000011D02*
G75*
G02*
X277412153Y-188499948I-1499948J11D01*
G01*
X166338619Y-188500021D02*
G75*
G02*
X183529867Y-190004054I-19J-99001079D01*
G01*
X239412153Y-146950011D02*
X233912150Y-146950005D01*
X329937387Y-121695727D02*
G75*
G02*
X331169629Y-123025752I-260487J-1477173D01*
G01*
X242162156Y-128950008D02*
G75*
G02*
X241412154Y-129699956I-749956J8D01*
G01*
X231162154Y-128950011D02*
X231162155Y-118000014D01*
X188499995Y-164000018D02*
X184500006Y-164000013D01*
X291357760Y-112233971D02*
X288748168Y-115055497D01*
X312266599Y-117113095D02*
X310186600Y-113881284D01*
X209000000Y-138000000D02*
X226412151Y-138000000D01*
X275412151Y-171500012D02*
X275412153Y-167500015D01*
X240162145Y-150200000D02*
X240162154Y-147700002D01*
X209000000Y-130800000D02*
X226412151Y-130800000D01*
X230129841Y-178104585D02*
X220896510Y-181465244D01*
X104242482Y-123025743D02*
G75*
G02*
X105474772Y-121695734I1492818J-147257D01*
G01*
X210623891Y-196543464D02*
X210623901Y-196543471D01*
X234546596Y-194588040D02*
G75*
G02*
X251215274Y-190121664I33859904J-93029160D01*
G01*
X335303909Y-135253408D02*
X335303908Y-135253409D01*
X315269207Y-119109337D02*
G75*
G02*
X312266639Y-117113069I781493J4431637D01*
G01*
X160000008Y-171500010D02*
X160000005Y-167500009D01*
X214515644Y-181465261D02*
G75*
G02*
X215412140Y-183387842I-513044J-1409539D01*
G01*
X288748168Y-115055497D02*
G75*
G02*
X285444529Y-116499990I-3303568J3055397D01*
G01*
X250912155Y-164000016D02*
X250912148Y-166000012D01*
X130181128Y-170585453D02*
X118798570Y-181998913D01*
X103421839Y-131348322D02*
X104242482Y-123025743D01*
X184499996Y-120000010D02*
X188500005Y-120000009D01*
X354740651Y-191707639D02*
X367163963Y-145343198D01*
X205750005Y-116500017D02*
X207500005Y-116500022D01*
X226412152Y-154400000D02*
X209000000Y-154400000D01*
X207500005Y-116500022D02*
G75*
G02*
X208999978Y-118000009I-5J-1499978D01*
G01*
X210623891Y-196543464D02*
G75*
G02*
X208701258Y-197439999I-1409591J513064D01*
G01*
X246912155Y-120000011D02*
X246912150Y-118000012D01*
X219999999Y-183387849D02*
G75*
G02*
X220896503Y-181465216I1409601J513049D01*
G01*
X250912150Y-118000009D02*
X250912150Y-120000012D01*
X215412160Y-183387849D02*
X210623901Y-196543471D01*
X195250007Y-147700016D02*
G75*
G02*
X196000007Y-146950007I749993J16D01*
G01*
X219999999Y-183387849D02*
X224788252Y-196543464D01*
X205282316Y-178104585D02*
X214515651Y-181465240D01*
X366103296Y-143506083D02*
G75*
G02*
X367164013Y-145343211I-388196J-1448917D01*
G01*
X123145553Y-117113099D02*
X125225556Y-113881282D01*
X278912148Y-187000011D02*
X278912151Y-173000012D01*
X233162150Y-147700008D02*
G75*
G02*
X233912150Y-146949950I750050J8D01*
G01*
X194000002Y-129700019D02*
G75*
G02*
X193249981Y-128950012I-2J750019D01*
G01*
X226710901Y-197439998D02*
X234546596Y-194588040D01*
X277412150Y-171500010D02*
G75*
G02*
X278912190Y-173000012I50J-1499990D01*
G01*
X354740651Y-191707639D02*
G75*
G02*
X352903543Y-192768246I-1448851J388239D01*
G01*
X224788266Y-196543458D02*
X224788252Y-196543464D01*
X195250007Y-147700016D02*
X195250009Y-150200017D01*
X275412153Y-167500015D02*
X297796356Y-167500011D01*
X239412153Y-146950011D02*
G75*
G02*
X240162089Y-147700002I-53J-749989D01*
G01*
X245412150Y-116500015D02*
G75*
G02*
X246912185Y-118000012I50J-1499985D01*
G01*
X204250004Y-128950008D02*
G75*
G02*
X203500011Y-129700004I-750004J8D01*
G01*
X191750012Y-116500009D02*
G75*
G02*
X193249991Y-118000014I-12J-1499991D01*
G01*
X158000014Y-188500020D02*
G75*
G02*
X156499980Y-187000008I-14J1500020D01*
G01*
X156500010Y-187000008D02*
X156499998Y-173000008D01*
X80671509Y-191707645D02*
X68248195Y-145343197D01*
X227912151Y-167500015D02*
X245412154Y-167500012D01*
X184196883Y-190121674D02*
G75*
G02*
X200865567Y-194588039I-17191583J-97497126D01*
G01*
X246912152Y-166000014D02*
X246912155Y-164000011D01*
X208999999Y-118000009D02*
X209000001Y-130800000D01*
X209000009Y-166000014D02*
G75*
G02*
X207500007Y-167500009I-1500009J14D01*
G01*
X285444529Y-116500012D02*
X252412151Y-116500011D01*
X233912151Y-150950000D02*
G75*
G02*
X233162100Y-150200009I-51J750000D01*
G01*
X196000008Y-150950008D02*
X201500006Y-150950015D01*
X115429228Y-183947253D02*
X82508620Y-192768295D01*
X194000002Y-129700019D02*
X203500011Y-129700016D01*
X123145553Y-117113099D02*
G75*
G02*
X120142955Y-119109354I-3784053J2435399D01*
G01*
X251215275Y-190121668D02*
X251882296Y-190004053D01*
X188613486Y-173638183D02*
G75*
G02*
X205282313Y-178104592I-17191186J-97495817D01*
G01*
X329937387Y-121695727D02*
X315269207Y-119109337D01*
X190000005Y-116500014D02*
X191750012Y-116500009D01*
X149967624Y-116500012D02*
G75*
G02*
X146663978Y-115055518I-24J4500012D01*
G01*
X226412152Y-161600000D02*
X209000000Y-161600000D01*
X201500010Y-146950019D02*
G75*
G02*
X202249981Y-147700010I-10J-749981D01*
G01*
X160000005Y-167500009D02*
X137615793Y-167500020D01*
X335303909Y-135253408D02*
G75*
G02*
X331990280Y-131348321I1164691J4346708D01*
G01*
X229662155Y-116500008D02*
X227912155Y-116500013D01*
X233162150Y-147700008D02*
X233162152Y-150200009D01*
X183000007Y-167500007D02*
X181000006Y-167500013D01*
X118798570Y-181998913D02*
G75*
G02*
X115429225Y-183947242I-5310470J5296113D01*
G01*
X188500005Y-120000009D02*
X188500006Y-118000013D01*
X250912150Y-120000012D02*
X246912155Y-120000011D01*
X254412153Y-172380476D02*
X250395055Y-173004043D01*
X69308860Y-143506077D02*
X100108248Y-135253413D01*
X184500004Y-118000013D02*
X184499996Y-120000010D01*
X246912152Y-166000014D02*
G75*
G02*
X245412154Y-167499952I-1499952J14D01*
G01*
X142822457Y-111758185D02*
G75*
G02*
X144054409Y-112233967I130743J-1494315D01*
G01*
X252412154Y-167500013D02*
X254412152Y-167500011D01*
M02*
