%TF.GenerationSoftware,KiCad,Pcbnew,9.0.7*%
%TF.CreationDate,2026-02-05T22:02:29+07:00*%
%TF.ProjectId,Lapka42,4c61706b-6134-4322-9e6b-696361645f70,rev?*%
%TF.SameCoordinates,Original*%
%TF.FileFunction,Soldermask,Bot*%
%TF.FilePolarity,Negative*%
%FSLAX46Y46*%
G04 Gerber Fmt 4.6, Leading zero omitted, Abs format (unit mm)*
G04 Created by KiCad (PCBNEW 9.0.7) date 2026-02-05 22:02:29*
%MOMM*%
%LPD*%
G01*
G04 APERTURE LIST*
G04 Aperture macros list*
%AMRoundRect*
0 Rectangle with rounded corners*
0 $1 Rounding radius*
0 $2 $3 $4 $5 $6 $7 $8 $9 X,Y pos of 4 corners*
0 Add a 4 corners polygon primitive as box body*
4,1,4,$2,$3,$4,$5,$6,$7,$8,$9,$2,$3,0*
0 Add four circle primitives for the rounded corners*
1,1,$1+$1,$2,$3*
1,1,$1+$1,$4,$5*
1,1,$1+$1,$6,$7*
1,1,$1+$1,$8,$9*
0 Add four rect primitives between the rounded corners*
20,1,$1+$1,$2,$3,$4,$5,0*
20,1,$1+$1,$4,$5,$6,$7,0*
20,1,$1+$1,$6,$7,$8,$9,0*
20,1,$1+$1,$8,$9,$2,$3,0*%
G04 Aperture macros list end*
%ADD10C,0.100000*%
%ADD11C,0.800000*%
%ADD12RoundRect,0.200000X0.200000X0.200000X-0.200000X0.200000X-0.200000X-0.200000X0.200000X-0.200000X0*%
%ADD13RoundRect,0.200000X-0.200000X-0.200000X0.200000X-0.200000X0.200000X0.200000X-0.200000X0.200000X0*%
%ADD14RoundRect,0.375000X-0.000010X-0.500000X0.000010X-0.500000X0.000010X0.500000X-0.000010X0.500000X0*%
%ADD15RoundRect,0.375000X-0.000010X-1.500000X0.000010X-1.500000X0.000010X1.500000X-0.000010X1.500000X0*%
%ADD16RoundRect,0.375000X-0.000010X-2.000000X0.000010X-2.000000X0.000010X2.000000X-0.000010X2.000000X0*%
%ADD17RoundRect,0.200000X1.274302X0.892276X-0.892276X1.274302X-1.274302X-0.892276X0.892276X-1.274302X0*%
%ADD18C,1.701800*%
%ADD19C,3.000000*%
%ADD20C,5.050000*%
%ADD21RoundRect,0.200000X-1.347219X-0.777817X0.777817X-1.347219X1.347219X0.777817X-0.777817X1.347219X0*%
%ADD22RoundRect,0.153846X1.187132X0.787631X-0.403117X1.366434X-1.187132X-0.787631X0.403117X-1.366434X0*%
%ADD23RoundRect,0.200000X1.409884X0.657440X-0.657440X1.409884X-1.409884X-0.657440X0.657440X-1.409884X0*%
%ADD24RoundRect,0.153846X-0.520676X-1.326101X1.113968X-0.888099X0.520676X1.326101X-1.113968X0.888099X0*%
%ADD25RoundRect,0.200000X-0.777817X-1.347219X1.347219X-0.777817X0.777817X1.347219X-1.347219X0.777817X0*%
%ADD26RoundRect,0.200000X1.100000X1.100000X-1.100000X1.100000X-1.100000X-1.100000X1.100000X-1.100000X0*%
%ADD27RoundRect,0.200000X-1.100000X-1.100000X1.100000X-1.100000X1.100000X1.100000X-1.100000X1.100000X0*%
%ADD28C,0.500000*%
%ADD29RoundRect,0.200000X1.347219X0.777817X-0.777817X1.347219X-1.347219X-0.777817X0.777817X-1.347219X0*%
%ADD30O,1.900000X1.900000*%
%ADD31RoundRect,0.250000X-0.700000X-0.700000X0.700000X-0.700000X0.700000X0.700000X-0.700000X0.700000X0*%
%ADD32RoundRect,0.153846X0.846154X1.146154X-0.846154X1.146154X-0.846154X-1.146154X0.846154X-1.146154X0*%
%ADD33RoundRect,0.200000X1.191685X0.999943X-0.999943X1.191685X-1.191685X-0.999943X0.999943X-1.191685X0*%
%ADD34RoundRect,0.200000X-0.999943X-1.191685X1.191685X-0.999943X0.999943X1.191685X-1.191685X0.999943X0*%
%ADD35RoundRect,0.200000X-1.274302X-0.892276X0.892276X-1.274302X1.274302X0.892276X-0.892276X1.274302X0*%
%ADD36RoundRect,0.200000X0.657440X1.409884X-1.409884X0.657440X-0.657440X-1.409884X1.409884X-0.657440X0*%
%ADD37RoundRect,0.200000X-0.892276X-1.274302X1.274302X-0.892276X0.892276X1.274302X-1.274302X0.892276X0*%
%ADD38RoundRect,0.200000X0.892276X1.274302X-1.274302X0.892276X-0.892276X-1.274302X1.274302X-0.892276X0*%
%ADD39RoundRect,0.200000X-1.191685X-0.999943X0.999943X-1.191685X1.191685X0.999943X-0.999943X1.191685X0*%
%ADD40RoundRect,0.153846X1.113968X0.888099X-0.520676X1.326101X-1.113968X-0.888099X0.520676X-1.326101X0*%
%ADD41RoundRect,0.200000X0.999943X1.191685X-1.191685X0.999943X-0.999943X-1.191685X1.191685X-0.999943X0*%
%ADD42RoundRect,0.200000X0.777817X1.347219X-1.347219X0.777817X-0.777817X-1.347219X1.347219X-0.777817X0*%
G04 APERTURE END LIST*
D10*
G36*
X220523650Y-156838792D02*
G01*
X220685293Y-156883569D01*
X220846843Y-156960213D01*
X221010205Y-157072348D01*
X221151489Y-157203837D01*
X221284449Y-157368545D01*
X221408999Y-157571157D01*
X221524337Y-157817288D01*
X221666101Y-157805640D01*
X221787293Y-157772536D01*
X221891617Y-157719439D01*
X221965042Y-157848735D01*
X221845432Y-157920783D01*
X221717038Y-157963646D01*
X221576849Y-157978183D01*
X221717559Y-158370210D01*
X221804147Y-158567572D01*
X221875151Y-158720589D01*
X221898639Y-158800061D01*
X221884386Y-158862452D01*
X221844351Y-158899600D01*
X221769190Y-158915465D01*
X221741176Y-158910545D01*
X221342528Y-158905085D01*
X220688415Y-158933020D01*
X220590606Y-158923138D01*
X220504928Y-158894552D01*
X220429075Y-158853332D01*
X220380669Y-158815936D01*
X220268776Y-158695189D01*
X220363114Y-158569251D01*
X220462459Y-158626804D01*
X220560937Y-158659905D01*
X220660480Y-158670765D01*
X221387866Y-158649699D01*
X221629208Y-158660232D01*
X221544345Y-158564275D01*
X221455796Y-158424294D01*
X221363726Y-158228702D01*
X221268950Y-157964139D01*
X221025418Y-157933622D01*
X220799138Y-157875174D01*
X220587773Y-157789323D01*
X220389371Y-157675628D01*
X220235599Y-157558618D01*
X220127395Y-157446487D01*
X220056277Y-157338174D01*
X220015973Y-157231828D01*
X220012721Y-157205307D01*
X220345712Y-157205307D01*
X220359625Y-157297778D01*
X220403243Y-157391420D01*
X220482707Y-157489331D01*
X220607968Y-157593501D01*
X220742897Y-157675248D01*
X220888781Y-157737444D01*
X221047207Y-157780295D01*
X221220102Y-157803244D01*
X221151773Y-157576459D01*
X221062701Y-157388339D01*
X220954335Y-157233243D01*
X220852990Y-157131197D01*
X220753373Y-157063827D01*
X220653841Y-157025406D01*
X220551945Y-157012814D01*
X220470979Y-157027062D01*
X220405246Y-157068837D01*
X220360534Y-157131108D01*
X220345712Y-157205307D01*
X220012721Y-157205307D01*
X220002856Y-157124860D01*
X220014154Y-157038452D01*
X220046595Y-156966773D01*
X220100859Y-156906263D01*
X220170346Y-156861836D01*
X220255247Y-156833949D01*
X220359603Y-156823983D01*
X220523650Y-156838792D01*
G37*
G36*
X218432527Y-158621763D02*
G01*
X218352080Y-158681145D01*
X218417668Y-158779204D01*
X218532209Y-158880661D01*
X218623153Y-158936103D01*
X218702025Y-158965855D01*
X218771720Y-158975000D01*
X218864633Y-158960503D01*
X218925662Y-158921652D01*
X218963673Y-158857635D01*
X218978105Y-158758081D01*
X218966288Y-158653260D01*
X218925593Y-158516892D01*
X219055041Y-158649699D01*
X219243317Y-158820067D01*
X219382021Y-158908596D01*
X219521268Y-158958980D01*
X219653131Y-158975000D01*
X219738582Y-158965726D01*
X219804078Y-158940242D01*
X219854326Y-158899895D01*
X219890877Y-158845924D01*
X219914037Y-158777831D01*
X219922409Y-158691678D01*
X219911418Y-158573842D01*
X219877825Y-158454987D01*
X219819645Y-158333324D01*
X219733579Y-158207314D01*
X219597685Y-158059023D01*
X219437629Y-157929197D01*
X219250894Y-157817288D01*
X219050861Y-157731940D01*
X218855774Y-157681474D01*
X218663337Y-157663415D01*
X218656315Y-157778820D01*
X218803166Y-157810266D01*
X219007899Y-157872870D01*
X219194185Y-157965852D01*
X219364619Y-158090230D01*
X219479821Y-158205377D01*
X219553779Y-158311803D01*
X219594636Y-158411774D01*
X219607641Y-158508190D01*
X219595018Y-158606643D01*
X219562658Y-158667832D01*
X219512854Y-158703388D01*
X219439724Y-158716255D01*
X219341279Y-158697375D01*
X219215412Y-158630953D01*
X219051530Y-158495978D01*
X218907128Y-158341582D01*
X218779020Y-158169453D01*
X218666848Y-157978183D01*
X218519844Y-158065653D01*
X218661589Y-158371455D01*
X218722518Y-158539917D01*
X218736762Y-158621763D01*
X218728390Y-158667060D01*
X218703637Y-158704043D01*
X218668842Y-158729624D01*
X218637081Y-158737168D01*
X218593422Y-158733657D01*
X218572356Y-158724956D01*
X218546100Y-158709233D01*
X218518165Y-158688167D01*
X218478018Y-158656721D01*
X218432527Y-158621763D01*
G37*
G36*
X217770477Y-158331420D02*
G01*
X217581959Y-158069290D01*
X217430249Y-157895065D01*
X217308858Y-157787674D01*
X217172545Y-157701107D01*
X217060210Y-157655984D01*
X216966154Y-157642502D01*
X216872062Y-157653258D01*
X216797772Y-157683270D01*
X216738703Y-157731651D01*
X216694614Y-157795167D01*
X216667681Y-157869390D01*
X216658256Y-157957270D01*
X216674788Y-158140278D01*
X216724232Y-158315873D01*
X216807955Y-158486759D01*
X216929365Y-158655041D01*
X217047303Y-158776304D01*
X217166037Y-158865501D01*
X217286556Y-158926802D01*
X217410419Y-158962928D01*
X217539667Y-158975000D01*
X217680311Y-158960503D01*
X217777499Y-158922487D01*
X217693540Y-158772125D01*
X217466242Y-158796550D01*
X217378903Y-158784418D01*
X217292445Y-158746943D01*
X217204343Y-158679951D01*
X217113005Y-158576273D01*
X217019258Y-158423269D01*
X216965944Y-158273943D01*
X216948599Y-158125034D01*
X216961689Y-158043932D01*
X216999280Y-157980015D01*
X217057017Y-157936795D01*
X217130408Y-157922160D01*
X217214981Y-157937674D01*
X217312175Y-157989723D01*
X217427519Y-158091500D01*
X217565923Y-158261505D01*
X217717241Y-158493579D01*
X217868944Y-158771964D01*
X218020520Y-159102616D01*
X218216769Y-159615569D01*
X218389480Y-160171179D01*
X218599376Y-160097753D01*
X218468248Y-159735663D01*
X218225226Y-159058958D01*
X217940343Y-158223716D01*
X217896414Y-158048098D01*
X217906885Y-157901095D01*
X217937410Y-157766573D01*
X217987395Y-157642502D01*
X217812456Y-157555033D01*
X217751198Y-157659302D01*
X217715766Y-157764141D01*
X217704073Y-157871632D01*
X217718243Y-158052308D01*
X217770477Y-158331420D01*
G37*
G36*
X215146851Y-158618252D02*
G01*
X215059534Y-158695189D01*
X215175987Y-158856293D01*
X215284731Y-158956462D01*
X215387986Y-159010460D01*
X215489706Y-159027512D01*
X215574232Y-159008945D01*
X215667962Y-158946295D01*
X215776539Y-158821127D01*
X215865647Y-158677401D01*
X215910501Y-158567009D01*
X215923390Y-158481782D01*
X215905759Y-158437426D01*
X215836109Y-158383062D01*
X215671515Y-158314017D01*
X215581340Y-158274305D01*
X215498560Y-158217847D01*
X215437532Y-158148397D01*
X215419792Y-158083208D01*
X215430124Y-158019561D01*
X215458260Y-157976504D01*
X215501268Y-157949173D01*
X215556110Y-157939715D01*
X215658180Y-157965724D01*
X215768516Y-158030563D01*
X215891255Y-158145835D01*
X216029446Y-158327803D01*
X216185315Y-158596458D01*
X216360585Y-158975000D01*
X216573992Y-158901574D01*
X216552511Y-158784208D01*
X216445029Y-158442326D01*
X216166564Y-157684481D01*
X215873237Y-156954126D01*
X215692142Y-156566182D01*
X215587556Y-156393811D01*
X215416281Y-156456703D01*
X215635479Y-156869484D01*
X215840876Y-157323262D01*
X216031637Y-157821125D01*
X216206712Y-158366377D01*
X216012582Y-158097436D01*
X215858915Y-157923651D01*
X215738071Y-157820799D01*
X215602555Y-157741762D01*
X215478876Y-157698110D01*
X215363769Y-157684329D01*
X215264561Y-157701645D01*
X215190662Y-157750885D01*
X215142568Y-157825317D01*
X215125937Y-157920481D01*
X215138767Y-158019454D01*
X215176618Y-158107632D01*
X215236935Y-158184988D01*
X215321789Y-158254483D01*
X215467720Y-158341245D01*
X215657623Y-158432933D01*
X215629308Y-158539997D01*
X215592676Y-158621088D01*
X215549088Y-158681297D01*
X215493642Y-158729064D01*
X215436015Y-158756155D01*
X215374302Y-158765103D01*
X215311478Y-158740895D01*
X215146851Y-158618252D01*
G37*
G36*
X213474398Y-158621763D02*
G01*
X213393950Y-158681145D01*
X213459538Y-158779204D01*
X213574079Y-158880661D01*
X213665023Y-158936103D01*
X213743896Y-158965855D01*
X213813590Y-158975000D01*
X213906503Y-158960503D01*
X213967532Y-158921652D01*
X214005543Y-158857635D01*
X214019975Y-158758081D01*
X214008158Y-158653260D01*
X213967463Y-158516892D01*
X214096912Y-158649699D01*
X214285187Y-158820067D01*
X214423892Y-158908596D01*
X214563138Y-158958980D01*
X214695001Y-158975000D01*
X214780453Y-158965726D01*
X214845948Y-158940242D01*
X214896196Y-158899895D01*
X214932747Y-158845924D01*
X214955907Y-158777831D01*
X214964279Y-158691678D01*
X214953288Y-158573842D01*
X214919695Y-158454987D01*
X214861515Y-158333324D01*
X214775449Y-158207314D01*
X214639556Y-158059023D01*
X214479499Y-157929197D01*
X214292764Y-157817288D01*
X214092731Y-157731940D01*
X213897644Y-157681474D01*
X213705207Y-157663415D01*
X213698185Y-157778820D01*
X213845036Y-157810266D01*
X214049769Y-157872870D01*
X214236055Y-157965852D01*
X214406489Y-158090230D01*
X214521691Y-158205377D01*
X214595649Y-158311803D01*
X214636506Y-158411774D01*
X214649511Y-158508190D01*
X214636888Y-158606643D01*
X214604528Y-158667832D01*
X214554724Y-158703388D01*
X214481594Y-158716255D01*
X214383149Y-158697375D01*
X214257282Y-158630953D01*
X214093401Y-158495978D01*
X213948998Y-158341582D01*
X213820890Y-158169453D01*
X213708718Y-157978183D01*
X213561714Y-158065653D01*
X213703459Y-158371455D01*
X213764388Y-158539917D01*
X213778633Y-158621763D01*
X213770260Y-158667060D01*
X213745507Y-158704043D01*
X213710713Y-158729624D01*
X213678951Y-158737168D01*
X213635293Y-158733657D01*
X213614227Y-158724956D01*
X213587971Y-158709233D01*
X213560035Y-158688167D01*
X213519888Y-158656721D01*
X213474398Y-158621763D01*
G37*
G36*
X220909389Y-134902211D02*
G01*
X220897949Y-135052272D01*
X220868395Y-135156013D01*
X220825583Y-135225680D01*
X220762793Y-135278886D01*
X220668254Y-135324521D01*
X220531729Y-135360319D01*
X220573708Y-135489767D01*
X220710026Y-135496789D01*
X220810493Y-135485648D01*
X220899162Y-135453186D01*
X220978808Y-135398975D01*
X221051050Y-135320171D01*
X221121580Y-135196125D01*
X221166201Y-135045024D01*
X221182178Y-134860232D01*
X221169719Y-134374914D01*
X221133999Y-133936685D01*
X221077306Y-133541625D01*
X221042349Y-133335240D01*
X221049856Y-133308391D01*
X221070284Y-133300283D01*
X221098876Y-133318009D01*
X221152415Y-133406945D01*
X221248734Y-133650008D01*
X221350095Y-133940352D01*
X221512302Y-134360584D01*
X221663261Y-134683941D01*
X221803165Y-134926635D01*
X221928229Y-135097798D01*
X222057409Y-135235079D01*
X222190922Y-135342551D01*
X222329509Y-135423364D01*
X222420337Y-135231023D01*
X222202102Y-135053568D01*
X222029855Y-134882442D01*
X221897504Y-134716892D01*
X221786014Y-134533600D01*
X221653526Y-134259863D01*
X221497099Y-133870437D01*
X221378183Y-133552158D01*
X221253750Y-133245847D01*
X221164776Y-133078175D01*
X221096249Y-132994253D01*
X221029616Y-132950274D01*
X220961901Y-132936514D01*
X220880775Y-132950530D01*
X220825834Y-132989076D01*
X220790364Y-133054970D01*
X220776582Y-133160454D01*
X220808028Y-133475222D01*
X220866945Y-134033112D01*
X220899405Y-134505562D01*
X220909389Y-134902211D01*
G37*
G36*
X218537486Y-134821763D02*
G01*
X218457038Y-134881145D01*
X218522627Y-134979204D01*
X218637168Y-135080661D01*
X218728112Y-135136103D01*
X218806984Y-135165855D01*
X218876678Y-135175000D01*
X218969591Y-135160503D01*
X219030621Y-135121652D01*
X219068632Y-135057635D01*
X219083063Y-134958081D01*
X219071247Y-134853260D01*
X219030551Y-134716892D01*
X219160000Y-134849699D01*
X219348275Y-135020067D01*
X219486980Y-135108596D01*
X219626226Y-135158980D01*
X219758090Y-135175000D01*
X219843437Y-135165729D01*
X219908887Y-135140249D01*
X219959132Y-135099895D01*
X219995770Y-135045912D01*
X220018979Y-134977819D01*
X220027367Y-134891678D01*
X220016376Y-134773842D01*
X219982783Y-134654987D01*
X219924603Y-134533324D01*
X219838537Y-134407314D01*
X219702644Y-134259023D01*
X219542588Y-134129197D01*
X219355852Y-134017288D01*
X219155820Y-133931940D01*
X218960732Y-133881474D01*
X218768295Y-133863415D01*
X218761273Y-133978820D01*
X218908124Y-134010266D01*
X219112857Y-134072870D01*
X219299143Y-134165852D01*
X219469578Y-134290230D01*
X219584780Y-134405377D01*
X219658737Y-134511803D01*
X219699594Y-134611774D01*
X219712599Y-134708190D01*
X219699976Y-134806643D01*
X219667617Y-134867832D01*
X219617812Y-134903388D01*
X219544682Y-134916255D01*
X219446237Y-134897375D01*
X219320370Y-134830953D01*
X219156489Y-134695978D01*
X219012086Y-134541582D01*
X218883978Y-134369453D01*
X218771806Y-134178183D01*
X218624803Y-134265653D01*
X218766547Y-134571455D01*
X218827476Y-134739917D01*
X218841721Y-134821763D01*
X218833348Y-134867060D01*
X218808595Y-134904043D01*
X218773801Y-134929624D01*
X218742039Y-134937168D01*
X218698381Y-134933657D01*
X218677315Y-134924956D01*
X218651059Y-134909233D01*
X218623124Y-134888167D01*
X218582976Y-134856721D01*
X218537486Y-134821763D01*
G37*
G36*
X216862743Y-134751849D02*
G01*
X216789165Y-134807719D01*
X216880743Y-134949504D01*
X217000893Y-135066617D01*
X217094801Y-135128732D01*
X217174640Y-135161534D01*
X217243915Y-135171489D01*
X217343149Y-135154950D01*
X217415343Y-135108596D01*
X217462277Y-135038313D01*
X217478235Y-134951212D01*
X217455569Y-134842684D01*
X217357640Y-134620721D01*
X217282678Y-134457595D01*
X217246617Y-134346188D01*
X217236893Y-134272675D01*
X217246581Y-134226751D01*
X217277193Y-134183526D01*
X217321404Y-134153261D01*
X217373363Y-134143226D01*
X217453003Y-134156687D01*
X217537427Y-134200078D01*
X217630140Y-134281758D01*
X217733622Y-134414336D01*
X217912223Y-134718925D01*
X218139370Y-135195913D01*
X218349114Y-135122487D01*
X218268144Y-134721079D01*
X218158604Y-134330377D01*
X218028798Y-133973717D01*
X217929474Y-133775946D01*
X217785981Y-133821436D01*
X217884376Y-134116502D01*
X218034346Y-134678271D01*
X217840829Y-134376159D01*
X217669465Y-134159885D01*
X217517595Y-134012414D01*
X217382203Y-133919204D01*
X217259738Y-133868673D01*
X217146065Y-133852882D01*
X217065534Y-133867973D01*
X217000893Y-133912417D01*
X216957510Y-133977324D01*
X216943191Y-134052246D01*
X216948681Y-134130287D01*
X216964257Y-134197418D01*
X217095385Y-134498294D01*
X217186971Y-134715421D01*
X217205446Y-134793828D01*
X217196226Y-134847937D01*
X217170489Y-134886488D01*
X217134527Y-134912245D01*
X217104086Y-134919613D01*
X217051573Y-134909233D01*
X217004404Y-134877786D01*
X216957235Y-134839318D01*
X216906402Y-134791996D01*
X216862743Y-134751849D01*
G37*
G36*
X215376373Y-134786806D02*
G01*
X215289056Y-134863743D01*
X215405501Y-135024763D01*
X215514242Y-135124888D01*
X215617501Y-135178867D01*
X215719229Y-135195913D01*
X215798751Y-135180277D01*
X215885286Y-135128615D01*
X215983316Y-135028148D01*
X216064722Y-134911509D01*
X216117442Y-134803727D01*
X216145890Y-134702848D01*
X216264959Y-134905722D01*
X216353414Y-135064104D01*
X216404788Y-135175000D01*
X216614531Y-135101574D01*
X216531679Y-134678495D01*
X216434555Y-134290230D01*
X216320910Y-133939665D01*
X216233360Y-133755033D01*
X216089867Y-133800523D01*
X216156919Y-134027352D01*
X216299763Y-134657357D01*
X216159722Y-134398410D01*
X216030604Y-134210065D01*
X215911570Y-134078502D01*
X215773994Y-133968025D01*
X215631124Y-133887871D01*
X215481397Y-133835480D01*
X215481397Y-134066290D01*
X215596052Y-134087888D01*
X215713146Y-134145770D01*
X215836219Y-134247661D01*
X215967593Y-134405482D01*
X215945332Y-134552808D01*
X215900105Y-134677380D01*
X215832954Y-134783295D01*
X215745083Y-134874150D01*
X215670195Y-134920032D01*
X215603824Y-134933657D01*
X215541000Y-134909448D01*
X215376373Y-134786806D01*
G37*
G36*
X213547605Y-134821763D02*
G01*
X213467157Y-134881145D01*
X213532745Y-134979204D01*
X213647286Y-135080661D01*
X213738230Y-135136103D01*
X213817102Y-135165855D01*
X213886797Y-135175000D01*
X213979710Y-135160503D01*
X214040739Y-135121652D01*
X214078750Y-135057635D01*
X214093182Y-134958081D01*
X214081365Y-134853260D01*
X214040670Y-134716892D01*
X214170118Y-134849699D01*
X214358394Y-135020067D01*
X214497099Y-135108596D01*
X214636345Y-135158980D01*
X214768208Y-135175000D01*
X214853556Y-135165729D01*
X214919006Y-135140249D01*
X214969251Y-135099895D01*
X215005889Y-135045912D01*
X215029098Y-134977819D01*
X215037486Y-134891678D01*
X215026495Y-134773842D01*
X214992902Y-134654987D01*
X214934722Y-134533324D01*
X214848656Y-134407314D01*
X214712763Y-134259023D01*
X214552706Y-134129197D01*
X214365971Y-134017288D01*
X214165938Y-133931940D01*
X213970851Y-133881474D01*
X213778414Y-133863415D01*
X213771392Y-133978820D01*
X213918243Y-134010266D01*
X214122976Y-134072870D01*
X214309262Y-134165852D01*
X214479696Y-134290230D01*
X214594898Y-134405377D01*
X214668856Y-134511803D01*
X214709713Y-134611774D01*
X214722718Y-134708190D01*
X214710095Y-134806643D01*
X214677735Y-134867832D01*
X214627931Y-134903388D01*
X214554801Y-134916255D01*
X214456356Y-134897375D01*
X214330489Y-134830953D01*
X214166607Y-134695978D01*
X214022205Y-134541582D01*
X213894097Y-134369453D01*
X213781925Y-134178183D01*
X213634921Y-134265653D01*
X213776666Y-134571455D01*
X213837595Y-134739917D01*
X213851840Y-134821763D01*
X213843467Y-134867060D01*
X213818714Y-134904043D01*
X213783919Y-134929624D01*
X213752158Y-134937168D01*
X213708499Y-134933657D01*
X213687434Y-134924956D01*
X213661177Y-134909233D01*
X213633242Y-134888167D01*
X213593095Y-134856721D01*
X213547605Y-134821763D01*
G37*
D11*
%TO.C,D42*%
X185450003Y-156003556D03*
D12*
X187550003Y-156000009D03*
%TD*%
D11*
%TO.C,D41*%
X185450000Y-134003556D03*
D12*
X187550000Y-134000009D03*
%TD*%
D11*
%TO.C,D40*%
X185449998Y-126003553D03*
D12*
X187549998Y-126000006D03*
%TD*%
D11*
%TO.C,D39*%
X185449999Y-152003554D03*
D12*
X187549999Y-152000007D03*
%TD*%
D11*
%TO.C,D38*%
X185450003Y-136003556D03*
D12*
X187550003Y-136000009D03*
%TD*%
D11*
%TO.C,D37*%
X185450000Y-128003550D03*
D12*
X187550000Y-128000003D03*
%TD*%
D11*
%TO.C,D36*%
X185450000Y-148003555D03*
D12*
X187550000Y-148000008D03*
%TD*%
D11*
%TO.C,D35*%
X185450000Y-138003562D03*
D12*
X187550000Y-138000015D03*
%TD*%
D11*
%TO.C,D34*%
X185449999Y-124003552D03*
D12*
X187549999Y-124000005D03*
%TD*%
D11*
%TO.C,D33*%
X185449998Y-158003553D03*
D12*
X187549998Y-158000006D03*
%TD*%
D11*
%TO.C,D32*%
X185450000Y-146003552D03*
D12*
X187550000Y-146000005D03*
%TD*%
D11*
%TO.C,D31*%
X185449999Y-140003552D03*
D12*
X187549999Y-140000005D03*
%TD*%
D11*
%TO.C,D30*%
X185449999Y-122003558D03*
D12*
X187549999Y-122000011D03*
%TD*%
D11*
%TO.C,D29*%
X185449999Y-162003557D03*
D12*
X187549999Y-162000010D03*
%TD*%
D11*
%TO.C,D28*%
X185449994Y-150003557D03*
D12*
X187549994Y-150000010D03*
%TD*%
D11*
%TO.C,D27*%
X185449997Y-142003550D03*
D12*
X187549997Y-142000003D03*
%TD*%
D11*
%TO.C,D26*%
X185450003Y-130003553D03*
D12*
X187550003Y-130000006D03*
%TD*%
D11*
%TO.C,D25*%
X185450002Y-160003554D03*
D12*
X187550002Y-160000007D03*
%TD*%
D11*
%TO.C,D24*%
X185450002Y-154003552D03*
D12*
X187550002Y-154000005D03*
%TD*%
D11*
%TO.C,D23*%
X185449999Y-144003552D03*
D12*
X187549999Y-144000005D03*
%TD*%
D11*
%TO.C,D22*%
X185450003Y-132003553D03*
D12*
X187550003Y-132000006D03*
%TD*%
D11*
%TO.C,D21*%
X249962159Y-158002730D03*
D13*
X247862159Y-158006277D03*
%TD*%
D11*
%TO.C,D20*%
X249962159Y-162002728D03*
D13*
X247862159Y-162006275D03*
%TD*%
D11*
%TO.C,D19*%
X249962159Y-160002730D03*
D13*
X247862159Y-160006277D03*
%TD*%
D11*
%TO.C,D18*%
X249962158Y-154002732D03*
D13*
X247862158Y-154006279D03*
%TD*%
D11*
%TO.C,D17*%
X249962158Y-155911594D03*
D13*
X247862158Y-155915141D03*
%TD*%
D11*
%TO.C,D16*%
X249962158Y-152002730D03*
D13*
X247862158Y-152006277D03*
%TD*%
D11*
%TO.C,D15*%
X249962158Y-150002731D03*
D13*
X247862158Y-150006278D03*
%TD*%
D11*
%TO.C,D14*%
X249962158Y-146002730D03*
D13*
X247862158Y-146006277D03*
%TD*%
D11*
%TO.C,D13*%
X249962159Y-148002730D03*
D13*
X247862159Y-148006277D03*
%TD*%
D11*
%TO.C,D12*%
X249962159Y-136002731D03*
D13*
X247862159Y-136006278D03*
%TD*%
D11*
%TO.C,D11*%
X249962158Y-134002731D03*
D13*
X247862158Y-134006278D03*
%TD*%
D11*
%TO.C,D10*%
X249962159Y-138002731D03*
D13*
X247862159Y-138006278D03*
%TD*%
D11*
%TO.C,D9*%
X249962160Y-140002732D03*
D13*
X247862160Y-140006279D03*
%TD*%
D11*
%TO.C,D8*%
X249962159Y-142002729D03*
D13*
X247862159Y-142006276D03*
%TD*%
D11*
%TO.C,D7*%
X249962160Y-144002731D03*
D13*
X247862160Y-144006278D03*
%TD*%
D11*
%TO.C,D6*%
X249962160Y-121990195D03*
D13*
X247862160Y-121993742D03*
%TD*%
D11*
%TO.C,D5*%
X249962159Y-123990196D03*
D13*
X247862159Y-123993743D03*
%TD*%
D11*
%TO.C,D4*%
X249962158Y-127990192D03*
D13*
X247862158Y-127993739D03*
%TD*%
D11*
%TO.C,D3*%
X249962159Y-125990198D03*
D13*
X247862159Y-125993745D03*
%TD*%
D11*
%TO.C,D2*%
X249962159Y-131990193D03*
D13*
X247862159Y-131993740D03*
%TD*%
D11*
%TO.C,D1*%
X249962159Y-129990199D03*
D13*
X247862159Y-129993746D03*
%TD*%
D14*
%TO.C,REF\u002A\u002A*%
X202750001Y-137300000D03*
X201750001Y-140300000D03*
X201750001Y-137300000D03*
D15*
X200750001Y-140300000D03*
D14*
X200750001Y-135300000D03*
D16*
X199750001Y-139800000D03*
D14*
X199750001Y-135300000D03*
D15*
X198750001Y-139300000D03*
D16*
X197750001Y-139800000D03*
D14*
X197750001Y-135300000D03*
D15*
X196750001Y-140300000D03*
D14*
X196750001Y-135300000D03*
X195750001Y-140300000D03*
X195750001Y-137300000D03*
X194750001Y-137300000D03*
%TD*%
D17*
%TO.C,SW29*%
X194139742Y-179435878D03*
X183147246Y-175263666D03*
D18*
X179922836Y-180736906D03*
D19*
X186372482Y-175832365D03*
D20*
X185339279Y-181691971D03*
D19*
X190914503Y-178867187D03*
D18*
X190755722Y-182647036D03*
%TD*%
D21*
%TO.C,SW6*%
X347212337Y-151126392D03*
X357799379Y-156240789D03*
D18*
X361488537Y-151069403D03*
D19*
X354635972Y-155393157D03*
D20*
X356175945Y-149645898D03*
D19*
X350375744Y-151974025D03*
D18*
X350863353Y-148222393D03*
%TD*%
D17*
%TO.C,SW16*%
X323615167Y-159928733D03*
X312622663Y-155756519D03*
D18*
X309398259Y-161229758D03*
D19*
X315847909Y-156325217D03*
D20*
X314814702Y-162184823D03*
D19*
X320389922Y-159360035D03*
D18*
X320231145Y-163139888D03*
%TD*%
D22*
%TO.C,SW25*%
X212867569Y-185920220D03*
D23*
X203048476Y-180005174D03*
D18*
X198922637Y-184835351D03*
D19*
X206125963Y-181125290D03*
D20*
X204090946Y-186716462D03*
D19*
X210071989Y-184902721D03*
D18*
X209259255Y-188597573D03*
%TD*%
D24*
%TO.C,SW41*%
X76903454Y-171752931D03*
D25*
X88339516Y-170966253D03*
D18*
X88948730Y-164643123D03*
D19*
X85176112Y-171813888D03*
D20*
X83636138Y-166066628D03*
D19*
X79777081Y-170982946D03*
D18*
X78323546Y-167490133D03*
%TD*%
D26*
%TO.C,SW33*%
X174274999Y-176250003D03*
X162725006Y-174050003D03*
D18*
X160500000Y-180000005D03*
D19*
X165999996Y-174050006D03*
D20*
X166000000Y-180000005D03*
D19*
X171000005Y-176250008D03*
D18*
X171500000Y-180000005D03*
%TD*%
D27*
%TO.C,SW22*%
X166725000Y-128750000D03*
X178275000Y-130950000D03*
D18*
X180500000Y-125000000D03*
D19*
X175000000Y-130950002D03*
D20*
X175000000Y-125000000D03*
D19*
X169999997Y-128750000D03*
D18*
X169500000Y-125000000D03*
%TD*%
D28*
%TO.C,REF\u002A\u002A*%
X226400000Y-134000000D03*
X226400000Y-133200000D03*
X226400000Y-132400000D03*
X226400000Y-131600000D03*
X226400000Y-130800000D03*
%TD*%
D26*
%TO.C,SW28*%
X165274998Y-155249994D03*
X153725005Y-153049994D03*
D18*
X151499999Y-158999996D03*
D19*
X156999995Y-153049997D03*
D20*
X156999999Y-158999996D03*
D19*
X162000005Y-155249998D03*
D18*
X162499999Y-158999996D03*
%TD*%
D29*
%TO.C,SW17*%
X338953032Y-176348133D03*
X328365990Y-171233736D03*
D18*
X324676832Y-176405122D03*
D19*
X331529397Y-172081368D03*
D20*
X329989424Y-177828627D03*
D19*
X335789625Y-175500500D03*
D18*
X335302016Y-179252132D03*
%TD*%
D27*
%TO.C,SW23*%
X166724993Y-145750005D03*
X178274993Y-147950005D03*
D18*
X180499993Y-142000005D03*
D19*
X174999993Y-147950007D03*
D20*
X174999993Y-142000005D03*
D19*
X169999990Y-145750005D03*
D18*
X169499993Y-142000005D03*
%TD*%
D30*
%TO.C,U1*%
X244269698Y-118759200D03*
X244269698Y-121299200D03*
D31*
X244269698Y-123839200D03*
D30*
X244269698Y-126379200D03*
X244269698Y-128919200D03*
X244269698Y-131459200D03*
X244269698Y-133999200D03*
X244269698Y-136539200D03*
X244269698Y-139079200D03*
X244269698Y-141619200D03*
X244269698Y-144159200D03*
X244269698Y-146699200D03*
X244269698Y-149239200D03*
X229029698Y-149239200D03*
X229029698Y-146699200D03*
X229029698Y-144159200D03*
X229029698Y-141619200D03*
X229029698Y-139079200D03*
X229029698Y-136539200D03*
X229029698Y-133999200D03*
X229029698Y-131459200D03*
D31*
X229029698Y-128919200D03*
X229029698Y-126379200D03*
D30*
X229029698Y-123839200D03*
X229029698Y-121299200D03*
D31*
X229029698Y-118759200D03*
%TD*%
D32*
%TO.C,SW21*%
X277387158Y-176250007D03*
D26*
X266137159Y-174050007D03*
D18*
X263912159Y-180000007D03*
D19*
X269412159Y-174050006D03*
D20*
X269412159Y-180000007D03*
D19*
X274412159Y-176250007D03*
D18*
X274912159Y-180000007D03*
%TD*%
D33*
%TO.C,SW15*%
X305689084Y-151802236D03*
X294374778Y-148603958D03*
D18*
X291639668Y-154337395D03*
D19*
X297637316Y-148889394D03*
D20*
X297118739Y-154816752D03*
D19*
X302426550Y-151516801D03*
D18*
X302597810Y-155296109D03*
%TD*%
D25*
%TO.C,SW38*%
X94000345Y-167171835D03*
X105726187Y-166307510D03*
D18*
X106335401Y-159984380D03*
D19*
X102562783Y-167155145D03*
D20*
X101022809Y-161407885D03*
D19*
X97163752Y-166324203D03*
D18*
X95710217Y-162831390D03*
%TD*%
D34*
%TO.C,SW30*%
X127413454Y-125403073D03*
X139111244Y-126588049D03*
D18*
X140809202Y-120466772D03*
D19*
X135848708Y-126873489D03*
D20*
X135330131Y-120946129D03*
D19*
X130675989Y-125117638D03*
D18*
X129851060Y-121425486D03*
%TD*%
D27*
%TO.C,SW27*%
X148725000Y-145750004D03*
X160275000Y-147950004D03*
D18*
X162500000Y-142000004D03*
D19*
X157000000Y-147950006D03*
D20*
X157000000Y-142000004D03*
D19*
X151999997Y-145750004D03*
D18*
X151500000Y-142000004D03*
%TD*%
D28*
%TO.C,REF\u002A\u002A*%
X209000000Y-161600000D03*
X209000000Y-160800000D03*
X209000000Y-160000000D03*
X209000000Y-159200000D03*
X209000000Y-158400000D03*
%TD*%
D26*
%TO.C,SW24*%
X183275000Y-155250003D03*
X171725007Y-153050003D03*
D18*
X169500001Y-159000005D03*
D19*
X174999997Y-153050006D03*
D20*
X175000001Y-159000005D03*
D19*
X180000007Y-155250007D03*
D18*
X180500001Y-159000005D03*
%TD*%
D28*
%TO.C,REF\u002A\u002A*%
X226387848Y-157600000D03*
X226387848Y-156800000D03*
X226387848Y-156000000D03*
X226387848Y-155200000D03*
X226387848Y-154400000D03*
%TD*%
D27*
%TO.C,SW7*%
X252137158Y-145750014D03*
X263687158Y-147950014D03*
D18*
X265912158Y-142000014D03*
D19*
X260412158Y-147950015D03*
D20*
X260412158Y-142000014D03*
D19*
X255412158Y-145750014D03*
D18*
X254912158Y-142000014D03*
%TD*%
D28*
%TO.C,REF\u002A\u002A*%
X209000000Y-157600000D03*
X209000000Y-156800000D03*
X209000000Y-156000000D03*
X209000000Y-155200000D03*
X209000000Y-154400000D03*
%TD*%
D35*
%TO.C,SW10*%
X308966254Y-147699171D03*
X319958758Y-151871385D03*
D18*
X323183162Y-146398146D03*
D19*
X316733512Y-151302687D03*
D20*
X317766719Y-145443081D03*
D19*
X312191499Y-148267869D03*
D18*
X312350276Y-144488016D03*
%TD*%
D35*
%TO.C,SW4*%
X311918278Y-130957440D03*
X322910782Y-135129654D03*
D18*
X326135186Y-129656415D03*
D19*
X319685536Y-134560956D03*
D20*
X320718743Y-128701350D03*
D19*
X315143523Y-131526138D03*
D18*
X315302300Y-127746285D03*
%TD*%
D29*
%TO.C,SW11*%
X343352960Y-159927402D03*
X332765918Y-154813005D03*
D18*
X329076760Y-159984391D03*
D19*
X335929325Y-155660637D03*
D20*
X334389352Y-161407896D03*
D19*
X340189553Y-159079769D03*
D18*
X339701944Y-162831401D03*
%TD*%
D30*
%TO.C,U2*%
X206357545Y-118759186D03*
X206357545Y-121299186D03*
D31*
X206357545Y-123839186D03*
D30*
X206357545Y-126379186D03*
X206357545Y-128919186D03*
X206357545Y-131459186D03*
X206357545Y-133999186D03*
X206357545Y-136539186D03*
X206357545Y-139079186D03*
X206357545Y-141619186D03*
X206357545Y-144159186D03*
X206357545Y-146699186D03*
X206357545Y-149239186D03*
X191117545Y-149239186D03*
X191117545Y-146699186D03*
X191117545Y-144159186D03*
X191117545Y-141619186D03*
X191117545Y-139079186D03*
X191117545Y-136539186D03*
X191117545Y-133999186D03*
X191117545Y-131459186D03*
D31*
X191117545Y-128919186D03*
X191117545Y-126379186D03*
D30*
X191117545Y-123839186D03*
X191117545Y-121299186D03*
D31*
X191117545Y-118759186D03*
%TD*%
D26*
%TO.C,SW13*%
X268687146Y-155250003D03*
X257137146Y-153050003D03*
D18*
X254912146Y-159000003D03*
D19*
X260412146Y-153050002D03*
D20*
X260412146Y-159000003D03*
D19*
X265412146Y-155250003D03*
D18*
X265912146Y-159000003D03*
%TD*%
D36*
%TO.C,SW19*%
X237814594Y-180362405D03*
X226208701Y-182245414D03*
D18*
X226152904Y-188597580D03*
D19*
X229286193Y-181125297D03*
D20*
X231321213Y-186716469D03*
D19*
X234737100Y-181482520D03*
D18*
X236489522Y-184835358D03*
%TD*%
D24*
%TO.C,SW40*%
X72503531Y-155332188D03*
D25*
X83939596Y-154545510D03*
D18*
X84548810Y-148222380D03*
D19*
X80776192Y-155393145D03*
D20*
X79236218Y-149645885D03*
D19*
X75377161Y-154562203D03*
D18*
X73923626Y-151069390D03*
%TD*%
D37*
%TO.C,SW35*%
X110147332Y-150573049D03*
X121903885Y-150733988D03*
D18*
X123061878Y-144488016D03*
D19*
X118678642Y-151302689D03*
D20*
X117645435Y-145443081D03*
D19*
X113372574Y-150004351D03*
D18*
X112228992Y-146398146D03*
%TD*%
D27*
%TO.C,SW1*%
X252137155Y-128750010D03*
X263687155Y-130950010D03*
D18*
X265912155Y-125000010D03*
D19*
X260412155Y-130950011D03*
D20*
X260412155Y-125000010D03*
D19*
X255412155Y-128750010D03*
D18*
X254912155Y-125000010D03*
%TD*%
D28*
%TO.C,REF\u002A\u002A*%
X209000000Y-138000000D03*
X209000000Y-137200000D03*
X209000000Y-136400000D03*
X209000000Y-135600000D03*
X209000000Y-134800000D03*
%TD*%
D38*
%TO.C,SW36*%
X128095558Y-157054842D03*
X116339009Y-156893901D03*
D18*
X115181013Y-163139877D03*
D19*
X119564249Y-156325209D03*
D20*
X120597456Y-162184812D03*
D19*
X124870319Y-157623543D03*
D18*
X126013899Y-161229747D03*
%TD*%
D21*
%TO.C,SW5*%
X329825667Y-146467650D03*
X340412709Y-151582047D03*
D18*
X344101867Y-146410661D03*
D19*
X337249302Y-150734415D03*
D20*
X338789275Y-144987156D03*
D19*
X332989074Y-147315283D03*
D18*
X333476683Y-143563651D03*
%TD*%
D28*
%TO.C,REF\u002A\u002A*%
X226412151Y-138000000D03*
X226412151Y-137200000D03*
X226412151Y-136400000D03*
X226412151Y-135600000D03*
X226412151Y-134800000D03*
%TD*%
D27*
%TO.C,SW2*%
X270137151Y-128750007D03*
X281687151Y-130950007D03*
D18*
X283912151Y-125000007D03*
D19*
X278412151Y-130950008D03*
D20*
X278412151Y-125000007D03*
D19*
X273412151Y-128750007D03*
D18*
X272912151Y-125000007D03*
%TD*%
D39*
%TO.C,SW3*%
X291511685Y-123960650D03*
X302825991Y-127158928D03*
D18*
X305561101Y-121425491D03*
D19*
X299563453Y-126873492D03*
D20*
X300082030Y-120946134D03*
D19*
X294774219Y-124246085D03*
D18*
X294602959Y-120466777D03*
%TD*%
D28*
%TO.C,REF\u002A\u002A*%
X209000000Y-134000000D03*
X209000000Y-133200000D03*
X209000000Y-132400000D03*
X209000000Y-131600000D03*
X209000000Y-130800000D03*
%TD*%
D40*
%TO.C,SW12*%
X360449842Y-164508492D03*
D29*
X350152582Y-159471742D03*
D18*
X346463424Y-164643128D03*
D19*
X353315989Y-160319374D03*
D20*
X351776016Y-166066633D03*
D19*
X357576217Y-163738506D03*
D18*
X357088608Y-167490138D03*
%TD*%
D41*
%TO.C,SW32*%
X146210096Y-150359801D03*
X134512311Y-149174821D03*
D18*
X132814349Y-155296104D03*
D19*
X137774843Y-148889392D03*
D20*
X138293420Y-154816747D03*
D19*
X142947564Y-150645240D03*
D18*
X143772491Y-154337390D03*
%TD*%
D42*
%TO.C,SW39*%
X112445197Y-172064674D03*
X100719352Y-172928997D03*
D18*
X100110140Y-179252128D03*
D19*
X103882759Y-172081364D03*
D20*
X105422732Y-177828623D03*
D19*
X109281790Y-172912306D03*
D18*
X110735324Y-176405118D03*
%TD*%
D25*
%TO.C,SW37*%
X89600419Y-150751095D03*
X101326261Y-149886770D03*
D18*
X101935475Y-143563640D03*
D19*
X98162857Y-150734405D03*
D20*
X96622883Y-144987145D03*
D19*
X92763826Y-149903463D03*
D18*
X91310291Y-146410650D03*
%TD*%
D38*
%TO.C,SW20*%
X257570980Y-176562008D03*
X245814425Y-176401068D03*
D18*
X244656434Y-182647041D03*
D19*
X249039670Y-175832369D03*
D20*
X250072877Y-181691976D03*
D19*
X254345735Y-177130706D03*
D18*
X255489320Y-180736911D03*
%TD*%
D40*
%TO.C,SW18*%
X356049916Y-180929234D03*
D29*
X345752652Y-175892483D03*
D18*
X342063494Y-181063869D03*
D19*
X348916059Y-176740115D03*
D20*
X347376086Y-182487374D03*
D19*
X353176287Y-180159247D03*
D18*
X352688678Y-183910879D03*
%TD*%
D39*
%TO.C,SW9*%
X290030044Y-140895957D03*
X301344350Y-144094235D03*
D18*
X304079460Y-138360798D03*
D19*
X298081812Y-143808799D03*
D20*
X298600389Y-137881441D03*
D19*
X293292578Y-141181392D03*
D18*
X293121318Y-137402084D03*
%TD*%
D28*
%TO.C,REF\u002A\u002A*%
X226400000Y-161600000D03*
X226400000Y-160800000D03*
X226400000Y-160000000D03*
X226400000Y-159200000D03*
X226400000Y-158400000D03*
%TD*%
D27*
%TO.C,SW26*%
X148724999Y-128750001D03*
X160274999Y-130950001D03*
D18*
X162499999Y-125000001D03*
D19*
X156999999Y-130950003D03*
D20*
X156999999Y-125000001D03*
D19*
X151999996Y-128750001D03*
D18*
X151499999Y-125000001D03*
%TD*%
D34*
%TO.C,SW31*%
X128895096Y-142338377D03*
X140592886Y-143523353D03*
D18*
X142290844Y-137402076D03*
D19*
X137330350Y-143808793D03*
D20*
X136811773Y-137881433D03*
D19*
X132157631Y-142052942D03*
D18*
X131332702Y-138360790D03*
%TD*%
D26*
%TO.C,SW14*%
X286687153Y-155250001D03*
X275137153Y-153050001D03*
D18*
X272912153Y-159000001D03*
D19*
X278412153Y-153050000D03*
D20*
X278412153Y-159000001D03*
D19*
X283412153Y-155250001D03*
D18*
X283912153Y-159000001D03*
%TD*%
D14*
%TO.C,REF\u002A\u002A*%
X240662151Y-137300010D03*
X239662151Y-140300010D03*
X239662151Y-137300010D03*
D15*
X238662151Y-140300010D03*
D14*
X238662151Y-135300010D03*
D16*
X237662151Y-139800010D03*
D14*
X237662151Y-135300010D03*
D15*
X236662151Y-139300010D03*
D16*
X235662151Y-139800010D03*
D14*
X235662151Y-135300010D03*
D15*
X234662151Y-140300010D03*
D14*
X234662151Y-135300010D03*
X233662151Y-140300010D03*
X233662151Y-137300010D03*
X232662151Y-137300010D03*
%TD*%
D27*
%TO.C,SW8*%
X270137154Y-145750006D03*
X281687154Y-147950006D03*
D18*
X283912154Y-142000006D03*
D19*
X278412154Y-147950007D03*
D20*
X278412154Y-142000006D03*
D19*
X273412154Y-145750006D03*
D18*
X272912154Y-142000006D03*
%TD*%
D37*
%TO.C,SW34*%
X107195312Y-133831316D03*
X118951865Y-133992255D03*
D18*
X120109858Y-127746283D03*
D19*
X115726622Y-134560956D03*
D20*
X114693415Y-128701348D03*
D19*
X110420554Y-133262618D03*
D18*
X109276972Y-129656413D03*
%TD*%
D42*
%TO.C,SW42*%
X95058524Y-176723420D03*
X83332679Y-177587743D03*
D18*
X82723467Y-183910874D03*
D19*
X86496086Y-176740110D03*
D20*
X88036059Y-182487369D03*
D19*
X91895117Y-177571052D03*
D18*
X93348651Y-181063864D03*
%TD*%
M02*
