M48
; DRILL file {KiCad 9.0.7} date 2026-02-05T22:02:26+0700
; FORMAT={-:-/ absolute / metric / decimal}
; #@! TF.CreationDate,2026-02-05T22:02:26+07:00
; #@! TF.GenerationSoftware,Kicad,Pcbnew,9.0.7
; #@! TF.FileFunction,NonPlated,1,2,NPTH
FMAT,2
METRIC
; #@! TA.AperFunction,NonPlated,NPTH,ComponentDrill
T1C0.500
; #@! TA.AperFunction,NonPlated,NPTH,ComponentDrill
T2C1.702
; #@! TA.AperFunction,NonPlated,NPTH,ComponentDrill
T3C3.000
; #@! TA.AperFunction,NonPlated,NPTH,ComponentDrill
T4C5.050
%
G90
G05
T1
X209.0Y-130.8
X209.0Y-131.6
X209.0Y-132.4
X209.0Y-133.2
X209.0Y-134.0
X209.0Y-134.8
X209.0Y-135.6
X209.0Y-136.4
X209.0Y-137.2
X209.0Y-138.0
X209.0Y-154.4
X209.0Y-155.2
X209.0Y-156.0
X209.0Y-156.8
X209.0Y-157.6
X209.0Y-158.4
X209.0Y-159.2
X209.0Y-160.0
X209.0Y-160.8
X209.0Y-161.6
X226.388Y-154.4
X226.388Y-155.2
X226.388Y-156.0
X226.388Y-156.8
X226.388Y-157.6
X226.4Y-130.8
X226.4Y-131.6
X226.4Y-132.4
X226.4Y-133.2
X226.4Y-134.0
X226.4Y-158.4
X226.4Y-159.2
X226.4Y-160.0
X226.4Y-160.8
X226.4Y-161.6
X226.412Y-134.8
X226.412Y-135.6
X226.412Y-136.4
X226.412Y-137.2
X226.412Y-138.0
T2
X73.924Y-151.069
X78.324Y-167.49
X82.723Y-183.911
X84.549Y-148.222
X88.949Y-164.643
X91.31Y-146.411
X93.349Y-181.064
X95.71Y-162.831
X100.11Y-179.252
X101.935Y-143.564
X106.335Y-159.984
X109.277Y-129.656
X110.735Y-176.405
X112.229Y-146.398
X115.181Y-163.14
X120.11Y-127.746
X123.062Y-144.488
X126.014Y-161.23
X129.851Y-121.425
X131.333Y-138.361
X132.814Y-155.296
X140.809Y-120.467
X142.291Y-137.402
X143.772Y-154.337
X151.5Y-125.0
X151.5Y-159.0
X151.5Y-142.0
X160.5Y-180.0
X162.5Y-125.0
X162.5Y-159.0
X162.5Y-142.0
X169.5Y-142.0
X169.5Y-125.0
X169.5Y-159.0
X171.5Y-180.0
X179.923Y-180.737
X180.5Y-142.0
X180.5Y-125.0
X180.5Y-159.0
X190.756Y-182.647
X198.923Y-184.835
X209.259Y-188.598
X226.153Y-188.598
X236.49Y-184.835
X244.656Y-182.647
X254.912Y-159.0
X254.912Y-125.0
X254.912Y-142.0
X255.489Y-180.737
X263.912Y-180.0
X265.912Y-159.0
X265.912Y-125.0
X265.912Y-142.0
X272.912Y-125.0
X272.912Y-159.0
X272.912Y-142.0
X274.912Y-180.0
X283.912Y-125.0
X283.912Y-159.0
X283.912Y-142.0
X291.64Y-154.337
X293.121Y-137.402
X294.603Y-120.467
X302.598Y-155.296
X304.079Y-138.361
X305.561Y-121.425
X309.398Y-161.23
X312.35Y-144.488
X315.302Y-127.746
X320.231Y-163.14
X323.183Y-146.398
X324.677Y-176.405
X326.135Y-129.656
X329.077Y-159.984
X333.477Y-143.564
X335.302Y-179.252
X339.702Y-162.831
X342.063Y-181.064
X344.102Y-146.411
X346.463Y-164.643
X350.863Y-148.222
X352.689Y-183.911
X357.089Y-167.49
X361.489Y-151.069
T3
X75.377Y-154.562
X79.777Y-170.983
X80.776Y-155.393
X85.176Y-171.814
X86.496Y-176.74
X91.895Y-177.571
X92.764Y-149.903
X97.164Y-166.324
X98.163Y-150.734
X102.563Y-167.155
X103.883Y-172.081
X109.282Y-172.912
X110.421Y-133.263
X113.373Y-150.004
X115.727Y-134.561
X118.679Y-151.303
X119.564Y-156.325
X124.87Y-157.624
X130.676Y-125.118
X132.158Y-142.053
X135.849Y-126.873
X137.33Y-143.809
X137.775Y-148.889
X142.948Y-150.645
X152.0Y-128.75
X152.0Y-145.75
X157.0Y-153.05
X157.0Y-130.95
X157.0Y-147.95
X162.0Y-155.25
X166.0Y-174.05
X170.0Y-145.75
X170.0Y-128.75
X171.0Y-176.25
X175.0Y-147.95
X175.0Y-153.05
X175.0Y-130.95
X180.0Y-155.25
X186.372Y-175.832
X190.915Y-178.867
X206.126Y-181.125
X210.072Y-184.903
X229.286Y-181.125
X234.737Y-181.483
X249.04Y-175.832
X254.346Y-177.131
X255.412Y-128.75
X255.412Y-145.75
X260.412Y-153.05
X260.412Y-130.95
X260.412Y-147.95
X265.412Y-155.25
X269.412Y-174.05
X273.412Y-128.75
X273.412Y-145.75
X274.412Y-176.25
X278.412Y-130.95
X278.412Y-153.05
X278.412Y-147.95
X283.412Y-155.25
X293.293Y-141.181
X294.774Y-124.246
X297.637Y-148.889
X298.082Y-143.809
X299.563Y-126.873
X302.427Y-151.517
X312.191Y-148.268
X315.144Y-131.526
X315.848Y-156.325
X316.734Y-151.303
X319.686Y-134.561
X320.39Y-159.36
X331.529Y-172.081
X332.989Y-147.315
X335.79Y-175.5
X335.929Y-155.661
X337.249Y-150.734
X340.19Y-159.08
X348.916Y-176.74
X350.376Y-151.974
X353.176Y-180.159
X353.316Y-160.319
X354.636Y-155.393
X357.576Y-163.739
T4
X79.236Y-149.646
X83.636Y-166.067
X88.036Y-182.487
X96.623Y-144.987
X101.023Y-161.408
X105.423Y-177.829
X114.693Y-128.701
X117.645Y-145.443
X120.597Y-162.185
X135.33Y-120.946
X136.812Y-137.881
X138.293Y-154.817
X157.0Y-125.0
X157.0Y-159.0
X157.0Y-142.0
X166.0Y-180.0
X175.0Y-142.0
X175.0Y-125.0
X175.0Y-159.0
X185.339Y-181.692
X204.091Y-186.716
X231.321Y-186.716
X250.073Y-181.692
X260.412Y-159.0
X260.412Y-125.0
X260.412Y-142.0
X269.412Y-180.0
X278.412Y-125.0
X278.412Y-159.0
X278.412Y-142.0
X297.119Y-154.817
X298.6Y-137.881
X300.082Y-120.946
X314.815Y-162.185
X317.767Y-145.443
X320.719Y-128.701
X329.989Y-177.829
X334.389Y-161.408
X338.789Y-144.987
X347.376Y-182.487
X351.776Y-166.067
X356.176Y-149.646
M30
