%TF.GenerationSoftware,KiCad,Pcbnew,9.0.7*%
%TF.CreationDate,2026-02-05T22:02:29+07:00*%
%TF.ProjectId,Lapka42,4c61706b-6134-4322-9e6b-696361645f70,rev?*%
%TF.SameCoordinates,Original*%
%TF.FileFunction,Soldermask,Top*%
%TF.FilePolarity,Negative*%
%FSLAX46Y46*%
G04 Gerber Fmt 4.6, Leading zero omitted, Abs format (unit mm)*
G04 Created by KiCad (PCBNEW 9.0.7) date 2026-02-05 22:02:29*
%MOMM*%
%LPD*%
G01*
G04 APERTURE LIST*
G04 Aperture macros list*
%AMRoundRect*
0 Rectangle with rounded corners*
0 $1 Rounding radius*
0 $2 $3 $4 $5 $6 $7 $8 $9 X,Y pos of 4 corners*
0 Add a 4 corners polygon primitive as box body*
4,1,4,$2,$3,$4,$5,$6,$7,$8,$9,$2,$3,0*
0 Add four circle primitives for the rounded corners*
1,1,$1+$1,$2,$3*
1,1,$1+$1,$4,$5*
1,1,$1+$1,$6,$7*
1,1,$1+$1,$8,$9*
0 Add four rect primitives between the rounded corners*
20,1,$1+$1,$2,$3,$4,$5,0*
20,1,$1+$1,$4,$5,$6,$7,0*
20,1,$1+$1,$6,$7,$8,$9,0*
20,1,$1+$1,$8,$9,$2,$3,0*%
G04 Aperture macros list end*
%ADD10C,0.100000*%
%ADD11RoundRect,0.375000X-0.000010X-0.500000X0.000010X-0.500000X0.000010X0.500000X-0.000010X0.500000X0*%
%ADD12RoundRect,0.375000X-0.000010X-1.500000X0.000010X-1.500000X0.000010X1.500000X-0.000010X1.500000X0*%
%ADD13RoundRect,0.375000X-0.000010X-2.000000X0.000010X-2.000000X0.000010X2.000000X-0.000010X2.000000X0*%
%ADD14C,1.701800*%
%ADD15C,3.000000*%
%ADD16C,5.050000*%
%ADD17C,0.500000*%
%ADD18O,1.900000X1.900000*%
%ADD19RoundRect,0.250000X-0.700000X-0.700000X0.700000X-0.700000X0.700000X0.700000X-0.700000X0.700000X0*%
%ADD20RoundRect,0.210000X-0.640000X-0.490000X0.640000X-0.490000X0.640000X0.490000X-0.640000X0.490000X0*%
G04 APERTURE END LIST*
D10*
G36*
X215144752Y-156833949D02*
G01*
X215229653Y-156861836D01*
X215299140Y-156906263D01*
X215353404Y-156966773D01*
X215385845Y-157038452D01*
X215397143Y-157124860D01*
X215384026Y-157231828D01*
X215343722Y-157338174D01*
X215272604Y-157446487D01*
X215164400Y-157558618D01*
X215010628Y-157675628D01*
X214812226Y-157789323D01*
X214600861Y-157875174D01*
X214374581Y-157933622D01*
X214131049Y-157964139D01*
X214036273Y-158228702D01*
X213944203Y-158424294D01*
X213855654Y-158564275D01*
X213770791Y-158660232D01*
X214012133Y-158649699D01*
X214739519Y-158670765D01*
X214839062Y-158659905D01*
X214937540Y-158626804D01*
X215036885Y-158569251D01*
X215131223Y-158695189D01*
X215019330Y-158815936D01*
X214970924Y-158853332D01*
X214895071Y-158894552D01*
X214809393Y-158923138D01*
X214711584Y-158933020D01*
X214057471Y-158905085D01*
X213658823Y-158910545D01*
X213630809Y-158915465D01*
X213555648Y-158899600D01*
X213515613Y-158862452D01*
X213501360Y-158800061D01*
X213524848Y-158720589D01*
X213595852Y-158567572D01*
X213682440Y-158370210D01*
X213823150Y-157978183D01*
X213682961Y-157963646D01*
X213554567Y-157920783D01*
X213434957Y-157848735D01*
X213508382Y-157719439D01*
X213612706Y-157772536D01*
X213733898Y-157805640D01*
X213875662Y-157817288D01*
X213882243Y-157803244D01*
X214179897Y-157803244D01*
X214352792Y-157780295D01*
X214511218Y-157737444D01*
X214657102Y-157675248D01*
X214792031Y-157593501D01*
X214917292Y-157489331D01*
X214996756Y-157391420D01*
X215040374Y-157297778D01*
X215054287Y-157205307D01*
X215039465Y-157131108D01*
X214994753Y-157068837D01*
X214929020Y-157027062D01*
X214848054Y-157012814D01*
X214746158Y-157025406D01*
X214646626Y-157063827D01*
X214547009Y-157131197D01*
X214445664Y-157233243D01*
X214337298Y-157388339D01*
X214248226Y-157576459D01*
X214179897Y-157803244D01*
X213882243Y-157803244D01*
X213991000Y-157571157D01*
X214115550Y-157368545D01*
X214248510Y-157203837D01*
X214389794Y-157072348D01*
X214553156Y-156960213D01*
X214714706Y-156883569D01*
X214876349Y-156838792D01*
X215040396Y-156823983D01*
X215144752Y-156833949D01*
G37*
G36*
X216967472Y-158621763D02*
G01*
X217047919Y-158681145D01*
X216982331Y-158779204D01*
X216867790Y-158880661D01*
X216776846Y-158936103D01*
X216697974Y-158965855D01*
X216628279Y-158975000D01*
X216535366Y-158960503D01*
X216474337Y-158921652D01*
X216436326Y-158857635D01*
X216421894Y-158758081D01*
X216433711Y-158653260D01*
X216474406Y-158516892D01*
X216344958Y-158649699D01*
X216156682Y-158820067D01*
X216017978Y-158908596D01*
X215878731Y-158958980D01*
X215746868Y-158975000D01*
X215661417Y-158965726D01*
X215595921Y-158940242D01*
X215545673Y-158899895D01*
X215509122Y-158845924D01*
X215485962Y-158777831D01*
X215477590Y-158691678D01*
X215488581Y-158573842D01*
X215522174Y-158454987D01*
X215580354Y-158333324D01*
X215666420Y-158207314D01*
X215802314Y-158059023D01*
X215962370Y-157929197D01*
X216149105Y-157817288D01*
X216349138Y-157731940D01*
X216544225Y-157681474D01*
X216736662Y-157663415D01*
X216743684Y-157778820D01*
X216596833Y-157810266D01*
X216392100Y-157872870D01*
X216205814Y-157965852D01*
X216035380Y-158090230D01*
X215920178Y-158205377D01*
X215846220Y-158311803D01*
X215805363Y-158411774D01*
X215792358Y-158508190D01*
X215804981Y-158606643D01*
X215837341Y-158667832D01*
X215887145Y-158703388D01*
X215960275Y-158716255D01*
X216058720Y-158697375D01*
X216184587Y-158630953D01*
X216348469Y-158495978D01*
X216492871Y-158341582D01*
X216620979Y-158169453D01*
X216733151Y-157978183D01*
X216880155Y-158065653D01*
X216738410Y-158371455D01*
X216677481Y-158539917D01*
X216663237Y-158621763D01*
X216671609Y-158667060D01*
X216696362Y-158704043D01*
X216731157Y-158729624D01*
X216762918Y-158737168D01*
X216806577Y-158733657D01*
X216827643Y-158724956D01*
X216853899Y-158709233D01*
X216881834Y-158688167D01*
X216921981Y-158656721D01*
X216967472Y-158621763D01*
G37*
G36*
X217629522Y-158331420D02*
G01*
X217818040Y-158069290D01*
X217969750Y-157895065D01*
X218091141Y-157787674D01*
X218227454Y-157701107D01*
X218339789Y-157655984D01*
X218433845Y-157642502D01*
X218527937Y-157653258D01*
X218602227Y-157683270D01*
X218661296Y-157731651D01*
X218705385Y-157795167D01*
X218732318Y-157869390D01*
X218741743Y-157957270D01*
X218725211Y-158140278D01*
X218675767Y-158315873D01*
X218592044Y-158486759D01*
X218470634Y-158655041D01*
X218352696Y-158776304D01*
X218233962Y-158865501D01*
X218113443Y-158926802D01*
X217989580Y-158962928D01*
X217860332Y-158975000D01*
X217719688Y-158960503D01*
X217622500Y-158922487D01*
X217706459Y-158772125D01*
X217933757Y-158796550D01*
X218021096Y-158784418D01*
X218107554Y-158746943D01*
X218195656Y-158679951D01*
X218286994Y-158576273D01*
X218380741Y-158423269D01*
X218434055Y-158273943D01*
X218451400Y-158125034D01*
X218438310Y-158043932D01*
X218400719Y-157980015D01*
X218342982Y-157936795D01*
X218269591Y-157922160D01*
X218185018Y-157937674D01*
X218087824Y-157989723D01*
X217972480Y-158091500D01*
X217834076Y-158261505D01*
X217682758Y-158493579D01*
X217531055Y-158771964D01*
X217379479Y-159102616D01*
X217183230Y-159615569D01*
X217010519Y-160171179D01*
X216800623Y-160097753D01*
X216931751Y-159735663D01*
X217174773Y-159058958D01*
X217459656Y-158223716D01*
X217503585Y-158048098D01*
X217493114Y-157901095D01*
X217462589Y-157766573D01*
X217412604Y-157642502D01*
X217587543Y-157555033D01*
X217648801Y-157659302D01*
X217684233Y-157764141D01*
X217695926Y-157871632D01*
X217681756Y-158052308D01*
X217629522Y-158331420D01*
G37*
G36*
X220253148Y-158618252D02*
G01*
X220340465Y-158695189D01*
X220224012Y-158856293D01*
X220115268Y-158956462D01*
X220012013Y-159010460D01*
X219910293Y-159027512D01*
X219825767Y-159008945D01*
X219732037Y-158946295D01*
X219623460Y-158821127D01*
X219534352Y-158677401D01*
X219489498Y-158567009D01*
X219476609Y-158481782D01*
X219494240Y-158437426D01*
X219563890Y-158383062D01*
X219728484Y-158314017D01*
X219818659Y-158274305D01*
X219901439Y-158217847D01*
X219962467Y-158148397D01*
X219980207Y-158083208D01*
X219969875Y-158019561D01*
X219941739Y-157976504D01*
X219898731Y-157949173D01*
X219843889Y-157939715D01*
X219741819Y-157965724D01*
X219631483Y-158030563D01*
X219508744Y-158145835D01*
X219370553Y-158327803D01*
X219214684Y-158596458D01*
X219039414Y-158975000D01*
X218826007Y-158901574D01*
X218847488Y-158784208D01*
X218954970Y-158442326D01*
X219233435Y-157684481D01*
X219526762Y-156954126D01*
X219707857Y-156566182D01*
X219812443Y-156393811D01*
X219983718Y-156456703D01*
X219764520Y-156869484D01*
X219559123Y-157323262D01*
X219368362Y-157821125D01*
X219193287Y-158366377D01*
X219387417Y-158097436D01*
X219541084Y-157923651D01*
X219661928Y-157820799D01*
X219797444Y-157741762D01*
X219921123Y-157698110D01*
X220036230Y-157684329D01*
X220135438Y-157701645D01*
X220209337Y-157750885D01*
X220257431Y-157825317D01*
X220274062Y-157920481D01*
X220261232Y-158019454D01*
X220223381Y-158107632D01*
X220163064Y-158184988D01*
X220078210Y-158254483D01*
X219932279Y-158341245D01*
X219742376Y-158432933D01*
X219770691Y-158539997D01*
X219807323Y-158621088D01*
X219850911Y-158681297D01*
X219906357Y-158729064D01*
X219963984Y-158756155D01*
X220025697Y-158765103D01*
X220088521Y-158740895D01*
X220253148Y-158618252D01*
G37*
G36*
X221925601Y-158621763D02*
G01*
X222006049Y-158681145D01*
X221940461Y-158779204D01*
X221825920Y-158880661D01*
X221734976Y-158936103D01*
X221656103Y-158965855D01*
X221586409Y-158975000D01*
X221493496Y-158960503D01*
X221432467Y-158921652D01*
X221394456Y-158857635D01*
X221380024Y-158758081D01*
X221391841Y-158653260D01*
X221432536Y-158516892D01*
X221303087Y-158649699D01*
X221114812Y-158820067D01*
X220976107Y-158908596D01*
X220836861Y-158958980D01*
X220704998Y-158975000D01*
X220619546Y-158965726D01*
X220554051Y-158940242D01*
X220503803Y-158899895D01*
X220467252Y-158845924D01*
X220444092Y-158777831D01*
X220435720Y-158691678D01*
X220446711Y-158573842D01*
X220480304Y-158454987D01*
X220538484Y-158333324D01*
X220624550Y-158207314D01*
X220760443Y-158059023D01*
X220920500Y-157929197D01*
X221107235Y-157817288D01*
X221307268Y-157731940D01*
X221502355Y-157681474D01*
X221694792Y-157663415D01*
X221701814Y-157778820D01*
X221554963Y-157810266D01*
X221350230Y-157872870D01*
X221163944Y-157965852D01*
X220993510Y-158090230D01*
X220878308Y-158205377D01*
X220804350Y-158311803D01*
X220763493Y-158411774D01*
X220750488Y-158508190D01*
X220763111Y-158606643D01*
X220795471Y-158667832D01*
X220845275Y-158703388D01*
X220918405Y-158716255D01*
X221016850Y-158697375D01*
X221142717Y-158630953D01*
X221306598Y-158495978D01*
X221451001Y-158341582D01*
X221579109Y-158169453D01*
X221691281Y-157978183D01*
X221838285Y-158065653D01*
X221696540Y-158371455D01*
X221635611Y-158539917D01*
X221621366Y-158621763D01*
X221629739Y-158667060D01*
X221654492Y-158704043D01*
X221689286Y-158729624D01*
X221721048Y-158737168D01*
X221764706Y-158733657D01*
X221785772Y-158724956D01*
X221812028Y-158709233D01*
X221839964Y-158688167D01*
X221880111Y-158656721D01*
X221925601Y-158621763D01*
G37*
G36*
X214690610Y-134902211D02*
G01*
X214702050Y-135052272D01*
X214731604Y-135156013D01*
X214774416Y-135225680D01*
X214837206Y-135278886D01*
X214931745Y-135324521D01*
X215068270Y-135360319D01*
X215026291Y-135489767D01*
X214889973Y-135496789D01*
X214789506Y-135485648D01*
X214700837Y-135453186D01*
X214621191Y-135398975D01*
X214548949Y-135320171D01*
X214478419Y-135196125D01*
X214433798Y-135045024D01*
X214417821Y-134860232D01*
X214430280Y-134374914D01*
X214466000Y-133936685D01*
X214522693Y-133541625D01*
X214557650Y-133335240D01*
X214550143Y-133308391D01*
X214529715Y-133300283D01*
X214501123Y-133318009D01*
X214447584Y-133406945D01*
X214351265Y-133650008D01*
X214249904Y-133940352D01*
X214087697Y-134360584D01*
X213936738Y-134683941D01*
X213796834Y-134926635D01*
X213671770Y-135097798D01*
X213542590Y-135235079D01*
X213409077Y-135342551D01*
X213270490Y-135423364D01*
X213179662Y-135231023D01*
X213397897Y-135053568D01*
X213570144Y-134882442D01*
X213702495Y-134716892D01*
X213813985Y-134533600D01*
X213946473Y-134259863D01*
X214102900Y-133870437D01*
X214221816Y-133552158D01*
X214346249Y-133245847D01*
X214435223Y-133078175D01*
X214503750Y-132994253D01*
X214570383Y-132950274D01*
X214638098Y-132936514D01*
X214719224Y-132950530D01*
X214774165Y-132989076D01*
X214809635Y-133054970D01*
X214823417Y-133160454D01*
X214791971Y-133475222D01*
X214733054Y-134033112D01*
X214700594Y-134505562D01*
X214690610Y-134902211D01*
G37*
G36*
X217062513Y-134821763D02*
G01*
X217142961Y-134881145D01*
X217077372Y-134979204D01*
X216962831Y-135080661D01*
X216871887Y-135136103D01*
X216793015Y-135165855D01*
X216723321Y-135175000D01*
X216630408Y-135160503D01*
X216569378Y-135121652D01*
X216531367Y-135057635D01*
X216516936Y-134958081D01*
X216528752Y-134853260D01*
X216569448Y-134716892D01*
X216439999Y-134849699D01*
X216251724Y-135020067D01*
X216113019Y-135108596D01*
X215973773Y-135158980D01*
X215841909Y-135175000D01*
X215756562Y-135165729D01*
X215691112Y-135140249D01*
X215640867Y-135099895D01*
X215604229Y-135045912D01*
X215581020Y-134977819D01*
X215572632Y-134891678D01*
X215583623Y-134773842D01*
X215617216Y-134654987D01*
X215675396Y-134533324D01*
X215761462Y-134407314D01*
X215897355Y-134259023D01*
X216057411Y-134129197D01*
X216244147Y-134017288D01*
X216444179Y-133931940D01*
X216639267Y-133881474D01*
X216831704Y-133863415D01*
X216838726Y-133978820D01*
X216691875Y-134010266D01*
X216487142Y-134072870D01*
X216300856Y-134165852D01*
X216130421Y-134290230D01*
X216015219Y-134405377D01*
X215941262Y-134511803D01*
X215900405Y-134611774D01*
X215887400Y-134708190D01*
X215900023Y-134806643D01*
X215932382Y-134867832D01*
X215982187Y-134903388D01*
X216055317Y-134916255D01*
X216153762Y-134897375D01*
X216279629Y-134830953D01*
X216443510Y-134695978D01*
X216587913Y-134541582D01*
X216716021Y-134369453D01*
X216828193Y-134178183D01*
X216975196Y-134265653D01*
X216833452Y-134571455D01*
X216772523Y-134739917D01*
X216758278Y-134821763D01*
X216766651Y-134867060D01*
X216791404Y-134904043D01*
X216826198Y-134929624D01*
X216857960Y-134937168D01*
X216901618Y-134933657D01*
X216922684Y-134924956D01*
X216948940Y-134909233D01*
X216976875Y-134888167D01*
X217017023Y-134856721D01*
X217062513Y-134821763D01*
G37*
G36*
X218737256Y-134751849D02*
G01*
X218810834Y-134807719D01*
X218719256Y-134949504D01*
X218599106Y-135066617D01*
X218505198Y-135128732D01*
X218425359Y-135161534D01*
X218356084Y-135171489D01*
X218256850Y-135154950D01*
X218184656Y-135108596D01*
X218137722Y-135038313D01*
X218121764Y-134951212D01*
X218144430Y-134842684D01*
X218242359Y-134620721D01*
X218317321Y-134457595D01*
X218353382Y-134346188D01*
X218363106Y-134272675D01*
X218353418Y-134226751D01*
X218322806Y-134183526D01*
X218278595Y-134153261D01*
X218226636Y-134143226D01*
X218146996Y-134156687D01*
X218062572Y-134200078D01*
X217969859Y-134281758D01*
X217866377Y-134414336D01*
X217687776Y-134718925D01*
X217460629Y-135195913D01*
X217250885Y-135122487D01*
X217331855Y-134721079D01*
X217441395Y-134330377D01*
X217571201Y-133973717D01*
X217670525Y-133775946D01*
X217814018Y-133821436D01*
X217715623Y-134116502D01*
X217565653Y-134678271D01*
X217759170Y-134376159D01*
X217930534Y-134159885D01*
X218082404Y-134012414D01*
X218217796Y-133919204D01*
X218340261Y-133868673D01*
X218453934Y-133852882D01*
X218534465Y-133867973D01*
X218599106Y-133912417D01*
X218642489Y-133977324D01*
X218656808Y-134052246D01*
X218651318Y-134130287D01*
X218635742Y-134197418D01*
X218504614Y-134498294D01*
X218413028Y-134715421D01*
X218394553Y-134793828D01*
X218403773Y-134847937D01*
X218429510Y-134886488D01*
X218465472Y-134912245D01*
X218495913Y-134919613D01*
X218548426Y-134909233D01*
X218595595Y-134877786D01*
X218642764Y-134839318D01*
X218693597Y-134791996D01*
X218737256Y-134751849D01*
G37*
G36*
X220223626Y-134786806D02*
G01*
X220310943Y-134863743D01*
X220194498Y-135024763D01*
X220085757Y-135124888D01*
X219982498Y-135178867D01*
X219880770Y-135195913D01*
X219801248Y-135180277D01*
X219714713Y-135128615D01*
X219616683Y-135028148D01*
X219535277Y-134911509D01*
X219482557Y-134803727D01*
X219454109Y-134702848D01*
X219335040Y-134905722D01*
X219246585Y-135064104D01*
X219195211Y-135175000D01*
X218985468Y-135101574D01*
X219068320Y-134678495D01*
X219165444Y-134290230D01*
X219279089Y-133939665D01*
X219366639Y-133755033D01*
X219510132Y-133800523D01*
X219443080Y-134027352D01*
X219300236Y-134657357D01*
X219440277Y-134398410D01*
X219569395Y-134210065D01*
X219688429Y-134078502D01*
X219826005Y-133968025D01*
X219968875Y-133887871D01*
X220118602Y-133835480D01*
X220118602Y-134066290D01*
X220003947Y-134087888D01*
X219886853Y-134145770D01*
X219763780Y-134247661D01*
X219632406Y-134405482D01*
X219654667Y-134552808D01*
X219699894Y-134677380D01*
X219767045Y-134783295D01*
X219854916Y-134874150D01*
X219929804Y-134920032D01*
X219996175Y-134933657D01*
X220058999Y-134909448D01*
X220223626Y-134786806D01*
G37*
G36*
X222052394Y-134821763D02*
G01*
X222132842Y-134881145D01*
X222067254Y-134979204D01*
X221952713Y-135080661D01*
X221861769Y-135136103D01*
X221782897Y-135165855D01*
X221713202Y-135175000D01*
X221620289Y-135160503D01*
X221559260Y-135121652D01*
X221521249Y-135057635D01*
X221506817Y-134958081D01*
X221518634Y-134853260D01*
X221559329Y-134716892D01*
X221429881Y-134849699D01*
X221241605Y-135020067D01*
X221102900Y-135108596D01*
X220963654Y-135158980D01*
X220831791Y-135175000D01*
X220746443Y-135165729D01*
X220680993Y-135140249D01*
X220630748Y-135099895D01*
X220594110Y-135045912D01*
X220570901Y-134977819D01*
X220562513Y-134891678D01*
X220573504Y-134773842D01*
X220607097Y-134654987D01*
X220665277Y-134533324D01*
X220751343Y-134407314D01*
X220887236Y-134259023D01*
X221047293Y-134129197D01*
X221234028Y-134017288D01*
X221434061Y-133931940D01*
X221629148Y-133881474D01*
X221821585Y-133863415D01*
X221828607Y-133978820D01*
X221681756Y-134010266D01*
X221477023Y-134072870D01*
X221290737Y-134165852D01*
X221120303Y-134290230D01*
X221005101Y-134405377D01*
X220931143Y-134511803D01*
X220890286Y-134611774D01*
X220877281Y-134708190D01*
X220889904Y-134806643D01*
X220922264Y-134867832D01*
X220972068Y-134903388D01*
X221045198Y-134916255D01*
X221143643Y-134897375D01*
X221269510Y-134830953D01*
X221433392Y-134695978D01*
X221577794Y-134541582D01*
X221705902Y-134369453D01*
X221818074Y-134178183D01*
X221965078Y-134265653D01*
X221823333Y-134571455D01*
X221762404Y-134739917D01*
X221748159Y-134821763D01*
X221756532Y-134867060D01*
X221781285Y-134904043D01*
X221816080Y-134929624D01*
X221847841Y-134937168D01*
X221891500Y-134933657D01*
X221912565Y-134924956D01*
X221938822Y-134909233D01*
X221966757Y-134888167D01*
X222006904Y-134856721D01*
X222052394Y-134821763D01*
G37*
D11*
%TO.C,REF\u002A\u002A*%
X202750001Y-137300000D03*
X201750001Y-140300000D03*
X201750001Y-137300000D03*
D12*
X200750001Y-140300000D03*
D11*
X200750001Y-135300000D03*
D13*
X199750001Y-139800000D03*
D11*
X199750001Y-135300000D03*
D12*
X198750001Y-139300000D03*
D13*
X197750001Y-139800000D03*
D11*
X197750001Y-135300000D03*
D12*
X196750001Y-140300000D03*
D11*
X196750001Y-135300000D03*
X195750001Y-140300000D03*
X195750001Y-137300000D03*
X194750001Y-137300000D03*
%TD*%
D14*
%TO.C,SW29*%
X179922836Y-180736906D03*
D15*
X186372482Y-175832365D03*
D16*
X185339279Y-181691971D03*
D15*
X190914503Y-178867187D03*
D14*
X190755722Y-182647036D03*
%TD*%
%TO.C,SW6*%
X361488537Y-151069403D03*
D15*
X354635972Y-155393157D03*
D16*
X356175945Y-149645898D03*
D15*
X350375744Y-151974025D03*
D14*
X350863353Y-148222393D03*
%TD*%
%TO.C,SW16*%
X309398259Y-161229758D03*
D15*
X315847909Y-156325217D03*
D16*
X314814702Y-162184823D03*
D15*
X320389922Y-159360035D03*
D14*
X320231145Y-163139888D03*
%TD*%
%TO.C,SW25*%
X198922637Y-184835351D03*
D15*
X206125963Y-181125290D03*
D16*
X204090946Y-186716462D03*
D15*
X210071989Y-184902721D03*
D14*
X209259255Y-188597573D03*
%TD*%
%TO.C,SW41*%
X88948730Y-164643123D03*
D15*
X85176112Y-171813888D03*
D16*
X83636138Y-166066628D03*
D15*
X79777081Y-170982946D03*
D14*
X78323546Y-167490133D03*
%TD*%
%TO.C,SW33*%
X160500000Y-180000005D03*
D15*
X165999996Y-174050006D03*
D16*
X166000000Y-180000005D03*
D15*
X171000005Y-176250008D03*
D14*
X171500000Y-180000005D03*
%TD*%
%TO.C,SW22*%
X180500000Y-125000000D03*
D15*
X175000000Y-130950002D03*
D16*
X175000000Y-125000000D03*
D15*
X169999997Y-128750000D03*
D14*
X169500000Y-125000000D03*
%TD*%
D17*
%TO.C,REF\u002A\u002A*%
X226400000Y-134000000D03*
X226400000Y-133200000D03*
X226400000Y-132400000D03*
X226400000Y-131600000D03*
X226400000Y-130800000D03*
%TD*%
D14*
%TO.C,SW28*%
X151499999Y-158999996D03*
D15*
X156999995Y-153049997D03*
D16*
X156999999Y-158999996D03*
D15*
X162000005Y-155249998D03*
D14*
X162499999Y-158999996D03*
%TD*%
%TO.C,SW17*%
X324676832Y-176405122D03*
D15*
X331529397Y-172081368D03*
D16*
X329989424Y-177828627D03*
D15*
X335789625Y-175500500D03*
D14*
X335302016Y-179252132D03*
%TD*%
%TO.C,SW23*%
X180499993Y-142000005D03*
D15*
X174999993Y-147950007D03*
D16*
X174999993Y-142000005D03*
D15*
X169999990Y-145750005D03*
D14*
X169499993Y-142000005D03*
%TD*%
D18*
%TO.C,U1*%
X244269698Y-118759200D03*
X244269698Y-121299200D03*
D19*
X244269698Y-123839200D03*
D18*
X244269698Y-126379200D03*
X244269698Y-128919200D03*
X244269698Y-131459200D03*
X244269698Y-133999200D03*
X244269698Y-136539200D03*
X244269698Y-139079200D03*
X244269698Y-141619200D03*
X244269698Y-144159200D03*
X244269698Y-146699200D03*
X244269698Y-149239200D03*
X229029698Y-149239200D03*
X229029698Y-146699200D03*
X229029698Y-144159200D03*
X229029698Y-141619200D03*
X229029698Y-139079200D03*
X229029698Y-136539200D03*
X229029698Y-133999200D03*
X229029698Y-131459200D03*
D19*
X229029698Y-128919200D03*
X229029698Y-126379200D03*
D18*
X229029698Y-123839200D03*
X229029698Y-121299200D03*
D19*
X229029698Y-118759200D03*
%TD*%
D14*
%TO.C,SW21*%
X263912159Y-180000007D03*
D15*
X269412159Y-174050006D03*
D16*
X269412159Y-180000007D03*
D15*
X274412159Y-176250007D03*
D14*
X274912159Y-180000007D03*
%TD*%
D20*
%TO.C,SW44*%
X201900001Y-158269701D03*
X195600001Y-158269701D03*
X201900001Y-154669701D03*
X195600001Y-154669701D03*
%TD*%
D14*
%TO.C,SW15*%
X291639668Y-154337395D03*
D15*
X297637316Y-148889394D03*
D16*
X297118739Y-154816752D03*
D15*
X302426550Y-151516801D03*
D14*
X302597810Y-155296109D03*
%TD*%
%TO.C,SW38*%
X106335401Y-159984380D03*
D15*
X102562783Y-167155145D03*
D16*
X101022809Y-161407885D03*
D15*
X97163752Y-166324203D03*
D14*
X95710217Y-162831390D03*
%TD*%
%TO.C,SW30*%
X140809202Y-120466772D03*
D15*
X135848708Y-126873489D03*
D16*
X135330131Y-120946129D03*
D15*
X130675989Y-125117638D03*
D14*
X129851060Y-121425486D03*
%TD*%
%TO.C,SW27*%
X162500000Y-142000004D03*
D15*
X157000000Y-147950006D03*
D16*
X157000000Y-142000004D03*
D15*
X151999997Y-145750004D03*
D14*
X151500000Y-142000004D03*
%TD*%
D17*
%TO.C,REF\u002A\u002A*%
X209000000Y-161600000D03*
X209000000Y-160800000D03*
X209000000Y-160000000D03*
X209000000Y-159200000D03*
X209000000Y-158400000D03*
%TD*%
D14*
%TO.C,SW24*%
X169500001Y-159000005D03*
D15*
X174999997Y-153050006D03*
D16*
X175000001Y-159000005D03*
D15*
X180000007Y-155250007D03*
D14*
X180500001Y-159000005D03*
%TD*%
D17*
%TO.C,REF\u002A\u002A*%
X226387848Y-157600000D03*
X226387848Y-156800000D03*
X226387848Y-156000000D03*
X226387848Y-155200000D03*
X226387848Y-154400000D03*
%TD*%
D14*
%TO.C,SW7*%
X265912158Y-142000014D03*
D15*
X260412158Y-147950015D03*
D16*
X260412158Y-142000014D03*
D15*
X255412158Y-145750014D03*
D14*
X254912158Y-142000014D03*
%TD*%
D17*
%TO.C,REF\u002A\u002A*%
X209000000Y-157600000D03*
X209000000Y-156800000D03*
X209000000Y-156000000D03*
X209000000Y-155200000D03*
X209000000Y-154400000D03*
%TD*%
D14*
%TO.C,SW10*%
X323183162Y-146398146D03*
D15*
X316733512Y-151302687D03*
D16*
X317766719Y-145443081D03*
D15*
X312191499Y-148267869D03*
D14*
X312350276Y-144488016D03*
%TD*%
%TO.C,SW4*%
X326135186Y-129656415D03*
D15*
X319685536Y-134560956D03*
D16*
X320718743Y-128701350D03*
D15*
X315143523Y-131526138D03*
D14*
X315302300Y-127746285D03*
%TD*%
%TO.C,SW11*%
X329076760Y-159984391D03*
D15*
X335929325Y-155660637D03*
D16*
X334389352Y-161407896D03*
D15*
X340189553Y-159079769D03*
D14*
X339701944Y-162831401D03*
%TD*%
D18*
%TO.C,U2*%
X206357545Y-118759186D03*
X206357545Y-121299186D03*
D19*
X206357545Y-123839186D03*
D18*
X206357545Y-126379186D03*
X206357545Y-128919186D03*
X206357545Y-131459186D03*
X206357545Y-133999186D03*
X206357545Y-136539186D03*
X206357545Y-139079186D03*
X206357545Y-141619186D03*
X206357545Y-144159186D03*
X206357545Y-146699186D03*
X206357545Y-149239186D03*
X191117545Y-149239186D03*
X191117545Y-146699186D03*
X191117545Y-144159186D03*
X191117545Y-141619186D03*
X191117545Y-139079186D03*
X191117545Y-136539186D03*
X191117545Y-133999186D03*
X191117545Y-131459186D03*
D19*
X191117545Y-128919186D03*
X191117545Y-126379186D03*
D18*
X191117545Y-123839186D03*
X191117545Y-121299186D03*
D19*
X191117545Y-118759186D03*
%TD*%
D14*
%TO.C,SW13*%
X254912146Y-159000003D03*
D15*
X260412146Y-153050002D03*
D16*
X260412146Y-159000003D03*
D15*
X265412146Y-155250003D03*
D14*
X265912146Y-159000003D03*
%TD*%
%TO.C,SW19*%
X226152904Y-188597580D03*
D15*
X229286193Y-181125297D03*
D16*
X231321213Y-186716469D03*
D15*
X234737100Y-181482520D03*
D14*
X236489522Y-184835358D03*
%TD*%
%TO.C,SW40*%
X84548810Y-148222380D03*
D15*
X80776192Y-155393145D03*
D16*
X79236218Y-149645885D03*
D15*
X75377161Y-154562203D03*
D14*
X73923626Y-151069390D03*
%TD*%
D19*
%TO.C,B1*%
X240472152Y-163259856D03*
X232852152Y-163259856D03*
%TD*%
D14*
%TO.C,SW35*%
X123061878Y-144488016D03*
D15*
X118678642Y-151302689D03*
D16*
X117645435Y-145443081D03*
D15*
X113372574Y-150004351D03*
D14*
X112228992Y-146398146D03*
%TD*%
D19*
%TO.C,B2*%
X202560011Y-163259856D03*
X194940011Y-163259856D03*
%TD*%
D14*
%TO.C,SW1*%
X265912155Y-125000010D03*
D15*
X260412155Y-130950011D03*
D16*
X260412155Y-125000010D03*
D15*
X255412155Y-128750010D03*
D14*
X254912155Y-125000010D03*
%TD*%
D17*
%TO.C,REF\u002A\u002A*%
X209000000Y-138000000D03*
X209000000Y-137200000D03*
X209000000Y-136400000D03*
X209000000Y-135600000D03*
X209000000Y-134800000D03*
%TD*%
D14*
%TO.C,SW36*%
X115181013Y-163139877D03*
D15*
X119564249Y-156325209D03*
D16*
X120597456Y-162184812D03*
D15*
X124870319Y-157623543D03*
D14*
X126013899Y-161229747D03*
%TD*%
%TO.C,SW5*%
X344101867Y-146410661D03*
D15*
X337249302Y-150734415D03*
D16*
X338789275Y-144987156D03*
D15*
X332989074Y-147315283D03*
D14*
X333476683Y-143563651D03*
%TD*%
D17*
%TO.C,REF\u002A\u002A*%
X226412151Y-138000000D03*
X226412151Y-137200000D03*
X226412151Y-136400000D03*
X226412151Y-135600000D03*
X226412151Y-134800000D03*
%TD*%
D14*
%TO.C,SW2*%
X283912151Y-125000007D03*
D15*
X278412151Y-130950008D03*
D16*
X278412151Y-125000007D03*
D15*
X273412151Y-128750007D03*
D14*
X272912151Y-125000007D03*
%TD*%
%TO.C,SW3*%
X305561101Y-121425491D03*
D15*
X299563453Y-126873492D03*
D16*
X300082030Y-120946134D03*
D15*
X294774219Y-124246085D03*
D14*
X294602959Y-120466777D03*
%TD*%
D17*
%TO.C,REF\u002A\u002A*%
X209000000Y-134000000D03*
X209000000Y-133200000D03*
X209000000Y-132400000D03*
X209000000Y-131600000D03*
X209000000Y-130800000D03*
%TD*%
D14*
%TO.C,SW12*%
X346463424Y-164643128D03*
D15*
X353315989Y-160319374D03*
D16*
X351776016Y-166066633D03*
D15*
X357576217Y-163738506D03*
D14*
X357088608Y-167490138D03*
%TD*%
%TO.C,SW32*%
X132814349Y-155296104D03*
D15*
X137774843Y-148889392D03*
D16*
X138293420Y-154816747D03*
D15*
X142947564Y-150645240D03*
D14*
X143772491Y-154337390D03*
%TD*%
%TO.C,SW39*%
X100110140Y-179252128D03*
D15*
X103882759Y-172081364D03*
D16*
X105422732Y-177828623D03*
D15*
X109281790Y-172912306D03*
D14*
X110735324Y-176405118D03*
%TD*%
%TO.C,SW37*%
X101935475Y-143563640D03*
D15*
X98162857Y-150734405D03*
D16*
X96622883Y-144987145D03*
D15*
X92763826Y-149903463D03*
D14*
X91310291Y-146410650D03*
%TD*%
%TO.C,SW20*%
X244656434Y-182647041D03*
D15*
X249039670Y-175832369D03*
D16*
X250072877Y-181691976D03*
D15*
X254345735Y-177130706D03*
D14*
X255489320Y-180736911D03*
%TD*%
%TO.C,SW18*%
X342063494Y-181063869D03*
D15*
X348916059Y-176740115D03*
D16*
X347376086Y-182487374D03*
D15*
X353176287Y-180159247D03*
D14*
X352688678Y-183910879D03*
%TD*%
%TO.C,SW9*%
X304079460Y-138360798D03*
D15*
X298081812Y-143808799D03*
D16*
X298600389Y-137881441D03*
D15*
X293292578Y-141181392D03*
D14*
X293121318Y-137402084D03*
%TD*%
D17*
%TO.C,REF\u002A\u002A*%
X226400000Y-161600000D03*
X226400000Y-160800000D03*
X226400000Y-160000000D03*
X226400000Y-159200000D03*
X226400000Y-158400000D03*
%TD*%
D14*
%TO.C,SW26*%
X162499999Y-125000001D03*
D15*
X156999999Y-130950003D03*
D16*
X156999999Y-125000001D03*
D15*
X151999996Y-128750001D03*
D14*
X151499999Y-125000001D03*
%TD*%
%TO.C,SW31*%
X142290844Y-137402076D03*
D15*
X137330350Y-143808793D03*
D16*
X136811773Y-137881433D03*
D15*
X132157631Y-142052942D03*
D14*
X131332702Y-138360790D03*
%TD*%
%TO.C,SW14*%
X272912153Y-159000001D03*
D15*
X278412153Y-153050000D03*
D16*
X278412153Y-159000001D03*
D15*
X283412153Y-155250001D03*
D14*
X283912153Y-159000001D03*
%TD*%
D20*
%TO.C,SW43*%
X239812151Y-158269701D03*
X233512151Y-158269701D03*
X239812151Y-154669701D03*
X233512151Y-154669701D03*
%TD*%
D11*
%TO.C,REF\u002A\u002A*%
X240662151Y-137300010D03*
X239662151Y-140300010D03*
X239662151Y-137300010D03*
D12*
X238662151Y-140300010D03*
D11*
X238662151Y-135300010D03*
D13*
X237662151Y-139800010D03*
D11*
X237662151Y-135300010D03*
D12*
X236662151Y-139300010D03*
D13*
X235662151Y-139800010D03*
D11*
X235662151Y-135300010D03*
D12*
X234662151Y-140300010D03*
D11*
X234662151Y-135300010D03*
X233662151Y-140300010D03*
X233662151Y-137300010D03*
X232662151Y-137300010D03*
%TD*%
D14*
%TO.C,SW8*%
X283912154Y-142000006D03*
D15*
X278412154Y-147950007D03*
D16*
X278412154Y-142000006D03*
D15*
X273412154Y-145750006D03*
D14*
X272912154Y-142000006D03*
%TD*%
%TO.C,SW34*%
X120109858Y-127746283D03*
D15*
X115726622Y-134560956D03*
D16*
X114693415Y-128701348D03*
D15*
X110420554Y-133262618D03*
D14*
X109276972Y-129656413D03*
%TD*%
%TO.C,SW42*%
X82723467Y-183910874D03*
D15*
X86496086Y-176740110D03*
D16*
X88036059Y-182487369D03*
D15*
X91895117Y-177571052D03*
D14*
X93348651Y-181063864D03*
%TD*%
M02*
