M48
; DRILL file {KiCad 9.0.7} date 2026-02-05T22:02:26+0700
; FORMAT={-:-/ absolute / metric / decimal}
; #@! TF.CreationDate,2026-02-05T22:02:26+07:00
; #@! TF.GenerationSoftware,Kicad,Pcbnew,9.0.7
; #@! TF.FileFunction,Plated,1,2,PTH
FMAT,2
METRIC
; #@! TA.AperFunction,Plated,PTH,ViaDrill
T1C0.300
; #@! TA.AperFunction,Plated,PTH,ComponentDrill
T2C0.500
; #@! TA.AperFunction,Plated,PTH,ComponentDrill
T3C1.500
%
G90
G05
T1
X87.0Y-156.5
X87.0Y-168.5
X104.5Y-152.5
X104.5Y-164.0
X121.5Y-136.0
X121.5Y-148.5
X143.0Y-126.5
X144.0Y-143.5
X162.725Y-172.05
X164.0Y-131.0
X164.0Y-148.0
X178.0Y-175.0
X183.0Y-131.0
X183.0Y-148.0
X189.0Y-135.0
X189.0Y-150.5
X195.6Y-154.67
X195.6Y-158.27
X200.5Y-181.0
X201.9Y-154.67
X201.9Y-158.27
X226.877Y-184.465
X233.512Y-154.67
X233.512Y-158.27
X239.812Y-154.67
X239.812Y-158.27
X246.0Y-135.0
X246.0Y-150.5
X253.412Y-153.0
X254.412Y-185.013
X266.93Y-171.983
X267.412Y-131.0
X267.412Y-148.0
X271.912Y-153.0
X285.412Y-131.0
X285.412Y-148.0
X289.412Y-148.5
X302.912Y-131.5
X320.912Y-140.5
X320.912Y-148.5
X326.912Y-169.0
X327.912Y-153.5
X338.912Y-156.0
X344.412Y-157.5
X344.412Y-173.5
T3
X191.118Y-118.759
X191.118Y-121.299
X191.118Y-123.839
X191.118Y-126.379
X191.118Y-128.919
X191.118Y-131.459
X191.118Y-133.999
X191.118Y-136.539
X191.118Y-139.079
X191.118Y-141.619
X191.118Y-144.159
X191.118Y-146.699
X191.118Y-149.239
X206.358Y-118.759
X206.358Y-121.299
X206.358Y-123.839
X206.358Y-126.379
X206.358Y-128.919
X206.358Y-131.459
X206.358Y-133.999
X206.358Y-136.539
X206.358Y-139.079
X206.358Y-141.619
X206.358Y-144.159
X206.358Y-146.699
X206.358Y-149.239
X229.03Y-118.759
X229.03Y-121.299
X229.03Y-123.839
X229.03Y-126.379
X229.03Y-128.919
X229.03Y-131.459
X229.03Y-133.999
X229.03Y-136.539
X229.03Y-139.079
X229.03Y-141.619
X229.03Y-144.159
X229.03Y-146.699
X229.03Y-149.239
X244.27Y-118.759
X244.27Y-121.299
X244.27Y-123.839
X244.27Y-126.379
X244.27Y-128.919
X244.27Y-131.459
X244.27Y-133.999
X244.27Y-136.539
X244.27Y-139.079
X244.27Y-141.619
X244.27Y-144.159
X244.27Y-146.699
X244.27Y-149.239
T2
G00X194.75Y-136.8
M15
G01X194.75Y-137.8
M16
G05
G00X195.75Y-136.8
M15
G01X195.75Y-137.8
M16
G05
G00X195.75Y-139.8
M15
G01X195.75Y-140.8
M16
G05
G00X196.75Y-134.8
M15
G01X196.75Y-135.8
M16
G05
G00X196.75Y-138.8
M15
G01X196.75Y-141.8
M16
G05
G00X197.75Y-134.8
M15
G01X197.75Y-135.8
M16
G05
G00X197.75Y-137.8
M15
G01X197.75Y-141.8
M16
G05
G00X198.75Y-137.8
M15
G01X198.75Y-140.8
M16
G05
G00X199.75Y-134.8
M15
G01X199.75Y-135.8
M16
G05
G00X199.75Y-137.8
M15
G01X199.75Y-141.8
M16
G05
G00X200.75Y-134.8
M15
G01X200.75Y-135.8
M16
G05
G00X200.75Y-138.8
M15
G01X200.75Y-141.8
M16
G05
G00X201.75Y-136.8
M15
G01X201.75Y-137.8
M16
G05
G00X201.75Y-139.8
M15
G01X201.75Y-140.8
M16
G05
G00X202.75Y-136.8
M15
G01X202.75Y-137.8
M16
G05
G00X232.662Y-136.8
M15
G01X232.662Y-137.8
M16
G05
G00X233.662Y-136.8
M15
G01X233.662Y-137.8
M16
G05
G00X233.662Y-139.8
M15
G01X233.662Y-140.8
M16
G05
G00X234.662Y-134.8
M15
G01X234.662Y-135.8
M16
G05
G00X234.662Y-138.8
M15
G01X234.662Y-141.8
M16
G05
G00X235.662Y-134.8
M15
G01X235.662Y-135.8
M16
G05
G00X235.662Y-137.8
M15
G01X235.662Y-141.8
M16
G05
G00X236.662Y-137.8
M15
G01X236.662Y-140.8
M16
G05
G00X237.662Y-134.8
M15
G01X237.662Y-135.8
M16
G05
G00X237.662Y-137.8
M15
G01X237.662Y-141.8
M16
G05
G00X238.662Y-134.8
M15
G01X238.662Y-135.8
M16
G05
G00X238.662Y-138.8
M15
G01X238.662Y-141.8
M16
G05
G00X239.662Y-136.8
M15
G01X239.662Y-137.8
M16
G05
G00X239.662Y-139.8
M15
G01X239.662Y-140.8
M16
G05
G00X240.662Y-136.8
M15
G01X240.662Y-137.8
M16
G05
M30
