%TF.GenerationSoftware,KiCad,Pcbnew,9.0.7*%
%TF.CreationDate,2026-02-05T22:02:29+07:00*%
%TF.ProjectId,Lapka42,4c61706b-6134-4322-9e6b-696361645f70,rev?*%
%TF.SameCoordinates,Original*%
%TF.FileFunction,Paste,Bot*%
%TF.FilePolarity,Positive*%
%FSLAX46Y46*%
G04 Gerber Fmt 4.6, Leading zero omitted, Abs format (unit mm)*
G04 Created by KiCad (PCBNEW 9.0.7) date 2026-02-05 22:02:29*
%MOMM*%
%LPD*%
G01*
G04 APERTURE LIST*
G04 Aperture macros list*
%AMRoundRect*
0 Rectangle with rounded corners*
0 $1 Rounding radius*
0 $2 $3 $4 $5 $6 $7 $8 $9 X,Y pos of 4 corners*
0 Add a 4 corners polygon primitive as box body*
4,1,4,$2,$3,$4,$5,$6,$7,$8,$9,$2,$3,0*
0 Add four circle primitives for the rounded corners*
1,1,$1+$1,$2,$3*
1,1,$1+$1,$4,$5*
1,1,$1+$1,$6,$7*
1,1,$1+$1,$8,$9*
0 Add four rect primitives between the rounded corners*
20,1,$1+$1,$2,$3,$4,$5,0*
20,1,$1+$1,$4,$5,$6,$7,0*
20,1,$1+$1,$6,$7,$8,$9,0*
20,1,$1+$1,$8,$9,$2,$3,0*%
G04 Aperture macros list end*
%ADD10C,0.800000*%
%ADD11RoundRect,0.200000X0.200000X0.200000X-0.200000X0.200000X-0.200000X-0.200000X0.200000X-0.200000X0*%
%ADD12RoundRect,0.200000X-0.200000X-0.200000X0.200000X-0.200000X0.200000X0.200000X-0.200000X0.200000X0*%
%ADD13RoundRect,0.200000X1.274302X0.892276X-0.892276X1.274302X-1.274302X-0.892276X0.892276X-1.274302X0*%
%ADD14RoundRect,0.200000X-1.347219X-0.777817X0.777817X-1.347219X1.347219X0.777817X-0.777817X1.347219X0*%
%ADD15RoundRect,0.153846X1.187132X0.787631X-0.403117X1.366434X-1.187132X-0.787631X0.403117X-1.366434X0*%
%ADD16RoundRect,0.200000X1.409884X0.657440X-0.657440X1.409884X-1.409884X-0.657440X0.657440X-1.409884X0*%
%ADD17RoundRect,0.153846X-0.520676X-1.326101X1.113968X-0.888099X0.520676X1.326101X-1.113968X0.888099X0*%
%ADD18RoundRect,0.200000X-0.777817X-1.347219X1.347219X-0.777817X0.777817X1.347219X-1.347219X0.777817X0*%
%ADD19RoundRect,0.200000X1.100000X1.100000X-1.100000X1.100000X-1.100000X-1.100000X1.100000X-1.100000X0*%
%ADD20RoundRect,0.200000X-1.100000X-1.100000X1.100000X-1.100000X1.100000X1.100000X-1.100000X1.100000X0*%
%ADD21RoundRect,0.200000X1.347219X0.777817X-0.777817X1.347219X-1.347219X-0.777817X0.777817X-1.347219X0*%
%ADD22O,1.900000X1.900000*%
%ADD23RoundRect,0.250000X-0.700000X-0.700000X0.700000X-0.700000X0.700000X0.700000X-0.700000X0.700000X0*%
%ADD24RoundRect,0.153846X0.846154X1.146154X-0.846154X1.146154X-0.846154X-1.146154X0.846154X-1.146154X0*%
%ADD25RoundRect,0.200000X1.191685X0.999943X-0.999943X1.191685X-1.191685X-0.999943X0.999943X-1.191685X0*%
%ADD26RoundRect,0.200000X-0.999943X-1.191685X1.191685X-0.999943X0.999943X1.191685X-1.191685X0.999943X0*%
%ADD27RoundRect,0.200000X-1.274302X-0.892276X0.892276X-1.274302X1.274302X0.892276X-0.892276X1.274302X0*%
%ADD28RoundRect,0.200000X0.657440X1.409884X-1.409884X0.657440X-0.657440X-1.409884X1.409884X-0.657440X0*%
%ADD29RoundRect,0.200000X-0.892276X-1.274302X1.274302X-0.892276X0.892276X1.274302X-1.274302X0.892276X0*%
%ADD30RoundRect,0.200000X0.892276X1.274302X-1.274302X0.892276X-0.892276X-1.274302X1.274302X-0.892276X0*%
%ADD31RoundRect,0.200000X-1.191685X-0.999943X0.999943X-1.191685X1.191685X0.999943X-0.999943X1.191685X0*%
%ADD32RoundRect,0.153846X1.113968X0.888099X-0.520676X1.326101X-1.113968X-0.888099X0.520676X-1.326101X0*%
%ADD33RoundRect,0.200000X0.999943X1.191685X-1.191685X0.999943X-0.999943X-1.191685X1.191685X-0.999943X0*%
%ADD34RoundRect,0.200000X0.777817X1.347219X-1.347219X0.777817X-0.777817X-1.347219X1.347219X-0.777817X0*%
G04 APERTURE END LIST*
D10*
%TO.C,D42*%
X185450003Y-156003556D03*
D11*
X187550003Y-156000009D03*
%TD*%
D10*
%TO.C,D41*%
X185450000Y-134003556D03*
D11*
X187550000Y-134000009D03*
%TD*%
D10*
%TO.C,D40*%
X185449998Y-126003553D03*
D11*
X187549998Y-126000006D03*
%TD*%
D10*
%TO.C,D39*%
X185449999Y-152003554D03*
D11*
X187549999Y-152000007D03*
%TD*%
D10*
%TO.C,D38*%
X185450003Y-136003556D03*
D11*
X187550003Y-136000009D03*
%TD*%
D10*
%TO.C,D37*%
X185450000Y-128003550D03*
D11*
X187550000Y-128000003D03*
%TD*%
D10*
%TO.C,D36*%
X185450000Y-148003555D03*
D11*
X187550000Y-148000008D03*
%TD*%
D10*
%TO.C,D35*%
X185450000Y-138003562D03*
D11*
X187550000Y-138000015D03*
%TD*%
D10*
%TO.C,D34*%
X185449999Y-124003552D03*
D11*
X187549999Y-124000005D03*
%TD*%
D10*
%TO.C,D33*%
X185449998Y-158003553D03*
D11*
X187549998Y-158000006D03*
%TD*%
D10*
%TO.C,D32*%
X185450000Y-146003552D03*
D11*
X187550000Y-146000005D03*
%TD*%
D10*
%TO.C,D31*%
X185449999Y-140003552D03*
D11*
X187549999Y-140000005D03*
%TD*%
D10*
%TO.C,D30*%
X185449999Y-122003558D03*
D11*
X187549999Y-122000011D03*
%TD*%
D10*
%TO.C,D29*%
X185449999Y-162003557D03*
D11*
X187549999Y-162000010D03*
%TD*%
D10*
%TO.C,D28*%
X185449994Y-150003557D03*
D11*
X187549994Y-150000010D03*
%TD*%
D10*
%TO.C,D27*%
X185449997Y-142003550D03*
D11*
X187549997Y-142000003D03*
%TD*%
D10*
%TO.C,D26*%
X185450003Y-130003553D03*
D11*
X187550003Y-130000006D03*
%TD*%
D10*
%TO.C,D25*%
X185450002Y-160003554D03*
D11*
X187550002Y-160000007D03*
%TD*%
D10*
%TO.C,D24*%
X185450002Y-154003552D03*
D11*
X187550002Y-154000005D03*
%TD*%
D10*
%TO.C,D23*%
X185449999Y-144003552D03*
D11*
X187549999Y-144000005D03*
%TD*%
D10*
%TO.C,D22*%
X185450003Y-132003553D03*
D11*
X187550003Y-132000006D03*
%TD*%
D10*
%TO.C,D21*%
X249962159Y-158002730D03*
D12*
X247862159Y-158006277D03*
%TD*%
D10*
%TO.C,D20*%
X249962159Y-162002728D03*
D12*
X247862159Y-162006275D03*
%TD*%
D10*
%TO.C,D19*%
X249962159Y-160002730D03*
D12*
X247862159Y-160006277D03*
%TD*%
D10*
%TO.C,D18*%
X249962158Y-154002732D03*
D12*
X247862158Y-154006279D03*
%TD*%
D10*
%TO.C,D17*%
X249962158Y-155911594D03*
D12*
X247862158Y-155915141D03*
%TD*%
D10*
%TO.C,D16*%
X249962158Y-152002730D03*
D12*
X247862158Y-152006277D03*
%TD*%
D10*
%TO.C,D15*%
X249962158Y-150002731D03*
D12*
X247862158Y-150006278D03*
%TD*%
D10*
%TO.C,D14*%
X249962158Y-146002730D03*
D12*
X247862158Y-146006277D03*
%TD*%
D10*
%TO.C,D13*%
X249962159Y-148002730D03*
D12*
X247862159Y-148006277D03*
%TD*%
D10*
%TO.C,D12*%
X249962159Y-136002731D03*
D12*
X247862159Y-136006278D03*
%TD*%
D10*
%TO.C,D11*%
X249962158Y-134002731D03*
D12*
X247862158Y-134006278D03*
%TD*%
D10*
%TO.C,D10*%
X249962159Y-138002731D03*
D12*
X247862159Y-138006278D03*
%TD*%
D10*
%TO.C,D9*%
X249962160Y-140002732D03*
D12*
X247862160Y-140006279D03*
%TD*%
D10*
%TO.C,D8*%
X249962159Y-142002729D03*
D12*
X247862159Y-142006276D03*
%TD*%
D10*
%TO.C,D7*%
X249962160Y-144002731D03*
D12*
X247862160Y-144006278D03*
%TD*%
D10*
%TO.C,D6*%
X249962160Y-121990195D03*
D12*
X247862160Y-121993742D03*
%TD*%
D10*
%TO.C,D5*%
X249962159Y-123990196D03*
D12*
X247862159Y-123993743D03*
%TD*%
D10*
%TO.C,D4*%
X249962158Y-127990192D03*
D12*
X247862158Y-127993739D03*
%TD*%
D10*
%TO.C,D3*%
X249962159Y-125990198D03*
D12*
X247862159Y-125993745D03*
%TD*%
D10*
%TO.C,D2*%
X249962159Y-131990193D03*
D12*
X247862159Y-131993740D03*
%TD*%
D10*
%TO.C,D1*%
X249962159Y-129990199D03*
D12*
X247862159Y-129993746D03*
%TD*%
D13*
%TO.C,SW29*%
X194139742Y-179435878D03*
X183147246Y-175263666D03*
%TD*%
D14*
%TO.C,SW6*%
X347212337Y-151126392D03*
X357799379Y-156240789D03*
%TD*%
D13*
%TO.C,SW16*%
X323615167Y-159928733D03*
X312622663Y-155756519D03*
%TD*%
D15*
%TO.C,SW25*%
X212867569Y-185920220D03*
D16*
X203048476Y-180005174D03*
%TD*%
D17*
%TO.C,SW41*%
X76903454Y-171752931D03*
D18*
X88339516Y-170966253D03*
%TD*%
D19*
%TO.C,SW33*%
X174274999Y-176250003D03*
X162725006Y-174050003D03*
%TD*%
D20*
%TO.C,SW22*%
X166725000Y-128750000D03*
X178275000Y-130950000D03*
%TD*%
D19*
%TO.C,SW28*%
X165274998Y-155249994D03*
X153725005Y-153049994D03*
%TD*%
D21*
%TO.C,SW17*%
X338953032Y-176348133D03*
X328365990Y-171233736D03*
%TD*%
D20*
%TO.C,SW23*%
X166724993Y-145750005D03*
X178274993Y-147950005D03*
%TD*%
D22*
%TO.C,U1*%
X244269698Y-118759200D03*
X244269698Y-121299200D03*
D23*
X244269698Y-123839200D03*
D22*
X244269698Y-126379200D03*
X244269698Y-128919200D03*
X244269698Y-131459200D03*
X244269698Y-133999200D03*
X244269698Y-136539200D03*
X244269698Y-139079200D03*
X244269698Y-141619200D03*
X244269698Y-144159200D03*
X244269698Y-146699200D03*
X244269698Y-149239200D03*
X229029698Y-149239200D03*
X229029698Y-146699200D03*
X229029698Y-144159200D03*
X229029698Y-141619200D03*
X229029698Y-139079200D03*
X229029698Y-136539200D03*
X229029698Y-133999200D03*
X229029698Y-131459200D03*
D23*
X229029698Y-128919200D03*
X229029698Y-126379200D03*
D22*
X229029698Y-123839200D03*
X229029698Y-121299200D03*
D23*
X229029698Y-118759200D03*
%TD*%
D24*
%TO.C,SW21*%
X277387158Y-176250007D03*
D19*
X266137159Y-174050007D03*
%TD*%
D25*
%TO.C,SW15*%
X305689084Y-151802236D03*
X294374778Y-148603958D03*
%TD*%
D18*
%TO.C,SW38*%
X94000345Y-167171835D03*
X105726187Y-166307510D03*
%TD*%
D26*
%TO.C,SW30*%
X127413454Y-125403073D03*
X139111244Y-126588049D03*
%TD*%
D20*
%TO.C,SW27*%
X148725000Y-145750004D03*
X160275000Y-147950004D03*
%TD*%
D19*
%TO.C,SW24*%
X183275000Y-155250003D03*
X171725007Y-153050003D03*
%TD*%
D20*
%TO.C,SW7*%
X252137158Y-145750014D03*
X263687158Y-147950014D03*
%TD*%
D27*
%TO.C,SW10*%
X308966254Y-147699171D03*
X319958758Y-151871385D03*
%TD*%
%TO.C,SW4*%
X311918278Y-130957440D03*
X322910782Y-135129654D03*
%TD*%
D21*
%TO.C,SW11*%
X343352960Y-159927402D03*
X332765918Y-154813005D03*
%TD*%
D22*
%TO.C,U2*%
X206357545Y-118759186D03*
X206357545Y-121299186D03*
D23*
X206357545Y-123839186D03*
D22*
X206357545Y-126379186D03*
X206357545Y-128919186D03*
X206357545Y-131459186D03*
X206357545Y-133999186D03*
X206357545Y-136539186D03*
X206357545Y-139079186D03*
X206357545Y-141619186D03*
X206357545Y-144159186D03*
X206357545Y-146699186D03*
X206357545Y-149239186D03*
X191117545Y-149239186D03*
X191117545Y-146699186D03*
X191117545Y-144159186D03*
X191117545Y-141619186D03*
X191117545Y-139079186D03*
X191117545Y-136539186D03*
X191117545Y-133999186D03*
X191117545Y-131459186D03*
D23*
X191117545Y-128919186D03*
X191117545Y-126379186D03*
D22*
X191117545Y-123839186D03*
X191117545Y-121299186D03*
D23*
X191117545Y-118759186D03*
%TD*%
D19*
%TO.C,SW13*%
X268687146Y-155250003D03*
X257137146Y-153050003D03*
%TD*%
D28*
%TO.C,SW19*%
X237814594Y-180362405D03*
X226208701Y-182245414D03*
%TD*%
D17*
%TO.C,SW40*%
X72503531Y-155332188D03*
D18*
X83939596Y-154545510D03*
%TD*%
D29*
%TO.C,SW35*%
X110147332Y-150573049D03*
X121903885Y-150733988D03*
%TD*%
D20*
%TO.C,SW1*%
X252137155Y-128750010D03*
X263687155Y-130950010D03*
%TD*%
D30*
%TO.C,SW36*%
X128095558Y-157054842D03*
X116339009Y-156893901D03*
%TD*%
D14*
%TO.C,SW5*%
X329825667Y-146467650D03*
X340412709Y-151582047D03*
%TD*%
D20*
%TO.C,SW2*%
X270137151Y-128750007D03*
X281687151Y-130950007D03*
%TD*%
D31*
%TO.C,SW3*%
X291511685Y-123960650D03*
X302825991Y-127158928D03*
%TD*%
D32*
%TO.C,SW12*%
X360449842Y-164508492D03*
D21*
X350152582Y-159471742D03*
%TD*%
D33*
%TO.C,SW32*%
X146210096Y-150359801D03*
X134512311Y-149174821D03*
%TD*%
D34*
%TO.C,SW39*%
X112445197Y-172064674D03*
X100719352Y-172928997D03*
%TD*%
D18*
%TO.C,SW37*%
X89600419Y-150751095D03*
X101326261Y-149886770D03*
%TD*%
D30*
%TO.C,SW20*%
X257570980Y-176562008D03*
X245814425Y-176401068D03*
%TD*%
D32*
%TO.C,SW18*%
X356049916Y-180929234D03*
D21*
X345752652Y-175892483D03*
%TD*%
D31*
%TO.C,SW9*%
X290030044Y-140895957D03*
X301344350Y-144094235D03*
%TD*%
D20*
%TO.C,SW26*%
X148724999Y-128750001D03*
X160274999Y-130950001D03*
%TD*%
D26*
%TO.C,SW31*%
X128895096Y-142338377D03*
X140592886Y-143523353D03*
%TD*%
D19*
%TO.C,SW14*%
X286687153Y-155250001D03*
X275137153Y-153050001D03*
%TD*%
D20*
%TO.C,SW8*%
X270137154Y-145750006D03*
X281687154Y-147950006D03*
%TD*%
D29*
%TO.C,SW34*%
X107195312Y-133831316D03*
X118951865Y-133992255D03*
%TD*%
D34*
%TO.C,SW42*%
X95058524Y-176723420D03*
X83332679Y-177587743D03*
%TD*%
M02*
