%TF.GenerationSoftware,KiCad,Pcbnew,9.0.7*%
%TF.CreationDate,2026-02-05T22:02:26+07:00*%
%TF.ProjectId,Lapka42,4c61706b-6134-4322-9e6b-696361645f70,rev?*%
%TF.SameCoordinates,Original*%
%TF.FileFunction,Drillmap*%
%TF.FilePolarity,Positive*%
%FSLAX45Y45*%
G04 Gerber Fmt 4.5, Leading zero omitted, Abs format (unit mm)*
G04 Created by KiCad (PCBNEW 9.0.7) date 2026-02-05 22:02:26*
%MOMM*%
%LPD*%
G01*
G04 APERTURE LIST*
%ADD10C,0.200000*%
%ADD11C,0.100000*%
%ADD12C,0.170180*%
%ADD13C,0.300000*%
%ADD14C,0.505000*%
G04 APERTURE END LIST*
D10*
X8250862Y-19276830D02*
G75*
G02*
X8067151Y-19170764I-38822J144890D01*
G01*
X12522556Y-11388128D02*
G75*
G02*
X12635617Y-11319880I126134J-81182D01*
G01*
X24216215Y-11800001D02*
G75*
G02*
X24366215Y-11649995I150005J1D01*
G01*
X24541215Y-11650001D02*
X24366215Y-11650001D01*
X22089652Y-18146526D02*
X22089651Y-18146524D01*
X21451564Y-18146526D02*
X21451565Y-18146524D01*
X18501710Y-17300404D02*
X18861349Y-17363818D01*
X15650000Y-17300001D02*
G75*
G02*
X15800001Y-17150000I150000J1D01*
G01*
X24691215Y-16400001D02*
X25091215Y-16400002D01*
X25441215Y-16750001D02*
X25441215Y-17238048D01*
X14405440Y-11223398D02*
X14666399Y-11505550D01*
X29779636Y-16750001D02*
G75*
G02*
X30523105Y-17058544I4J-1049999D01*
G01*
X22641215Y-16160000D02*
X22641215Y-16600001D01*
X18850001Y-16600002D02*
X18850000Y-16400002D01*
X25241215Y-16750001D02*
G75*
G02*
X25091219Y-16600001I5J150001D01*
G01*
X20900000Y-13800000D02*
X20900000Y-15440000D01*
X6824819Y-14534320D02*
G75*
G02*
X6930887Y-14350610I144891J38820D01*
G01*
X20150001Y-14695002D02*
X19600001Y-14695001D01*
X24016214Y-15020000D02*
G75*
G02*
X23941215Y-15095004I-75005J0D01*
G01*
X20225000Y-15020001D02*
X20225001Y-14770001D01*
X18100001Y-17238048D02*
X18501710Y-17300404D01*
X18300001Y-11650001D02*
G75*
G02*
X18449999Y-11800001I-1J-149999D01*
G01*
X18450000Y-16600001D02*
G75*
G02*
X18300001Y-16750000I-150000J1D01*
G01*
X20750001Y-16750002D02*
X19000001Y-16750002D01*
X31998292Y-18394725D02*
X35290353Y-19276830D01*
X20900001Y-16600001D02*
X20900000Y-16160000D01*
X10342184Y-13134832D02*
G75*
G02*
X10010825Y-13525341I-447834J44162D01*
G01*
X18419688Y-19012167D02*
X18352987Y-19000406D01*
X12635617Y-11319880D02*
X12635616Y-11319880D01*
X25091215Y-11800001D02*
G75*
G02*
X25241215Y-11649995I150005J1D01*
G01*
X30905599Y-11319879D02*
G75*
G02*
X31018657Y-11388130I-13079J-149431D01*
G01*
X22966215Y-11650001D02*
G75*
G02*
X23116209Y-11800001I-6J-149999D01*
G01*
X33199031Y-13134832D02*
X33116967Y-12302575D01*
X25188230Y-19000405D02*
G75*
G02*
X26907354Y-18850001I1719130J-9749685D01*
G01*
X30905599Y-11319879D02*
X29258970Y-11175818D01*
X23391215Y-15095000D02*
X23941215Y-15095001D01*
X15800001Y-17150002D02*
X16000001Y-17150001D01*
X22641215Y-11800001D02*
G75*
G02*
X22791215Y-11650005I149995J1D01*
G01*
X16633862Y-18850002D02*
X15800001Y-18850002D01*
X14996762Y-11650001D02*
X18300001Y-11650001D01*
X18850001Y-11800001D02*
G75*
G02*
X19000001Y-11650001I149999J1D01*
G01*
X26907354Y-18850001D02*
X27741215Y-18850001D01*
X18100001Y-16750001D02*
X18100001Y-17238048D01*
X19325000Y-11800001D02*
X19325001Y-12895001D01*
X10010825Y-13525341D02*
X10010825Y-13525341D01*
X10547477Y-12169573D02*
X12014295Y-11910934D01*
X23191215Y-12970001D02*
G75*
G02*
X23116209Y-12895001I-5J75001D01*
G01*
X22641215Y-11800001D02*
X22641215Y-13080000D01*
X18450001Y-16400001D02*
X18450000Y-16600001D01*
X19600001Y-15095001D02*
G75*
G02*
X19524999Y-15020002I-1J75001D01*
G01*
X19000001Y-16750002D02*
G75*
G02*
X18849998Y-16600002I-1J150002D01*
G01*
X23012984Y-17810459D02*
G75*
G02*
X24679867Y-17363819I3385986J-9302911D01*
G01*
X20225000Y-15020001D02*
G75*
G02*
X20150001Y-15095000I-75000J1D01*
G01*
X20425000Y-12895001D02*
X20425000Y-11800001D01*
X20870126Y-19744000D02*
X20086557Y-19458804D01*
X29135776Y-11223397D02*
G75*
G02*
X29258970Y-11175816I110124J-101853D01*
G01*
X30905599Y-11319879D02*
X30905599Y-11319879D01*
X22791215Y-16750001D02*
G75*
G02*
X22641218Y-16600001I5J150002D01*
G01*
X25039505Y-17300404D02*
X24679867Y-17363819D01*
X30523103Y-17058546D02*
X31661358Y-18199892D01*
X27741215Y-17150001D02*
X27541215Y-17150001D01*
X36610330Y-14350608D02*
X33530391Y-13525341D01*
X24216215Y-11800001D02*
X24216216Y-12895001D01*
X24141215Y-12970001D02*
X23191215Y-12970001D01*
X22641215Y-13800000D02*
X22641215Y-15440000D01*
X31998292Y-18394725D02*
G75*
G02*
X31661357Y-18199893I194118J724455D01*
G01*
X13018113Y-17058545D02*
G75*
G02*
X13761579Y-16750005I743457J-741445D01*
G01*
X20425000Y-11800001D02*
G75*
G02*
X20575001Y-11650000I150000J1D01*
G01*
X12635616Y-11319880D02*
X14282246Y-11175819D01*
X22671090Y-19744000D02*
G75*
G02*
X22478832Y-19654344I-51300J140960D01*
G01*
X27891215Y-18700001D02*
G75*
G02*
X27741215Y-18849995I-149995J1D01*
G01*
X16633862Y-18850002D02*
G75*
G02*
X18352987Y-19000405I-2J-9900108D01*
G01*
X23941215Y-14695001D02*
X23391215Y-14695000D01*
X32993739Y-12169573D02*
G75*
G02*
X33116963Y-12302575I-26049J-147717D01*
G01*
X24216216Y-12895001D02*
G75*
G02*
X24141215Y-12969996I-74996J1D01*
G01*
X23116215Y-12895001D02*
X23116215Y-11800001D01*
X18850000Y-16400002D02*
X18450001Y-16400001D01*
X29135776Y-11223397D02*
X28874817Y-11505550D01*
X31226660Y-11711309D02*
X31018660Y-11388128D01*
X20900000Y-13800000D02*
X22641215Y-13800000D01*
X27541215Y-17150001D02*
X27541215Y-16750001D01*
X24016214Y-15020000D02*
X24016215Y-14770000D01*
X20900000Y-13080000D02*
X22641215Y-13080000D01*
X23012984Y-17810459D02*
X22089651Y-18146524D01*
X10424248Y-12302574D02*
G75*
G02*
X10547477Y-12169573I149282J-14726D01*
G01*
X21062389Y-19654346D02*
X21062390Y-19654347D01*
X23454660Y-19458804D02*
G75*
G02*
X25121527Y-19012166I3385990J-9302916D01*
G01*
X33530391Y-13525341D02*
X33530391Y-13525341D01*
X31526921Y-11910934D02*
G75*
G02*
X31226664Y-11711307I78149J443164D01*
G01*
X16000001Y-17150001D02*
X16000000Y-16750001D01*
X21451564Y-18146526D02*
G75*
G02*
X21541214Y-18338784I-51304J-140954D01*
G01*
X28874817Y-11505550D02*
G75*
G02*
X28544453Y-11649999I-330357J305540D01*
G01*
X25091215Y-16400002D02*
X25091215Y-16600001D01*
X13018113Y-17058545D02*
X11879857Y-18199891D01*
X10342184Y-13134832D02*
X10424248Y-12302574D01*
X18450000Y-12000001D02*
X18850001Y-12000001D01*
X35474065Y-19170764D02*
X36716396Y-14534320D01*
X20575001Y-11650002D02*
X20750001Y-11650002D01*
X22641215Y-15440000D02*
X20900000Y-15440000D01*
X20750001Y-11650002D02*
G75*
G02*
X20899998Y-11800001I-1J-149998D01*
G01*
X21062389Y-19654346D02*
G75*
G02*
X20870126Y-19744000I-140959J51306D01*
G01*
X24691215Y-12000001D02*
X24691215Y-11800001D01*
X22000000Y-18338785D02*
G75*
G02*
X22089650Y-18146522I140960J51305D01*
G01*
X25091215Y-11800001D02*
X25091215Y-12000001D01*
X21541216Y-18338785D02*
X21062390Y-19654347D01*
X19525001Y-14770002D02*
G75*
G02*
X19600001Y-14695001I74999J2D01*
G01*
X22000000Y-18338785D02*
X22478825Y-19654346D01*
X20528232Y-17810459D02*
X21451565Y-18146524D01*
X36610330Y-14350608D02*
G75*
G02*
X36716401Y-14534321I-38820J-144892D01*
G01*
X12314555Y-11711310D02*
X12522556Y-11388128D01*
X27891215Y-18700001D02*
X27891215Y-17300001D01*
X23316215Y-14770001D02*
G75*
G02*
X23391215Y-14694995I75005J1D01*
G01*
X19400000Y-12970002D02*
G75*
G02*
X19324998Y-12895001I0J75002D01*
G01*
X22671090Y-19744000D02*
X23454660Y-19458804D01*
X27741215Y-17150001D02*
G75*
G02*
X27891219Y-17300001I5J-149999D01*
G01*
X35474065Y-19170764D02*
G75*
G02*
X35290354Y-19276825I-144885J38824D01*
G01*
X22478827Y-19654346D02*
X22478825Y-19654346D01*
X19525001Y-14770002D02*
X19525001Y-15020002D01*
X27541215Y-16750001D02*
X29779636Y-16750001D01*
X23941215Y-14695001D02*
G75*
G02*
X24016209Y-14770000I-5J-74999D01*
G01*
X24541215Y-11650001D02*
G75*
G02*
X24691218Y-11800001I5J-149999D01*
G01*
X20425000Y-12895001D02*
G75*
G02*
X20350001Y-12970000I-75000J1D01*
G01*
X19175001Y-11650001D02*
G75*
G02*
X19324999Y-11800001I-1J-149999D01*
G01*
X15800001Y-18850002D02*
G75*
G02*
X15649998Y-18700001I-1J150002D01*
G01*
X15650001Y-18700001D02*
X15650000Y-17300001D01*
X8067151Y-19170765D02*
X6824819Y-14534320D01*
X22791215Y-16750001D02*
X24541215Y-16750001D01*
X18419688Y-19012167D02*
G75*
G02*
X20086557Y-19458804I-1719158J-9749713D01*
G01*
X24691215Y-16600001D02*
X24691215Y-16400001D01*
X20900000Y-11800001D02*
X20900000Y-13080000D01*
X20900001Y-16600001D02*
G75*
G02*
X20750001Y-16750001I-150001J1D01*
G01*
X28544453Y-11650001D02*
X25241215Y-11650001D01*
X23391215Y-15095000D02*
G75*
G02*
X23316210Y-15020001I-5J75000D01*
G01*
X19600001Y-15095001D02*
X20150001Y-15095001D01*
X11542923Y-18394725D02*
X8250862Y-19276830D01*
X19400000Y-12970002D02*
X20350001Y-12970002D01*
X12314555Y-11711310D02*
G75*
G02*
X12014295Y-11910935I-378405J243540D01*
G01*
X25121527Y-19012167D02*
X25188230Y-19000405D01*
X18861349Y-17363818D02*
G75*
G02*
X20528231Y-17810459I-1719119J-9749582D01*
G01*
X32993739Y-12169573D02*
X31526921Y-11910934D01*
X19000001Y-11650001D02*
X19175001Y-11650001D01*
X14996762Y-11650001D02*
G75*
G02*
X14666398Y-11505552I-2J450001D01*
G01*
X22641215Y-16160000D02*
X20900000Y-16160000D01*
X20150001Y-14695002D02*
G75*
G02*
X20224998Y-14770001I-1J-74998D01*
G01*
X16000000Y-16750001D02*
X13761579Y-16750002D01*
X33530391Y-13525341D02*
G75*
G02*
X33199028Y-13134832I116469J434671D01*
G01*
X22966215Y-11650001D02*
X22791215Y-11650001D01*
X23316215Y-14770001D02*
X23316215Y-15020001D01*
X18300001Y-16750001D02*
X18100001Y-16750001D01*
X11879857Y-18199891D02*
G75*
G02*
X11542922Y-18394724I-531047J529611D01*
G01*
X18850001Y-12000001D02*
X18850001Y-11800001D01*
X25091215Y-12000001D02*
X24691215Y-12000001D01*
X25441215Y-17238048D02*
X25039505Y-17300404D01*
X6930886Y-14350608D02*
X10010825Y-13525341D01*
X18450000Y-11800001D02*
X18450000Y-12000001D01*
X24691215Y-16600001D02*
G75*
G02*
X24541215Y-16749995I-149995J1D01*
G01*
X14282246Y-11175819D02*
G75*
G02*
X14405441Y-11223397I13074J-149431D01*
G01*
X25241215Y-16750001D02*
X25441215Y-16750001D01*
D11*
X20875000Y-13055000D02*
X20925000Y-13105000D01*
X20925000Y-13055000D02*
X20875000Y-13105000D01*
X20875000Y-13135000D02*
X20925000Y-13185000D01*
X20925000Y-13135000D02*
X20875000Y-13185000D01*
X20875000Y-13215000D02*
X20925000Y-13265000D01*
X20925000Y-13215000D02*
X20875000Y-13265000D01*
X20875000Y-13295000D02*
X20925000Y-13345000D01*
X20925000Y-13295000D02*
X20875000Y-13345000D01*
X20875000Y-13375000D02*
X20925000Y-13425000D01*
X20925000Y-13375000D02*
X20875000Y-13425000D01*
X20875000Y-13455000D02*
X20925000Y-13505000D01*
X20925000Y-13455000D02*
X20875000Y-13505000D01*
X20875000Y-13535000D02*
X20925000Y-13585000D01*
X20925000Y-13535000D02*
X20875000Y-13585000D01*
X20875000Y-13615000D02*
X20925000Y-13665000D01*
X20925000Y-13615000D02*
X20875000Y-13665000D01*
X20875000Y-13695000D02*
X20925000Y-13745000D01*
X20925000Y-13695000D02*
X20875000Y-13745000D01*
X20875000Y-13775000D02*
X20925000Y-13825000D01*
X20925000Y-13775000D02*
X20875000Y-13825000D01*
X20875000Y-15415000D02*
X20925000Y-15465000D01*
X20925000Y-15415000D02*
X20875000Y-15465000D01*
X20875000Y-15495000D02*
X20925000Y-15545000D01*
X20925000Y-15495000D02*
X20875000Y-15545000D01*
X20875000Y-15575000D02*
X20925000Y-15625000D01*
X20925000Y-15575000D02*
X20875000Y-15625000D01*
X20875000Y-15655000D02*
X20925000Y-15705000D01*
X20925000Y-15655000D02*
X20875000Y-15705000D01*
X20875000Y-15735000D02*
X20925000Y-15785000D01*
X20925000Y-15735000D02*
X20875000Y-15785000D01*
X20875000Y-15815000D02*
X20925000Y-15865000D01*
X20925000Y-15815000D02*
X20875000Y-15865000D01*
X20875000Y-15895000D02*
X20925000Y-15945000D01*
X20925000Y-15895000D02*
X20875000Y-15945000D01*
X20875000Y-15975000D02*
X20925000Y-16025000D01*
X20925000Y-15975000D02*
X20875000Y-16025000D01*
X20875000Y-16055000D02*
X20925000Y-16105000D01*
X20925000Y-16055000D02*
X20875000Y-16105000D01*
X20875000Y-16135000D02*
X20925000Y-16185000D01*
X20925000Y-16135000D02*
X20875000Y-16185000D01*
X22613785Y-15415000D02*
X22663785Y-15465000D01*
X22663785Y-15415000D02*
X22613785Y-15465000D01*
X22613785Y-15495000D02*
X22663785Y-15545000D01*
X22663785Y-15495000D02*
X22613785Y-15545000D01*
X22613785Y-15575000D02*
X22663785Y-15625000D01*
X22663785Y-15575000D02*
X22613785Y-15625000D01*
X22613785Y-15655000D02*
X22663785Y-15705000D01*
X22663785Y-15655000D02*
X22613785Y-15705000D01*
X22613785Y-15735000D02*
X22663785Y-15785000D01*
X22663785Y-15735000D02*
X22613785Y-15785000D01*
X22615000Y-13055000D02*
X22665000Y-13105000D01*
X22665000Y-13055000D02*
X22615000Y-13105000D01*
X22615000Y-13135000D02*
X22665000Y-13185000D01*
X22665000Y-13135000D02*
X22615000Y-13185000D01*
X22615000Y-13215000D02*
X22665000Y-13265000D01*
X22665000Y-13215000D02*
X22615000Y-13265000D01*
X22615000Y-13295000D02*
X22665000Y-13345000D01*
X22665000Y-13295000D02*
X22615000Y-13345000D01*
X22615000Y-13375000D02*
X22665000Y-13425000D01*
X22665000Y-13375000D02*
X22615000Y-13425000D01*
X22615000Y-15815000D02*
X22665000Y-15865000D01*
X22665000Y-15815000D02*
X22615000Y-15865000D01*
X22615000Y-15895000D02*
X22665000Y-15945000D01*
X22665000Y-15895000D02*
X22615000Y-15945000D01*
X22615000Y-15975000D02*
X22665000Y-16025000D01*
X22665000Y-15975000D02*
X22615000Y-16025000D01*
X22615000Y-16055000D02*
X22665000Y-16105000D01*
X22665000Y-16055000D02*
X22615000Y-16105000D01*
X22615000Y-16135000D02*
X22665000Y-16185000D01*
X22665000Y-16135000D02*
X22615000Y-16185000D01*
X22616215Y-13455000D02*
X22666215Y-13505000D01*
X22666215Y-13455000D02*
X22616215Y-13505000D01*
X22616215Y-13535000D02*
X22666215Y-13585000D01*
X22666215Y-13535000D02*
X22616215Y-13585000D01*
X22616215Y-13615000D02*
X22666215Y-13665000D01*
X22666215Y-13615000D02*
X22616215Y-13665000D01*
X22616215Y-13695000D02*
X22666215Y-13745000D01*
X22666215Y-13695000D02*
X22616215Y-13745000D01*
X22616215Y-13775000D02*
X22666215Y-13825000D01*
X22666215Y-13775000D02*
X22616215Y-13825000D01*
D12*
X7477453Y-15106939D02*
G75*
G02*
X7307273Y-15106939I-85090J0D01*
G01*
X7307273Y-15106939D02*
G75*
G02*
X7477453Y-15106939I85090J0D01*
G01*
X7917445Y-16749013D02*
G75*
G02*
X7747265Y-16749013I-85090J0D01*
G01*
X7747265Y-16749013D02*
G75*
G02*
X7917445Y-16749013I85090J0D01*
G01*
X8357437Y-18391087D02*
G75*
G02*
X8187257Y-18391087I-85090J0D01*
G01*
X8187257Y-18391087D02*
G75*
G02*
X8357437Y-18391087I85090J0D01*
G01*
X8539971Y-14822238D02*
G75*
G02*
X8369791Y-14822238I-85090J0D01*
G01*
X8369791Y-14822238D02*
G75*
G02*
X8539971Y-14822238I85090J0D01*
G01*
X8979963Y-16464312D02*
G75*
G02*
X8809783Y-16464312I-85090J0D01*
G01*
X8809783Y-16464312D02*
G75*
G02*
X8979963Y-16464312I85090J0D01*
G01*
X9216119Y-14641065D02*
G75*
G02*
X9045939Y-14641065I-85090J0D01*
G01*
X9045939Y-14641065D02*
G75*
G02*
X9216119Y-14641065I85090J0D01*
G01*
X9419955Y-18106386D02*
G75*
G02*
X9249775Y-18106386I-85090J0D01*
G01*
X9249775Y-18106386D02*
G75*
G02*
X9419955Y-18106386I85090J0D01*
G01*
X9656112Y-16283139D02*
G75*
G02*
X9485932Y-16283139I-85090J0D01*
G01*
X9485932Y-16283139D02*
G75*
G02*
X9656112Y-16283139I85090J0D01*
G01*
X10096104Y-17925213D02*
G75*
G02*
X9925924Y-17925213I-85090J0D01*
G01*
X9925924Y-17925213D02*
G75*
G02*
X10096104Y-17925213I85090J0D01*
G01*
X10278638Y-14356364D02*
G75*
G02*
X10108458Y-14356364I-85090J0D01*
G01*
X10108458Y-14356364D02*
G75*
G02*
X10278638Y-14356364I85090J0D01*
G01*
X10718630Y-15998438D02*
G75*
G02*
X10548450Y-15998438I-85090J0D01*
G01*
X10548450Y-15998438D02*
G75*
G02*
X10718630Y-15998438I85090J0D01*
G01*
X11012787Y-12965641D02*
G75*
G02*
X10842607Y-12965641I-85090J0D01*
G01*
X10842607Y-12965641D02*
G75*
G02*
X11012787Y-12965641I85090J0D01*
G01*
X11158622Y-17640512D02*
G75*
G02*
X10988442Y-17640512I-85090J0D01*
G01*
X10988442Y-17640512D02*
G75*
G02*
X11158622Y-17640512I85090J0D01*
G01*
X11307989Y-14639815D02*
G75*
G02*
X11137809Y-14639815I-85090J0D01*
G01*
X11137809Y-14639815D02*
G75*
G02*
X11307989Y-14639815I85090J0D01*
G01*
X11603191Y-16313988D02*
G75*
G02*
X11433011Y-16313988I-85090J0D01*
G01*
X11433011Y-16313988D02*
G75*
G02*
X11603191Y-16313988I85090J0D01*
G01*
X12096076Y-12774628D02*
G75*
G02*
X11925896Y-12774628I-85090J0D01*
G01*
X11925896Y-12774628D02*
G75*
G02*
X12096076Y-12774628I85090J0D01*
G01*
X12391278Y-14448802D02*
G75*
G02*
X12221098Y-14448802I-85090J0D01*
G01*
X12221098Y-14448802D02*
G75*
G02*
X12391278Y-14448802I85090J0D01*
G01*
X12686480Y-16122975D02*
G75*
G02*
X12516300Y-16122975I-85090J0D01*
G01*
X12516300Y-16122975D02*
G75*
G02*
X12686480Y-16122975I85090J0D01*
G01*
X13070196Y-12142549D02*
G75*
G02*
X12900016Y-12142549I-85090J0D01*
G01*
X12900016Y-12142549D02*
G75*
G02*
X13070196Y-12142549I85090J0D01*
G01*
X13218360Y-13836079D02*
G75*
G02*
X13048180Y-13836079I-85090J0D01*
G01*
X13048180Y-13836079D02*
G75*
G02*
X13218360Y-13836079I85090J0D01*
G01*
X13366525Y-15529610D02*
G75*
G02*
X13196345Y-15529610I-85090J0D01*
G01*
X13196345Y-15529610D02*
G75*
G02*
X13366525Y-15529610I85090J0D01*
G01*
X14166010Y-12046677D02*
G75*
G02*
X13995830Y-12046677I-85090J0D01*
G01*
X13995830Y-12046677D02*
G75*
G02*
X14166010Y-12046677I85090J0D01*
G01*
X14314174Y-13740208D02*
G75*
G02*
X14143994Y-13740208I-85090J0D01*
G01*
X14143994Y-13740208D02*
G75*
G02*
X14314174Y-13740208I85090J0D01*
G01*
X14462339Y-15433739D02*
G75*
G02*
X14292159Y-15433739I-85090J0D01*
G01*
X14292159Y-15433739D02*
G75*
G02*
X14462339Y-15433739I85090J0D01*
G01*
X15235090Y-12500000D02*
G75*
G02*
X15064910Y-12500000I-85090J0D01*
G01*
X15064910Y-12500000D02*
G75*
G02*
X15235090Y-12500000I85090J0D01*
G01*
X15235090Y-15900000D02*
G75*
G02*
X15064910Y-15900000I-85090J0D01*
G01*
X15064910Y-15900000D02*
G75*
G02*
X15235090Y-15900000I85090J0D01*
G01*
X15235090Y-14200000D02*
G75*
G02*
X15064910Y-14200000I-85090J0D01*
G01*
X15064910Y-14200000D02*
G75*
G02*
X15235090Y-14200000I85090J0D01*
G01*
X16135090Y-18000001D02*
G75*
G02*
X15964910Y-18000001I-85090J0D01*
G01*
X15964910Y-18000001D02*
G75*
G02*
X16135090Y-18000001I85090J0D01*
G01*
X16335090Y-12500000D02*
G75*
G02*
X16164910Y-12500000I-85090J0D01*
G01*
X16164910Y-12500000D02*
G75*
G02*
X16335090Y-12500000I85090J0D01*
G01*
X16335090Y-15900000D02*
G75*
G02*
X16164910Y-15900000I-85090J0D01*
G01*
X16164910Y-15900000D02*
G75*
G02*
X16335090Y-15900000I85090J0D01*
G01*
X16335090Y-14200000D02*
G75*
G02*
X16164910Y-14200000I-85090J0D01*
G01*
X16164910Y-14200000D02*
G75*
G02*
X16335090Y-14200000I85090J0D01*
G01*
X17035089Y-14200000D02*
G75*
G02*
X16864909Y-14200000I-85090J0D01*
G01*
X16864909Y-14200000D02*
G75*
G02*
X17035089Y-14200000I85090J0D01*
G01*
X17035090Y-12500000D02*
G75*
G02*
X16864910Y-12500000I-85090J0D01*
G01*
X16864910Y-12500000D02*
G75*
G02*
X17035090Y-12500000I85090J0D01*
G01*
X17035090Y-15900000D02*
G75*
G02*
X16864910Y-15900000I-85090J0D01*
G01*
X16864910Y-15900000D02*
G75*
G02*
X17035090Y-15900000I85090J0D01*
G01*
X17235090Y-18000001D02*
G75*
G02*
X17064910Y-18000001I-85090J0D01*
G01*
X17064910Y-18000001D02*
G75*
G02*
X17235090Y-18000001I85090J0D01*
G01*
X18077374Y-18073691D02*
G75*
G02*
X17907194Y-18073691I-85090J0D01*
G01*
X17907194Y-18073691D02*
G75*
G02*
X18077374Y-18073691I85090J0D01*
G01*
X18135089Y-14200000D02*
G75*
G02*
X17964909Y-14200000I-85090J0D01*
G01*
X17964909Y-14200000D02*
G75*
G02*
X18135089Y-14200000I85090J0D01*
G01*
X18135090Y-12500000D02*
G75*
G02*
X17964910Y-12500000I-85090J0D01*
G01*
X17964910Y-12500000D02*
G75*
G02*
X18135090Y-12500000I85090J0D01*
G01*
X18135090Y-15900000D02*
G75*
G02*
X17964910Y-15900000I-85090J0D01*
G01*
X17964910Y-15900000D02*
G75*
G02*
X18135090Y-15900000I85090J0D01*
G01*
X19160662Y-18264704D02*
G75*
G02*
X18990482Y-18264704I-85090J0D01*
G01*
X18990482Y-18264704D02*
G75*
G02*
X19160662Y-18264704I85090J0D01*
G01*
X19977354Y-18483535D02*
G75*
G02*
X19807174Y-18483535I-85090J0D01*
G01*
X19807174Y-18483535D02*
G75*
G02*
X19977354Y-18483535I85090J0D01*
G01*
X21011016Y-18859757D02*
G75*
G02*
X20840836Y-18859757I-85090J0D01*
G01*
X20840836Y-18859757D02*
G75*
G02*
X21011016Y-18859757I85090J0D01*
G01*
X22700380Y-18859758D02*
G75*
G02*
X22530200Y-18859758I-85090J0D01*
G01*
X22530200Y-18859758D02*
G75*
G02*
X22700380Y-18859758I85090J0D01*
G01*
X23734042Y-18483536D02*
G75*
G02*
X23563862Y-18483536I-85090J0D01*
G01*
X23563862Y-18483536D02*
G75*
G02*
X23734042Y-18483536I85090J0D01*
G01*
X24550733Y-18264704D02*
G75*
G02*
X24380553Y-18264704I-85090J0D01*
G01*
X24380553Y-18264704D02*
G75*
G02*
X24550733Y-18264704I85090J0D01*
G01*
X25576305Y-15900000D02*
G75*
G02*
X25406125Y-15900000I-85090J0D01*
G01*
X25406125Y-15900000D02*
G75*
G02*
X25576305Y-15900000I85090J0D01*
G01*
X25576305Y-12500001D02*
G75*
G02*
X25406125Y-12500001I-85090J0D01*
G01*
X25406125Y-12500001D02*
G75*
G02*
X25576305Y-12500001I85090J0D01*
G01*
X25576306Y-14200001D02*
G75*
G02*
X25406126Y-14200001I-85090J0D01*
G01*
X25406126Y-14200001D02*
G75*
G02*
X25576306Y-14200001I85090J0D01*
G01*
X25634022Y-18073691D02*
G75*
G02*
X25463842Y-18073691I-85090J0D01*
G01*
X25463842Y-18073691D02*
G75*
G02*
X25634022Y-18073691I85090J0D01*
G01*
X26476306Y-18000001D02*
G75*
G02*
X26306126Y-18000001I-85090J0D01*
G01*
X26306126Y-18000001D02*
G75*
G02*
X26476306Y-18000001I85090J0D01*
G01*
X26676305Y-15900000D02*
G75*
G02*
X26506125Y-15900000I-85090J0D01*
G01*
X26506125Y-15900000D02*
G75*
G02*
X26676305Y-15900000I85090J0D01*
G01*
X26676305Y-12500001D02*
G75*
G02*
X26506125Y-12500001I-85090J0D01*
G01*
X26506125Y-12500001D02*
G75*
G02*
X26676305Y-12500001I85090J0D01*
G01*
X26676306Y-14200001D02*
G75*
G02*
X26506126Y-14200001I-85090J0D01*
G01*
X26506126Y-14200001D02*
G75*
G02*
X26676306Y-14200001I85090J0D01*
G01*
X27376305Y-12500001D02*
G75*
G02*
X27206125Y-12500001I-85090J0D01*
G01*
X27206125Y-12500001D02*
G75*
G02*
X27376305Y-12500001I85090J0D01*
G01*
X27376305Y-15900000D02*
G75*
G02*
X27206125Y-15900000I-85090J0D01*
G01*
X27206125Y-15900000D02*
G75*
G02*
X27376305Y-15900000I85090J0D01*
G01*
X27376305Y-14200001D02*
G75*
G02*
X27206125Y-14200001I-85090J0D01*
G01*
X27206125Y-14200001D02*
G75*
G02*
X27376305Y-14200001I85090J0D01*
G01*
X27576306Y-18000001D02*
G75*
G02*
X27406126Y-18000001I-85090J0D01*
G01*
X27406126Y-18000001D02*
G75*
G02*
X27576306Y-18000001I85090J0D01*
G01*
X28476305Y-12500001D02*
G75*
G02*
X28306125Y-12500001I-85090J0D01*
G01*
X28306125Y-12500001D02*
G75*
G02*
X28476305Y-12500001I85090J0D01*
G01*
X28476305Y-15900000D02*
G75*
G02*
X28306125Y-15900000I-85090J0D01*
G01*
X28306125Y-15900000D02*
G75*
G02*
X28476305Y-15900000I85090J0D01*
G01*
X28476305Y-14200001D02*
G75*
G02*
X28306125Y-14200001I-85090J0D01*
G01*
X28306125Y-14200001D02*
G75*
G02*
X28476305Y-14200001I85090J0D01*
G01*
X29249057Y-15433739D02*
G75*
G02*
X29078877Y-15433739I-85090J0D01*
G01*
X29078877Y-15433739D02*
G75*
G02*
X29249057Y-15433739I85090J0D01*
G01*
X29397222Y-13740208D02*
G75*
G02*
X29227042Y-13740208I-85090J0D01*
G01*
X29227042Y-13740208D02*
G75*
G02*
X29397222Y-13740208I85090J0D01*
G01*
X29545386Y-12046678D02*
G75*
G02*
X29375206Y-12046678I-85090J0D01*
G01*
X29375206Y-12046678D02*
G75*
G02*
X29545386Y-12046678I85090J0D01*
G01*
X30344871Y-15529611D02*
G75*
G02*
X30174691Y-15529611I-85090J0D01*
G01*
X30174691Y-15529611D02*
G75*
G02*
X30344871Y-15529611I85090J0D01*
G01*
X30493036Y-13836080D02*
G75*
G02*
X30322856Y-13836080I-85090J0D01*
G01*
X30322856Y-13836080D02*
G75*
G02*
X30493036Y-13836080I85090J0D01*
G01*
X30641200Y-12142549D02*
G75*
G02*
X30471020Y-12142549I-85090J0D01*
G01*
X30471020Y-12142549D02*
G75*
G02*
X30641200Y-12142549I85090J0D01*
G01*
X31024916Y-16122976D02*
G75*
G02*
X30854736Y-16122976I-85090J0D01*
G01*
X30854736Y-16122976D02*
G75*
G02*
X31024916Y-16122976I85090J0D01*
G01*
X31320118Y-14448802D02*
G75*
G02*
X31149938Y-14448802I-85090J0D01*
G01*
X31149938Y-14448802D02*
G75*
G02*
X31320118Y-14448802I85090J0D01*
G01*
X31615320Y-12774628D02*
G75*
G02*
X31445140Y-12774628I-85090J0D01*
G01*
X31445140Y-12774628D02*
G75*
G02*
X31615320Y-12774628I85090J0D01*
G01*
X32108204Y-16313989D02*
G75*
G02*
X31938024Y-16313989I-85090J0D01*
G01*
X31938024Y-16313989D02*
G75*
G02*
X32108204Y-16313989I85090J0D01*
G01*
X32403406Y-14639815D02*
G75*
G02*
X32233226Y-14639815I-85090J0D01*
G01*
X32233226Y-14639815D02*
G75*
G02*
X32403406Y-14639815I85090J0D01*
G01*
X32552773Y-17640512D02*
G75*
G02*
X32382593Y-17640512I-85090J0D01*
G01*
X32382593Y-17640512D02*
G75*
G02*
X32552773Y-17640512I85090J0D01*
G01*
X32698609Y-12965641D02*
G75*
G02*
X32528429Y-12965641I-85090J0D01*
G01*
X32528429Y-12965641D02*
G75*
G02*
X32698609Y-12965641I85090J0D01*
G01*
X32992766Y-15998439D02*
G75*
G02*
X32822586Y-15998439I-85090J0D01*
G01*
X32822586Y-15998439D02*
G75*
G02*
X32992766Y-15998439I85090J0D01*
G01*
X33432758Y-14356365D02*
G75*
G02*
X33262578Y-14356365I-85090J0D01*
G01*
X33262578Y-14356365D02*
G75*
G02*
X33432758Y-14356365I85090J0D01*
G01*
X33615292Y-17925213D02*
G75*
G02*
X33445112Y-17925213I-85090J0D01*
G01*
X33445112Y-17925213D02*
G75*
G02*
X33615292Y-17925213I85090J0D01*
G01*
X34055284Y-16283140D02*
G75*
G02*
X33885104Y-16283140I-85090J0D01*
G01*
X33885104Y-16283140D02*
G75*
G02*
X34055284Y-16283140I85090J0D01*
G01*
X34291439Y-18106387D02*
G75*
G02*
X34121259Y-18106387I-85090J0D01*
G01*
X34121259Y-18106387D02*
G75*
G02*
X34291439Y-18106387I85090J0D01*
G01*
X34495277Y-14641066D02*
G75*
G02*
X34325097Y-14641066I-85090J0D01*
G01*
X34325097Y-14641066D02*
G75*
G02*
X34495277Y-14641066I85090J0D01*
G01*
X34731432Y-16464313D02*
G75*
G02*
X34561252Y-16464313I-85090J0D01*
G01*
X34561252Y-16464313D02*
G75*
G02*
X34731432Y-16464313I85090J0D01*
G01*
X35171425Y-14822239D02*
G75*
G02*
X35001245Y-14822239I-85090J0D01*
G01*
X35001245Y-14822239D02*
G75*
G02*
X35171425Y-14822239I85090J0D01*
G01*
X35353958Y-18391088D02*
G75*
G02*
X35183778Y-18391088I-85090J0D01*
G01*
X35183778Y-18391088D02*
G75*
G02*
X35353958Y-18391088I85090J0D01*
G01*
X35793951Y-16749014D02*
G75*
G02*
X35623771Y-16749014I-85090J0D01*
G01*
X35623771Y-16749014D02*
G75*
G02*
X35793951Y-16749014I85090J0D01*
G01*
X36233944Y-15106940D02*
G75*
G02*
X36063764Y-15106940I-85090J0D01*
G01*
X36063764Y-15106940D02*
G75*
G02*
X36233944Y-15106940I85090J0D01*
G01*
D13*
X7537716Y-15306220D02*
X7537716Y-15606220D01*
X7387716Y-15456220D02*
X7687716Y-15456220D01*
X7977708Y-16948295D02*
X7977708Y-17248295D01*
X7827708Y-17098295D02*
X8127708Y-17098295D01*
X8077619Y-15389314D02*
X8077619Y-15689314D01*
X7927619Y-15539314D02*
X8227619Y-15539314D01*
X8517611Y-17031389D02*
X8517611Y-17331389D01*
X8367611Y-17181389D02*
X8667611Y-17181389D01*
X8649609Y-17524011D02*
X8649609Y-17824011D01*
X8499609Y-17674011D02*
X8799609Y-17674011D01*
X9189512Y-17607105D02*
X9189512Y-17907105D01*
X9039512Y-17757105D02*
X9339512Y-17757105D01*
X9276383Y-14840346D02*
X9276383Y-15140346D01*
X9126383Y-14990346D02*
X9426383Y-14990346D01*
X9716375Y-16482420D02*
X9716375Y-16782420D01*
X9566375Y-16632420D02*
X9866375Y-16632420D01*
X9816286Y-14923440D02*
X9816286Y-15223440D01*
X9666286Y-15073440D02*
X9966286Y-15073440D01*
X10256278Y-16565514D02*
X10256278Y-16865515D01*
X10106278Y-16715514D02*
X10406278Y-16715514D01*
X10388276Y-17058136D02*
X10388276Y-17358136D01*
X10238276Y-17208136D02*
X10538276Y-17208136D01*
X10928179Y-17141231D02*
X10928179Y-17441231D01*
X10778179Y-17291231D02*
X11078179Y-17291231D01*
X11042055Y-13176262D02*
X11042055Y-13476262D01*
X10892055Y-13326262D02*
X11192055Y-13326262D01*
X11337257Y-14850435D02*
X11337257Y-15150435D01*
X11187257Y-15000435D02*
X11487257Y-15000435D01*
X11572662Y-13306096D02*
X11572662Y-13606096D01*
X11422662Y-13456096D02*
X11722662Y-13456096D01*
X11867864Y-14980269D02*
X11867864Y-15280269D01*
X11717864Y-15130269D02*
X12017864Y-15130269D01*
X11956425Y-15482521D02*
X11956425Y-15782521D01*
X11806425Y-15632521D02*
X12106425Y-15632521D01*
X12487032Y-15612354D02*
X12487032Y-15912354D01*
X12337032Y-15762354D02*
X12637032Y-15762354D01*
X13067599Y-12361764D02*
X13067599Y-12661764D01*
X12917599Y-12511764D02*
X13217599Y-12511764D01*
X13215763Y-14055294D02*
X13215763Y-14355294D01*
X13065763Y-14205294D02*
X13365763Y-14205294D01*
X13584871Y-12537349D02*
X13584871Y-12837349D01*
X13434871Y-12687349D02*
X13734871Y-12687349D01*
X13733035Y-14230879D02*
X13733035Y-14530879D01*
X13583035Y-14380879D02*
X13883035Y-14380879D01*
X13777484Y-14738939D02*
X13777484Y-15038939D01*
X13627484Y-14888939D02*
X13927484Y-14888939D01*
X14294756Y-14914524D02*
X14294756Y-15214524D01*
X14144756Y-15064524D02*
X14444756Y-15064524D01*
X15200000Y-12725000D02*
X15200000Y-13025000D01*
X15050000Y-12875000D02*
X15350000Y-12875000D01*
X15200000Y-14425000D02*
X15200000Y-14725000D01*
X15050000Y-14575000D02*
X15350000Y-14575000D01*
X15699999Y-15155000D02*
X15699999Y-15455000D01*
X15549999Y-15305000D02*
X15849999Y-15305000D01*
X15700000Y-12945000D02*
X15700000Y-13245000D01*
X15550000Y-13095000D02*
X15850000Y-13095000D01*
X15700000Y-14645001D02*
X15700000Y-14945001D01*
X15550000Y-14795001D02*
X15850000Y-14795001D01*
X16200000Y-15375000D02*
X16200000Y-15675000D01*
X16050000Y-15525000D02*
X16350000Y-15525000D01*
X16600000Y-17255001D02*
X16600000Y-17555001D01*
X16450000Y-17405001D02*
X16750000Y-17405001D01*
X16999999Y-14425000D02*
X16999999Y-14725000D01*
X16849999Y-14575000D02*
X17149999Y-14575000D01*
X17000000Y-12725000D02*
X17000000Y-13025000D01*
X16850000Y-12875000D02*
X17150000Y-12875000D01*
X17100001Y-17475001D02*
X17100001Y-17775001D01*
X16950001Y-17625001D02*
X17250001Y-17625001D01*
X17499999Y-14645001D02*
X17499999Y-14945001D01*
X17349999Y-14795001D02*
X17649999Y-14795001D01*
X17500000Y-15155001D02*
X17500000Y-15455001D01*
X17350000Y-15305001D02*
X17650000Y-15305001D01*
X17500000Y-12945000D02*
X17500000Y-13245000D01*
X17350000Y-13095000D02*
X17650000Y-13095000D01*
X18000001Y-15375001D02*
X18000001Y-15675001D01*
X17850001Y-15525001D02*
X18150001Y-15525001D01*
X18637248Y-17433237D02*
X18637248Y-17733237D01*
X18487248Y-17583237D02*
X18787248Y-17583237D01*
X19091450Y-17736719D02*
X19091450Y-18036719D01*
X18941450Y-17886719D02*
X19241450Y-17886719D01*
X20612596Y-17962529D02*
X20612596Y-18262529D01*
X20462596Y-18112529D02*
X20762596Y-18112529D01*
X21007199Y-18340272D02*
X21007199Y-18640272D01*
X20857199Y-18490272D02*
X21157199Y-18490272D01*
X22928619Y-17962530D02*
X22928619Y-18262530D01*
X22778619Y-18112530D02*
X23078619Y-18112530D01*
X23473710Y-17998252D02*
X23473710Y-18298252D01*
X23323710Y-18148252D02*
X23623710Y-18148252D01*
X24903967Y-17433237D02*
X24903967Y-17733237D01*
X24753967Y-17583237D02*
X25053967Y-17583237D01*
X25434573Y-17563071D02*
X25434573Y-17863071D01*
X25284573Y-17713071D02*
X25584573Y-17713071D01*
X25541215Y-12725001D02*
X25541215Y-13025001D01*
X25391215Y-12875001D02*
X25691215Y-12875001D01*
X25541216Y-14425001D02*
X25541216Y-14725001D01*
X25391216Y-14575001D02*
X25691216Y-14575001D01*
X26041215Y-15155000D02*
X26041215Y-15455000D01*
X25891215Y-15305000D02*
X26191215Y-15305000D01*
X26041215Y-12945001D02*
X26041215Y-13245001D01*
X25891215Y-13095001D02*
X26191215Y-13095001D01*
X26041216Y-14645001D02*
X26041216Y-14945001D01*
X25891216Y-14795001D02*
X26191216Y-14795001D01*
X26541215Y-15375000D02*
X26541215Y-15675000D01*
X26391215Y-15525000D02*
X26691215Y-15525000D01*
X26941216Y-17255001D02*
X26941216Y-17555001D01*
X26791216Y-17405001D02*
X27091216Y-17405001D01*
X27341215Y-12725001D02*
X27341215Y-13025001D01*
X27191215Y-12875001D02*
X27491215Y-12875001D01*
X27341215Y-14425001D02*
X27341215Y-14725001D01*
X27191215Y-14575001D02*
X27491215Y-14575001D01*
X27441216Y-17475001D02*
X27441216Y-17775001D01*
X27291216Y-17625001D02*
X27591216Y-17625001D01*
X27841215Y-12945001D02*
X27841215Y-13245001D01*
X27691215Y-13095001D02*
X27991215Y-13095001D01*
X27841215Y-15155000D02*
X27841215Y-15455000D01*
X27691215Y-15305000D02*
X27991215Y-15305000D01*
X27841215Y-14645001D02*
X27841215Y-14945001D01*
X27691215Y-14795001D02*
X27991215Y-14795001D01*
X28341215Y-15375000D02*
X28341215Y-15675000D01*
X28191215Y-15525000D02*
X28491215Y-15525000D01*
X29329258Y-13968139D02*
X29329258Y-14268139D01*
X29179258Y-14118139D02*
X29479258Y-14118139D01*
X29477422Y-12274608D02*
X29477422Y-12574608D01*
X29327422Y-12424608D02*
X29627422Y-12424608D01*
X29763732Y-14738939D02*
X29763732Y-15038939D01*
X29613732Y-14888939D02*
X29913732Y-14888939D01*
X29808181Y-14230880D02*
X29808181Y-14530880D01*
X29658181Y-14380880D02*
X29958181Y-14380880D01*
X29956345Y-12537349D02*
X29956345Y-12837349D01*
X29806345Y-12687349D02*
X30106345Y-12687349D01*
X30242655Y-15001680D02*
X30242655Y-15301680D01*
X30092655Y-15151680D02*
X30392655Y-15151680D01*
X31219150Y-14676787D02*
X31219150Y-14976787D01*
X31069150Y-14826787D02*
X31369150Y-14826787D01*
X31514352Y-13002614D02*
X31514352Y-13302614D01*
X31364352Y-13152614D02*
X31664352Y-13152614D01*
X31584791Y-15482522D02*
X31584791Y-15782522D01*
X31434791Y-15632522D02*
X31734791Y-15632522D01*
X31673351Y-14980269D02*
X31673351Y-15280269D01*
X31523351Y-15130269D02*
X31823351Y-15130269D01*
X31968554Y-13306096D02*
X31968554Y-13606096D01*
X31818554Y-13456096D02*
X32118554Y-13456096D01*
X32038992Y-15786003D02*
X32038992Y-16086003D01*
X31888992Y-15936003D02*
X32188992Y-15936003D01*
X33152940Y-17058137D02*
X33152940Y-17358137D01*
X33002940Y-17208137D02*
X33302940Y-17208137D01*
X33298907Y-14581528D02*
X33298907Y-14881528D01*
X33148907Y-14731528D02*
X33448907Y-14731528D01*
X33578963Y-17400050D02*
X33578963Y-17700050D01*
X33428962Y-17550050D02*
X33728963Y-17550050D01*
X33592933Y-15416064D02*
X33592933Y-15716064D01*
X33442932Y-15566064D02*
X33742933Y-15566064D01*
X33724930Y-14923441D02*
X33724930Y-15223441D01*
X33574930Y-15073441D02*
X33874930Y-15073441D01*
X34018955Y-15757977D02*
X34018955Y-16057977D01*
X33868955Y-15907977D02*
X34168955Y-15907977D01*
X34891606Y-17524012D02*
X34891606Y-17824012D01*
X34741606Y-17674012D02*
X35041606Y-17674012D01*
X35037574Y-15047402D02*
X35037574Y-15347402D01*
X34887574Y-15197402D02*
X35187574Y-15197402D01*
X35317629Y-17865925D02*
X35317629Y-18165925D01*
X35167629Y-18015925D02*
X35467629Y-18015925D01*
X35331599Y-15881937D02*
X35331599Y-16181937D01*
X35181599Y-16031937D02*
X35481599Y-16031937D01*
X35463597Y-15389316D02*
X35463597Y-15689316D01*
X35313597Y-15539316D02*
X35613597Y-15539316D01*
X35757622Y-16223851D02*
X35757622Y-16523851D01*
X35607622Y-16373851D02*
X35907622Y-16373851D01*
D14*
X8102168Y-15143135D02*
X8102168Y-14786042D01*
X7745076Y-14786042D01*
X7745076Y-15143135D01*
X8102168Y-15143135D01*
X8542160Y-16785209D02*
X8542160Y-16428117D01*
X8185068Y-16428117D01*
X8185068Y-16785209D01*
X8542160Y-16785209D01*
X8982152Y-18427283D02*
X8982152Y-18070191D01*
X8625060Y-18070191D01*
X8625060Y-18427283D01*
X8982152Y-18427283D01*
X9840835Y-14677261D02*
X9840835Y-14320168D01*
X9483742Y-14320168D01*
X9483742Y-14677261D01*
X9840835Y-14677261D01*
X10280827Y-16319335D02*
X10280827Y-15962242D01*
X9923735Y-15962242D01*
X9923735Y-16319335D01*
X10280827Y-16319335D01*
X10720819Y-17961409D02*
X10720819Y-17604316D01*
X10363727Y-17604316D01*
X10363727Y-17961409D01*
X10720819Y-17961409D01*
X11647888Y-13048681D02*
X11647888Y-12691589D01*
X11290795Y-12691589D01*
X11290795Y-13048681D01*
X11647888Y-13048681D01*
X11943090Y-14722854D02*
X11943090Y-14365762D01*
X11585997Y-14365762D01*
X11585997Y-14722854D01*
X11943090Y-14722854D01*
X12238292Y-16397027D02*
X12238292Y-16039935D01*
X11881199Y-16039935D01*
X11881199Y-16397027D01*
X12238292Y-16397027D01*
X13711559Y-12273159D02*
X13711559Y-11916067D01*
X13354467Y-11916067D01*
X13354467Y-12273159D01*
X13711559Y-12273159D01*
X13859723Y-13966689D02*
X13859723Y-13609597D01*
X13502631Y-13609597D01*
X13502631Y-13966689D01*
X13859723Y-13966689D01*
X14007888Y-15660221D02*
X14007888Y-15303128D01*
X13650796Y-15303128D01*
X13650796Y-15660221D01*
X14007888Y-15660221D01*
X15878546Y-12678546D02*
X15878546Y-12321454D01*
X15521454Y-12321454D01*
X15521454Y-12678546D01*
X15878546Y-12678546D01*
X15878546Y-16078546D02*
X15878546Y-15721453D01*
X15521454Y-15721453D01*
X15521454Y-16078546D01*
X15878546Y-16078546D01*
X15878546Y-14378547D02*
X15878546Y-14021454D01*
X15521454Y-14021454D01*
X15521454Y-14378547D01*
X15878546Y-14378547D01*
X16778546Y-18178547D02*
X16778546Y-17821454D01*
X16421454Y-17821454D01*
X16421454Y-18178547D01*
X16778546Y-18178547D01*
X17678546Y-14378547D02*
X17678546Y-14021454D01*
X17321453Y-14021454D01*
X17321453Y-14378547D01*
X17678546Y-14378547D01*
X17678546Y-12678546D02*
X17678546Y-12321454D01*
X17321454Y-12321454D01*
X17321454Y-12678546D01*
X17678546Y-12678546D01*
X17678546Y-16078547D02*
X17678546Y-15721454D01*
X17321454Y-15721454D01*
X17321454Y-16078547D01*
X17678546Y-16078547D01*
X18712474Y-18347743D02*
X18712474Y-17990651D01*
X18355382Y-17990651D01*
X18355382Y-18347743D01*
X18712474Y-18347743D01*
X20587641Y-18850192D02*
X20587641Y-18493100D01*
X20230548Y-18493100D01*
X20230548Y-18850192D01*
X20587641Y-18850192D01*
X23310667Y-18850193D02*
X23310667Y-18493101D01*
X22953575Y-18493101D01*
X22953575Y-18850193D01*
X23310667Y-18850193D01*
X25185834Y-18347744D02*
X25185834Y-17990651D01*
X24828741Y-17990651D01*
X24828741Y-18347744D01*
X25185834Y-18347744D01*
X26219761Y-16078546D02*
X26219761Y-15721454D01*
X25862668Y-15721454D01*
X25862668Y-16078546D01*
X26219761Y-16078546D01*
X26219762Y-12678547D02*
X26219762Y-12321455D01*
X25862669Y-12321455D01*
X25862669Y-12678547D01*
X26219762Y-12678547D01*
X26219762Y-14378548D02*
X26219762Y-14021455D01*
X25862670Y-14021455D01*
X25862670Y-14378548D01*
X26219762Y-14378548D01*
X27119762Y-18178547D02*
X27119762Y-17821455D01*
X26762670Y-17821455D01*
X26762670Y-18178547D01*
X27119762Y-18178547D01*
X28019761Y-12678547D02*
X28019761Y-12321454D01*
X27662669Y-12321454D01*
X27662669Y-12678547D01*
X28019761Y-12678547D01*
X28019761Y-16078546D02*
X28019761Y-15721454D01*
X27662669Y-15721454D01*
X27662669Y-16078546D01*
X28019761Y-16078546D01*
X28019762Y-14378547D02*
X28019762Y-14021454D01*
X27662669Y-14021454D01*
X27662669Y-14378547D01*
X28019762Y-14378547D01*
X29890420Y-15660221D02*
X29890420Y-15303129D01*
X29533328Y-15303129D01*
X29533328Y-15660221D01*
X29890420Y-15660221D01*
X30038585Y-13966690D02*
X30038585Y-13609598D01*
X29681493Y-13609598D01*
X29681493Y-13966690D01*
X30038585Y-13966690D01*
X30186749Y-12273160D02*
X30186749Y-11916067D01*
X29829657Y-11916067D01*
X29829657Y-12273160D01*
X30186749Y-12273160D01*
X31660016Y-16397028D02*
X31660016Y-16039936D01*
X31302924Y-16039936D01*
X31302924Y-16397028D01*
X31660016Y-16397028D01*
X31955218Y-14722854D02*
X31955218Y-14365762D01*
X31598126Y-14365762D01*
X31598126Y-14722854D01*
X31955218Y-14722854D01*
X32250420Y-13048681D02*
X32250420Y-12691589D01*
X31893328Y-12691589D01*
X31893328Y-13048681D01*
X32250420Y-13048681D01*
X33177489Y-17961409D02*
X33177489Y-17604317D01*
X32820396Y-17604317D01*
X32820396Y-17961409D01*
X33177489Y-17961409D01*
X33617481Y-16319336D02*
X33617481Y-15962243D01*
X33260389Y-15962243D01*
X33260389Y-16319336D01*
X33617481Y-16319336D01*
X34057474Y-14677262D02*
X34057474Y-14320169D01*
X33700381Y-14320169D01*
X33700381Y-14677262D01*
X34057474Y-14677262D01*
X34916155Y-18427284D02*
X34916155Y-18070191D01*
X34559062Y-18070191D01*
X34559062Y-18427284D01*
X34916155Y-18427284D01*
X35356148Y-16785210D02*
X35356148Y-16428117D01*
X34999055Y-16428117D01*
X34999055Y-16785210D01*
X35356148Y-16785210D01*
X35796141Y-15143136D02*
X35796141Y-14786044D01*
X35439048Y-14786044D01*
X35439048Y-15143136D01*
X35796141Y-15143136D01*
D10*
X7070486Y-20074530D02*
X7070486Y-19874530D01*
X7070486Y-19874530D02*
X7118105Y-19874530D01*
X7118105Y-19874530D02*
X7146676Y-19884054D01*
X7146676Y-19884054D02*
X7165724Y-19903101D01*
X7165724Y-19903101D02*
X7175248Y-19922149D01*
X7175248Y-19922149D02*
X7184772Y-19960244D01*
X7184772Y-19960244D02*
X7184772Y-19988816D01*
X7184772Y-19988816D02*
X7175248Y-20026911D01*
X7175248Y-20026911D02*
X7165724Y-20045958D01*
X7165724Y-20045958D02*
X7146676Y-20065006D01*
X7146676Y-20065006D02*
X7118105Y-20074530D01*
X7118105Y-20074530D02*
X7070486Y-20074530D01*
X7270486Y-20074530D02*
X7270486Y-19941196D01*
X7270486Y-19979292D02*
X7280010Y-19960244D01*
X7280010Y-19960244D02*
X7289534Y-19950720D01*
X7289534Y-19950720D02*
X7308581Y-19941196D01*
X7308581Y-19941196D02*
X7327629Y-19941196D01*
X7394295Y-20074530D02*
X7394295Y-19941196D01*
X7394295Y-19874530D02*
X7384772Y-19884054D01*
X7384772Y-19884054D02*
X7394295Y-19893577D01*
X7394295Y-19893577D02*
X7403819Y-19884054D01*
X7403819Y-19884054D02*
X7394295Y-19874530D01*
X7394295Y-19874530D02*
X7394295Y-19893577D01*
X7518105Y-20074530D02*
X7499057Y-20065006D01*
X7499057Y-20065006D02*
X7489534Y-20045958D01*
X7489534Y-20045958D02*
X7489534Y-19874530D01*
X7622867Y-20074530D02*
X7603819Y-20065006D01*
X7603819Y-20065006D02*
X7594295Y-20045958D01*
X7594295Y-20045958D02*
X7594295Y-19874530D01*
X7851438Y-20074530D02*
X7851438Y-19874530D01*
X7851438Y-19874530D02*
X7918105Y-20017387D01*
X7918105Y-20017387D02*
X7984772Y-19874530D01*
X7984772Y-19874530D02*
X7984772Y-20074530D01*
X8165724Y-20074530D02*
X8165724Y-19969768D01*
X8165724Y-19969768D02*
X8156200Y-19950720D01*
X8156200Y-19950720D02*
X8137153Y-19941196D01*
X8137153Y-19941196D02*
X8099057Y-19941196D01*
X8099057Y-19941196D02*
X8080010Y-19950720D01*
X8165724Y-20065006D02*
X8146676Y-20074530D01*
X8146676Y-20074530D02*
X8099057Y-20074530D01*
X8099057Y-20074530D02*
X8080010Y-20065006D01*
X8080010Y-20065006D02*
X8070486Y-20045958D01*
X8070486Y-20045958D02*
X8070486Y-20026911D01*
X8070486Y-20026911D02*
X8080010Y-20007863D01*
X8080010Y-20007863D02*
X8099057Y-19998339D01*
X8099057Y-19998339D02*
X8146676Y-19998339D01*
X8146676Y-19998339D02*
X8165724Y-19988816D01*
X8260962Y-19941196D02*
X8260962Y-20141196D01*
X8260962Y-19950720D02*
X8280010Y-19941196D01*
X8280010Y-19941196D02*
X8318105Y-19941196D01*
X8318105Y-19941196D02*
X8337153Y-19950720D01*
X8337153Y-19950720D02*
X8346676Y-19960244D01*
X8346676Y-19960244D02*
X8356200Y-19979292D01*
X8356200Y-19979292D02*
X8356200Y-20036435D01*
X8356200Y-20036435D02*
X8346676Y-20055482D01*
X8346676Y-20055482D02*
X8337153Y-20065006D01*
X8337153Y-20065006D02*
X8318105Y-20074530D01*
X8318105Y-20074530D02*
X8280010Y-20074530D01*
X8280010Y-20074530D02*
X8260962Y-20065006D01*
X8441915Y-20055482D02*
X8451438Y-20065006D01*
X8451438Y-20065006D02*
X8441915Y-20074530D01*
X8441915Y-20074530D02*
X8432391Y-20065006D01*
X8432391Y-20065006D02*
X8441915Y-20055482D01*
X8441915Y-20055482D02*
X8441915Y-20074530D01*
X8441915Y-19950720D02*
X8451438Y-19960244D01*
X8451438Y-19960244D02*
X8441915Y-19969768D01*
X8441915Y-19969768D02*
X8432391Y-19960244D01*
X8432391Y-19960244D02*
X8441915Y-19950720D01*
X8441915Y-19950720D02*
X8441915Y-19969768D01*
D11*
X6759709Y-20378046D02*
X6809709Y-20428046D01*
X6809709Y-20378046D02*
X6759709Y-20428046D01*
D10*
X7108581Y-20294530D02*
X7127629Y-20294530D01*
X7127629Y-20294530D02*
X7146676Y-20304054D01*
X7146676Y-20304054D02*
X7156200Y-20313577D01*
X7156200Y-20313577D02*
X7165724Y-20332625D01*
X7165724Y-20332625D02*
X7175248Y-20370720D01*
X7175248Y-20370720D02*
X7175248Y-20418339D01*
X7175248Y-20418339D02*
X7165724Y-20456435D01*
X7165724Y-20456435D02*
X7156200Y-20475482D01*
X7156200Y-20475482D02*
X7146676Y-20485006D01*
X7146676Y-20485006D02*
X7127629Y-20494530D01*
X7127629Y-20494530D02*
X7108581Y-20494530D01*
X7108581Y-20494530D02*
X7089534Y-20485006D01*
X7089534Y-20485006D02*
X7080010Y-20475482D01*
X7080010Y-20475482D02*
X7070486Y-20456435D01*
X7070486Y-20456435D02*
X7060962Y-20418339D01*
X7060962Y-20418339D02*
X7060962Y-20370720D01*
X7060962Y-20370720D02*
X7070486Y-20332625D01*
X7070486Y-20332625D02*
X7080010Y-20313577D01*
X7080010Y-20313577D02*
X7089534Y-20304054D01*
X7089534Y-20304054D02*
X7108581Y-20294530D01*
X7260962Y-20475482D02*
X7270486Y-20485006D01*
X7270486Y-20485006D02*
X7260962Y-20494530D01*
X7260962Y-20494530D02*
X7251438Y-20485006D01*
X7251438Y-20485006D02*
X7260962Y-20475482D01*
X7260962Y-20475482D02*
X7260962Y-20494530D01*
X7451438Y-20294530D02*
X7356200Y-20294530D01*
X7356200Y-20294530D02*
X7346676Y-20389768D01*
X7346676Y-20389768D02*
X7356200Y-20380244D01*
X7356200Y-20380244D02*
X7375248Y-20370720D01*
X7375248Y-20370720D02*
X7422867Y-20370720D01*
X7422867Y-20370720D02*
X7441915Y-20380244D01*
X7441915Y-20380244D02*
X7451438Y-20389768D01*
X7451438Y-20389768D02*
X7460962Y-20408816D01*
X7460962Y-20408816D02*
X7460962Y-20456435D01*
X7460962Y-20456435D02*
X7451438Y-20475482D01*
X7451438Y-20475482D02*
X7441915Y-20485006D01*
X7441915Y-20485006D02*
X7422867Y-20494530D01*
X7422867Y-20494530D02*
X7375248Y-20494530D01*
X7375248Y-20494530D02*
X7356200Y-20485006D01*
X7356200Y-20485006D02*
X7346676Y-20475482D01*
X7584772Y-20294530D02*
X7603819Y-20294530D01*
X7603819Y-20294530D02*
X7622867Y-20304054D01*
X7622867Y-20304054D02*
X7632391Y-20313577D01*
X7632391Y-20313577D02*
X7641915Y-20332625D01*
X7641915Y-20332625D02*
X7651438Y-20370720D01*
X7651438Y-20370720D02*
X7651438Y-20418339D01*
X7651438Y-20418339D02*
X7641915Y-20456435D01*
X7641915Y-20456435D02*
X7632391Y-20475482D01*
X7632391Y-20475482D02*
X7622867Y-20485006D01*
X7622867Y-20485006D02*
X7603819Y-20494530D01*
X7603819Y-20494530D02*
X7584772Y-20494530D01*
X7584772Y-20494530D02*
X7565724Y-20485006D01*
X7565724Y-20485006D02*
X7556200Y-20475482D01*
X7556200Y-20475482D02*
X7546676Y-20456435D01*
X7546676Y-20456435D02*
X7537153Y-20418339D01*
X7537153Y-20418339D02*
X7537153Y-20370720D01*
X7537153Y-20370720D02*
X7546676Y-20332625D01*
X7546676Y-20332625D02*
X7556200Y-20313577D01*
X7556200Y-20313577D02*
X7565724Y-20304054D01*
X7565724Y-20304054D02*
X7584772Y-20294530D01*
X7775248Y-20294530D02*
X7794296Y-20294530D01*
X7794296Y-20294530D02*
X7813343Y-20304054D01*
X7813343Y-20304054D02*
X7822867Y-20313577D01*
X7822867Y-20313577D02*
X7832391Y-20332625D01*
X7832391Y-20332625D02*
X7841915Y-20370720D01*
X7841915Y-20370720D02*
X7841915Y-20418339D01*
X7841915Y-20418339D02*
X7832391Y-20456435D01*
X7832391Y-20456435D02*
X7822867Y-20475482D01*
X7822867Y-20475482D02*
X7813343Y-20485006D01*
X7813343Y-20485006D02*
X7794296Y-20494530D01*
X7794296Y-20494530D02*
X7775248Y-20494530D01*
X7775248Y-20494530D02*
X7756200Y-20485006D01*
X7756200Y-20485006D02*
X7746676Y-20475482D01*
X7746676Y-20475482D02*
X7737153Y-20456435D01*
X7737153Y-20456435D02*
X7727629Y-20418339D01*
X7727629Y-20418339D02*
X7727629Y-20370720D01*
X7727629Y-20370720D02*
X7737153Y-20332625D01*
X7737153Y-20332625D02*
X7746676Y-20313577D01*
X7746676Y-20313577D02*
X7756200Y-20304054D01*
X7756200Y-20304054D02*
X7775248Y-20294530D01*
X7927629Y-20494530D02*
X7927629Y-20361196D01*
X7927629Y-20380244D02*
X7937153Y-20370720D01*
X7937153Y-20370720D02*
X7956200Y-20361196D01*
X7956200Y-20361196D02*
X7984772Y-20361196D01*
X7984772Y-20361196D02*
X8003819Y-20370720D01*
X8003819Y-20370720D02*
X8013343Y-20389768D01*
X8013343Y-20389768D02*
X8013343Y-20494530D01*
X8013343Y-20389768D02*
X8022867Y-20370720D01*
X8022867Y-20370720D02*
X8041915Y-20361196D01*
X8041915Y-20361196D02*
X8070486Y-20361196D01*
X8070486Y-20361196D02*
X8089534Y-20370720D01*
X8089534Y-20370720D02*
X8099057Y-20389768D01*
X8099057Y-20389768D02*
X8099057Y-20494530D01*
X8194296Y-20494530D02*
X8194296Y-20361196D01*
X8194296Y-20380244D02*
X8203819Y-20370720D01*
X8203819Y-20370720D02*
X8222867Y-20361196D01*
X8222867Y-20361196D02*
X8251438Y-20361196D01*
X8251438Y-20361196D02*
X8270486Y-20370720D01*
X8270486Y-20370720D02*
X8280010Y-20389768D01*
X8280010Y-20389768D02*
X8280010Y-20494530D01*
X8280010Y-20389768D02*
X8289534Y-20370720D01*
X8289534Y-20370720D02*
X8308581Y-20361196D01*
X8308581Y-20361196D02*
X8337153Y-20361196D01*
X8337153Y-20361196D02*
X8356200Y-20370720D01*
X8356200Y-20370720D02*
X8365724Y-20389768D01*
X8365724Y-20389768D02*
X8365724Y-20494530D01*
X8756200Y-20285006D02*
X8584772Y-20542149D01*
X9013343Y-20294530D02*
X9032391Y-20294530D01*
X9032391Y-20294530D02*
X9051439Y-20304054D01*
X9051439Y-20304054D02*
X9060962Y-20313577D01*
X9060962Y-20313577D02*
X9070486Y-20332625D01*
X9070486Y-20332625D02*
X9080010Y-20370720D01*
X9080010Y-20370720D02*
X9080010Y-20418339D01*
X9080010Y-20418339D02*
X9070486Y-20456435D01*
X9070486Y-20456435D02*
X9060962Y-20475482D01*
X9060962Y-20475482D02*
X9051439Y-20485006D01*
X9051439Y-20485006D02*
X9032391Y-20494530D01*
X9032391Y-20494530D02*
X9013343Y-20494530D01*
X9013343Y-20494530D02*
X8994296Y-20485006D01*
X8994296Y-20485006D02*
X8984772Y-20475482D01*
X8984772Y-20475482D02*
X8975248Y-20456435D01*
X8975248Y-20456435D02*
X8965724Y-20418339D01*
X8965724Y-20418339D02*
X8965724Y-20370720D01*
X8965724Y-20370720D02*
X8975248Y-20332625D01*
X8975248Y-20332625D02*
X8984772Y-20313577D01*
X8984772Y-20313577D02*
X8994296Y-20304054D01*
X8994296Y-20304054D02*
X9013343Y-20294530D01*
X9165724Y-20475482D02*
X9175248Y-20485006D01*
X9175248Y-20485006D02*
X9165724Y-20494530D01*
X9165724Y-20494530D02*
X9156201Y-20485006D01*
X9156201Y-20485006D02*
X9165724Y-20475482D01*
X9165724Y-20475482D02*
X9165724Y-20494530D01*
X9299058Y-20294530D02*
X9318105Y-20294530D01*
X9318105Y-20294530D02*
X9337153Y-20304054D01*
X9337153Y-20304054D02*
X9346677Y-20313577D01*
X9346677Y-20313577D02*
X9356201Y-20332625D01*
X9356201Y-20332625D02*
X9365724Y-20370720D01*
X9365724Y-20370720D02*
X9365724Y-20418339D01*
X9365724Y-20418339D02*
X9356201Y-20456435D01*
X9356201Y-20456435D02*
X9346677Y-20475482D01*
X9346677Y-20475482D02*
X9337153Y-20485006D01*
X9337153Y-20485006D02*
X9318105Y-20494530D01*
X9318105Y-20494530D02*
X9299058Y-20494530D01*
X9299058Y-20494530D02*
X9280010Y-20485006D01*
X9280010Y-20485006D02*
X9270486Y-20475482D01*
X9270486Y-20475482D02*
X9260962Y-20456435D01*
X9260962Y-20456435D02*
X9251439Y-20418339D01*
X9251439Y-20418339D02*
X9251439Y-20370720D01*
X9251439Y-20370720D02*
X9260962Y-20332625D01*
X9260962Y-20332625D02*
X9270486Y-20313577D01*
X9270486Y-20313577D02*
X9280010Y-20304054D01*
X9280010Y-20304054D02*
X9299058Y-20294530D01*
X9556201Y-20494530D02*
X9441915Y-20494530D01*
X9499058Y-20494530D02*
X9499058Y-20294530D01*
X9499058Y-20294530D02*
X9480010Y-20323101D01*
X9480010Y-20323101D02*
X9460962Y-20342149D01*
X9460962Y-20342149D02*
X9441915Y-20351673D01*
X9651439Y-20494530D02*
X9689534Y-20494530D01*
X9689534Y-20494530D02*
X9708582Y-20485006D01*
X9708582Y-20485006D02*
X9718105Y-20475482D01*
X9718105Y-20475482D02*
X9737153Y-20446911D01*
X9737153Y-20446911D02*
X9746677Y-20408816D01*
X9746677Y-20408816D02*
X9746677Y-20332625D01*
X9746677Y-20332625D02*
X9737153Y-20313577D01*
X9737153Y-20313577D02*
X9727629Y-20304054D01*
X9727629Y-20304054D02*
X9708582Y-20294530D01*
X9708582Y-20294530D02*
X9670486Y-20294530D01*
X9670486Y-20294530D02*
X9651439Y-20304054D01*
X9651439Y-20304054D02*
X9641915Y-20313577D01*
X9641915Y-20313577D02*
X9632391Y-20332625D01*
X9632391Y-20332625D02*
X9632391Y-20380244D01*
X9632391Y-20380244D02*
X9641915Y-20399292D01*
X9641915Y-20399292D02*
X9651439Y-20408816D01*
X9651439Y-20408816D02*
X9670486Y-20418339D01*
X9670486Y-20418339D02*
X9708582Y-20418339D01*
X9708582Y-20418339D02*
X9727629Y-20408816D01*
X9727629Y-20408816D02*
X9737153Y-20399292D01*
X9737153Y-20399292D02*
X9746677Y-20380244D01*
X9813343Y-20294530D02*
X9946677Y-20294530D01*
X9946677Y-20294530D02*
X9860962Y-20494530D01*
X10013343Y-20294530D02*
X10013343Y-20332625D01*
X10089534Y-20294530D02*
X10089534Y-20332625D01*
X10384772Y-20570720D02*
X10375248Y-20561196D01*
X10375248Y-20561196D02*
X10356201Y-20532625D01*
X10356201Y-20532625D02*
X10346677Y-20513577D01*
X10346677Y-20513577D02*
X10337153Y-20485006D01*
X10337153Y-20485006D02*
X10327629Y-20437387D01*
X10327629Y-20437387D02*
X10327629Y-20399292D01*
X10327629Y-20399292D02*
X10337153Y-20351673D01*
X10337153Y-20351673D02*
X10346677Y-20323101D01*
X10346677Y-20323101D02*
X10356201Y-20304054D01*
X10356201Y-20304054D02*
X10375248Y-20275482D01*
X10375248Y-20275482D02*
X10384772Y-20265958D01*
X10546677Y-20361196D02*
X10546677Y-20494530D01*
X10499058Y-20285006D02*
X10451439Y-20427863D01*
X10451439Y-20427863D02*
X10575248Y-20427863D01*
X10689534Y-20294530D02*
X10708582Y-20294530D01*
X10708582Y-20294530D02*
X10727629Y-20304054D01*
X10727629Y-20304054D02*
X10737153Y-20313577D01*
X10737153Y-20313577D02*
X10746677Y-20332625D01*
X10746677Y-20332625D02*
X10756201Y-20370720D01*
X10756201Y-20370720D02*
X10756201Y-20418339D01*
X10756201Y-20418339D02*
X10746677Y-20456435D01*
X10746677Y-20456435D02*
X10737153Y-20475482D01*
X10737153Y-20475482D02*
X10727629Y-20485006D01*
X10727629Y-20485006D02*
X10708582Y-20494530D01*
X10708582Y-20494530D02*
X10689534Y-20494530D01*
X10689534Y-20494530D02*
X10670486Y-20485006D01*
X10670486Y-20485006D02*
X10660963Y-20475482D01*
X10660963Y-20475482D02*
X10651439Y-20456435D01*
X10651439Y-20456435D02*
X10641915Y-20418339D01*
X10641915Y-20418339D02*
X10641915Y-20370720D01*
X10641915Y-20370720D02*
X10651439Y-20332625D01*
X10651439Y-20332625D02*
X10660963Y-20313577D01*
X10660963Y-20313577D02*
X10670486Y-20304054D01*
X10670486Y-20304054D02*
X10689534Y-20294530D01*
X10994296Y-20494530D02*
X10994296Y-20294530D01*
X11080010Y-20494530D02*
X11080010Y-20389768D01*
X11080010Y-20389768D02*
X11070486Y-20370720D01*
X11070486Y-20370720D02*
X11051439Y-20361196D01*
X11051439Y-20361196D02*
X11022867Y-20361196D01*
X11022867Y-20361196D02*
X11003820Y-20370720D01*
X11003820Y-20370720D02*
X10994296Y-20380244D01*
X11203820Y-20494530D02*
X11184772Y-20485006D01*
X11184772Y-20485006D02*
X11175248Y-20475482D01*
X11175248Y-20475482D02*
X11165725Y-20456435D01*
X11165725Y-20456435D02*
X11165725Y-20399292D01*
X11165725Y-20399292D02*
X11175248Y-20380244D01*
X11175248Y-20380244D02*
X11184772Y-20370720D01*
X11184772Y-20370720D02*
X11203820Y-20361196D01*
X11203820Y-20361196D02*
X11232391Y-20361196D01*
X11232391Y-20361196D02*
X11251439Y-20370720D01*
X11251439Y-20370720D02*
X11260963Y-20380244D01*
X11260963Y-20380244D02*
X11270486Y-20399292D01*
X11270486Y-20399292D02*
X11270486Y-20456435D01*
X11270486Y-20456435D02*
X11260963Y-20475482D01*
X11260963Y-20475482D02*
X11251439Y-20485006D01*
X11251439Y-20485006D02*
X11232391Y-20494530D01*
X11232391Y-20494530D02*
X11203820Y-20494530D01*
X11384772Y-20494530D02*
X11365724Y-20485006D01*
X11365724Y-20485006D02*
X11356201Y-20465958D01*
X11356201Y-20465958D02*
X11356201Y-20294530D01*
X11537153Y-20485006D02*
X11518105Y-20494530D01*
X11518105Y-20494530D02*
X11480010Y-20494530D01*
X11480010Y-20494530D02*
X11460963Y-20485006D01*
X11460963Y-20485006D02*
X11451439Y-20465958D01*
X11451439Y-20465958D02*
X11451439Y-20389768D01*
X11451439Y-20389768D02*
X11460963Y-20370720D01*
X11460963Y-20370720D02*
X11480010Y-20361196D01*
X11480010Y-20361196D02*
X11518105Y-20361196D01*
X11518105Y-20361196D02*
X11537153Y-20370720D01*
X11537153Y-20370720D02*
X11546677Y-20389768D01*
X11546677Y-20389768D02*
X11546677Y-20408816D01*
X11546677Y-20408816D02*
X11451439Y-20427863D01*
X11622867Y-20485006D02*
X11641915Y-20494530D01*
X11641915Y-20494530D02*
X11680010Y-20494530D01*
X11680010Y-20494530D02*
X11699058Y-20485006D01*
X11699058Y-20485006D02*
X11708582Y-20465958D01*
X11708582Y-20465958D02*
X11708582Y-20456435D01*
X11708582Y-20456435D02*
X11699058Y-20437387D01*
X11699058Y-20437387D02*
X11680010Y-20427863D01*
X11680010Y-20427863D02*
X11651439Y-20427863D01*
X11651439Y-20427863D02*
X11632391Y-20418339D01*
X11632391Y-20418339D02*
X11622867Y-20399292D01*
X11622867Y-20399292D02*
X11622867Y-20389768D01*
X11622867Y-20389768D02*
X11632391Y-20370720D01*
X11632391Y-20370720D02*
X11651439Y-20361196D01*
X11651439Y-20361196D02*
X11680010Y-20361196D01*
X11680010Y-20361196D02*
X11699058Y-20370720D01*
X11775248Y-20570720D02*
X11784772Y-20561196D01*
X11784772Y-20561196D02*
X11803820Y-20532625D01*
X11803820Y-20532625D02*
X11813344Y-20513577D01*
X11813344Y-20513577D02*
X11822867Y-20485006D01*
X11822867Y-20485006D02*
X11832391Y-20437387D01*
X11832391Y-20437387D02*
X11832391Y-20399292D01*
X11832391Y-20399292D02*
X11822867Y-20351673D01*
X11822867Y-20351673D02*
X11813344Y-20323101D01*
X11813344Y-20323101D02*
X11803820Y-20304054D01*
X11803820Y-20304054D02*
X11784772Y-20275482D01*
X11784772Y-20275482D02*
X11775248Y-20265958D01*
X12137153Y-20570720D02*
X12127629Y-20561196D01*
X12127629Y-20561196D02*
X12108582Y-20532625D01*
X12108582Y-20532625D02*
X12099058Y-20513577D01*
X12099058Y-20513577D02*
X12089534Y-20485006D01*
X12089534Y-20485006D02*
X12080010Y-20437387D01*
X12080010Y-20437387D02*
X12080010Y-20399292D01*
X12080010Y-20399292D02*
X12089534Y-20351673D01*
X12089534Y-20351673D02*
X12099058Y-20323101D01*
X12099058Y-20323101D02*
X12108582Y-20304054D01*
X12108582Y-20304054D02*
X12127629Y-20275482D01*
X12127629Y-20275482D02*
X12137153Y-20265958D01*
X12213344Y-20361196D02*
X12213344Y-20494530D01*
X12213344Y-20380244D02*
X12222867Y-20370720D01*
X12222867Y-20370720D02*
X12241915Y-20361196D01*
X12241915Y-20361196D02*
X12270486Y-20361196D01*
X12270486Y-20361196D02*
X12289534Y-20370720D01*
X12289534Y-20370720D02*
X12299058Y-20389768D01*
X12299058Y-20389768D02*
X12299058Y-20494530D01*
X12422867Y-20494530D02*
X12403820Y-20485006D01*
X12403820Y-20485006D02*
X12394296Y-20475482D01*
X12394296Y-20475482D02*
X12384772Y-20456435D01*
X12384772Y-20456435D02*
X12384772Y-20399292D01*
X12384772Y-20399292D02*
X12394296Y-20380244D01*
X12394296Y-20380244D02*
X12403820Y-20370720D01*
X12403820Y-20370720D02*
X12422867Y-20361196D01*
X12422867Y-20361196D02*
X12451439Y-20361196D01*
X12451439Y-20361196D02*
X12470486Y-20370720D01*
X12470486Y-20370720D02*
X12480010Y-20380244D01*
X12480010Y-20380244D02*
X12489534Y-20399292D01*
X12489534Y-20399292D02*
X12489534Y-20456435D01*
X12489534Y-20456435D02*
X12480010Y-20475482D01*
X12480010Y-20475482D02*
X12470486Y-20485006D01*
X12470486Y-20485006D02*
X12451439Y-20494530D01*
X12451439Y-20494530D02*
X12422867Y-20494530D01*
X12546677Y-20361196D02*
X12622867Y-20361196D01*
X12575248Y-20294530D02*
X12575248Y-20465958D01*
X12575248Y-20465958D02*
X12584772Y-20485006D01*
X12584772Y-20485006D02*
X12603820Y-20494530D01*
X12603820Y-20494530D02*
X12622867Y-20494530D01*
X12841915Y-20361196D02*
X12841915Y-20561196D01*
X12841915Y-20370720D02*
X12860963Y-20361196D01*
X12860963Y-20361196D02*
X12899058Y-20361196D01*
X12899058Y-20361196D02*
X12918106Y-20370720D01*
X12918106Y-20370720D02*
X12927629Y-20380244D01*
X12927629Y-20380244D02*
X12937153Y-20399292D01*
X12937153Y-20399292D02*
X12937153Y-20456435D01*
X12937153Y-20456435D02*
X12927629Y-20475482D01*
X12927629Y-20475482D02*
X12918106Y-20485006D01*
X12918106Y-20485006D02*
X12899058Y-20494530D01*
X12899058Y-20494530D02*
X12860963Y-20494530D01*
X12860963Y-20494530D02*
X12841915Y-20485006D01*
X13051439Y-20494530D02*
X13032391Y-20485006D01*
X13032391Y-20485006D02*
X13022867Y-20465958D01*
X13022867Y-20465958D02*
X13022867Y-20294530D01*
X13213344Y-20494530D02*
X13213344Y-20389768D01*
X13213344Y-20389768D02*
X13203820Y-20370720D01*
X13203820Y-20370720D02*
X13184772Y-20361196D01*
X13184772Y-20361196D02*
X13146677Y-20361196D01*
X13146677Y-20361196D02*
X13127629Y-20370720D01*
X13213344Y-20485006D02*
X13194296Y-20494530D01*
X13194296Y-20494530D02*
X13146677Y-20494530D01*
X13146677Y-20494530D02*
X13127629Y-20485006D01*
X13127629Y-20485006D02*
X13118106Y-20465958D01*
X13118106Y-20465958D02*
X13118106Y-20446911D01*
X13118106Y-20446911D02*
X13127629Y-20427863D01*
X13127629Y-20427863D02*
X13146677Y-20418339D01*
X13146677Y-20418339D02*
X13194296Y-20418339D01*
X13194296Y-20418339D02*
X13213344Y-20408816D01*
X13280010Y-20361196D02*
X13356201Y-20361196D01*
X13308582Y-20294530D02*
X13308582Y-20465958D01*
X13308582Y-20465958D02*
X13318106Y-20485006D01*
X13318106Y-20485006D02*
X13337153Y-20494530D01*
X13337153Y-20494530D02*
X13356201Y-20494530D01*
X13499058Y-20485006D02*
X13480010Y-20494530D01*
X13480010Y-20494530D02*
X13441915Y-20494530D01*
X13441915Y-20494530D02*
X13422867Y-20485006D01*
X13422867Y-20485006D02*
X13413344Y-20465958D01*
X13413344Y-20465958D02*
X13413344Y-20389768D01*
X13413344Y-20389768D02*
X13422867Y-20370720D01*
X13422867Y-20370720D02*
X13441915Y-20361196D01*
X13441915Y-20361196D02*
X13480010Y-20361196D01*
X13480010Y-20361196D02*
X13499058Y-20370720D01*
X13499058Y-20370720D02*
X13508582Y-20389768D01*
X13508582Y-20389768D02*
X13508582Y-20408816D01*
X13508582Y-20408816D02*
X13413344Y-20427863D01*
X13680010Y-20494530D02*
X13680010Y-20294530D01*
X13680010Y-20485006D02*
X13660963Y-20494530D01*
X13660963Y-20494530D02*
X13622867Y-20494530D01*
X13622867Y-20494530D02*
X13603820Y-20485006D01*
X13603820Y-20485006D02*
X13594296Y-20475482D01*
X13594296Y-20475482D02*
X13584772Y-20456435D01*
X13584772Y-20456435D02*
X13584772Y-20399292D01*
X13584772Y-20399292D02*
X13594296Y-20380244D01*
X13594296Y-20380244D02*
X13603820Y-20370720D01*
X13603820Y-20370720D02*
X13622867Y-20361196D01*
X13622867Y-20361196D02*
X13660963Y-20361196D01*
X13660963Y-20361196D02*
X13680010Y-20370720D01*
X13756201Y-20570720D02*
X13765725Y-20561196D01*
X13765725Y-20561196D02*
X13784772Y-20532625D01*
X13784772Y-20532625D02*
X13794296Y-20513577D01*
X13794296Y-20513577D02*
X13803820Y-20485006D01*
X13803820Y-20485006D02*
X13813344Y-20437387D01*
X13813344Y-20437387D02*
X13813344Y-20399292D01*
X13813344Y-20399292D02*
X13803820Y-20351673D01*
X13803820Y-20351673D02*
X13794296Y-20323101D01*
X13794296Y-20323101D02*
X13784772Y-20304054D01*
X13784772Y-20304054D02*
X13765725Y-20275482D01*
X13765725Y-20275482D02*
X13756201Y-20265958D01*
D12*
X6809709Y-20667046D02*
G75*
G02*
X6639529Y-20667046I-85090J0D01*
G01*
X6639529Y-20667046D02*
G75*
G02*
X6809709Y-20667046I85090J0D01*
G01*
D10*
X7175248Y-20758530D02*
X7060962Y-20758530D01*
X7118105Y-20758530D02*
X7118105Y-20558530D01*
X7118105Y-20558530D02*
X7099057Y-20587101D01*
X7099057Y-20587101D02*
X7080010Y-20606149D01*
X7080010Y-20606149D02*
X7060962Y-20615673D01*
X7260962Y-20739482D02*
X7270486Y-20749006D01*
X7270486Y-20749006D02*
X7260962Y-20758530D01*
X7260962Y-20758530D02*
X7251438Y-20749006D01*
X7251438Y-20749006D02*
X7260962Y-20739482D01*
X7260962Y-20739482D02*
X7260962Y-20758530D01*
X7337153Y-20558530D02*
X7470486Y-20558530D01*
X7470486Y-20558530D02*
X7384772Y-20758530D01*
X7584772Y-20558530D02*
X7603819Y-20558530D01*
X7603819Y-20558530D02*
X7622867Y-20568054D01*
X7622867Y-20568054D02*
X7632391Y-20577577D01*
X7632391Y-20577577D02*
X7641915Y-20596625D01*
X7641915Y-20596625D02*
X7651438Y-20634720D01*
X7651438Y-20634720D02*
X7651438Y-20682339D01*
X7651438Y-20682339D02*
X7641915Y-20720435D01*
X7641915Y-20720435D02*
X7632391Y-20739482D01*
X7632391Y-20739482D02*
X7622867Y-20749006D01*
X7622867Y-20749006D02*
X7603819Y-20758530D01*
X7603819Y-20758530D02*
X7584772Y-20758530D01*
X7584772Y-20758530D02*
X7565724Y-20749006D01*
X7565724Y-20749006D02*
X7556200Y-20739482D01*
X7556200Y-20739482D02*
X7546676Y-20720435D01*
X7546676Y-20720435D02*
X7537153Y-20682339D01*
X7537153Y-20682339D02*
X7537153Y-20634720D01*
X7537153Y-20634720D02*
X7546676Y-20596625D01*
X7546676Y-20596625D02*
X7556200Y-20577577D01*
X7556200Y-20577577D02*
X7565724Y-20568054D01*
X7565724Y-20568054D02*
X7584772Y-20558530D01*
X7727629Y-20577577D02*
X7737153Y-20568054D01*
X7737153Y-20568054D02*
X7756200Y-20558530D01*
X7756200Y-20558530D02*
X7803819Y-20558530D01*
X7803819Y-20558530D02*
X7822867Y-20568054D01*
X7822867Y-20568054D02*
X7832391Y-20577577D01*
X7832391Y-20577577D02*
X7841915Y-20596625D01*
X7841915Y-20596625D02*
X7841915Y-20615673D01*
X7841915Y-20615673D02*
X7832391Y-20644244D01*
X7832391Y-20644244D02*
X7718105Y-20758530D01*
X7718105Y-20758530D02*
X7841915Y-20758530D01*
X7927629Y-20758530D02*
X7927629Y-20625196D01*
X7927629Y-20644244D02*
X7937153Y-20634720D01*
X7937153Y-20634720D02*
X7956200Y-20625196D01*
X7956200Y-20625196D02*
X7984772Y-20625196D01*
X7984772Y-20625196D02*
X8003819Y-20634720D01*
X8003819Y-20634720D02*
X8013343Y-20653768D01*
X8013343Y-20653768D02*
X8013343Y-20758530D01*
X8013343Y-20653768D02*
X8022867Y-20634720D01*
X8022867Y-20634720D02*
X8041915Y-20625196D01*
X8041915Y-20625196D02*
X8070486Y-20625196D01*
X8070486Y-20625196D02*
X8089534Y-20634720D01*
X8089534Y-20634720D02*
X8099057Y-20653768D01*
X8099057Y-20653768D02*
X8099057Y-20758530D01*
X8194296Y-20758530D02*
X8194296Y-20625196D01*
X8194296Y-20644244D02*
X8203819Y-20634720D01*
X8203819Y-20634720D02*
X8222867Y-20625196D01*
X8222867Y-20625196D02*
X8251438Y-20625196D01*
X8251438Y-20625196D02*
X8270486Y-20634720D01*
X8270486Y-20634720D02*
X8280010Y-20653768D01*
X8280010Y-20653768D02*
X8280010Y-20758530D01*
X8280010Y-20653768D02*
X8289534Y-20634720D01*
X8289534Y-20634720D02*
X8308581Y-20625196D01*
X8308581Y-20625196D02*
X8337153Y-20625196D01*
X8337153Y-20625196D02*
X8356200Y-20634720D01*
X8356200Y-20634720D02*
X8365724Y-20653768D01*
X8365724Y-20653768D02*
X8365724Y-20758530D01*
X8756200Y-20549006D02*
X8584772Y-20806149D01*
X9013343Y-20558530D02*
X9032391Y-20558530D01*
X9032391Y-20558530D02*
X9051439Y-20568054D01*
X9051439Y-20568054D02*
X9060962Y-20577577D01*
X9060962Y-20577577D02*
X9070486Y-20596625D01*
X9070486Y-20596625D02*
X9080010Y-20634720D01*
X9080010Y-20634720D02*
X9080010Y-20682339D01*
X9080010Y-20682339D02*
X9070486Y-20720435D01*
X9070486Y-20720435D02*
X9060962Y-20739482D01*
X9060962Y-20739482D02*
X9051439Y-20749006D01*
X9051439Y-20749006D02*
X9032391Y-20758530D01*
X9032391Y-20758530D02*
X9013343Y-20758530D01*
X9013343Y-20758530D02*
X8994296Y-20749006D01*
X8994296Y-20749006D02*
X8984772Y-20739482D01*
X8984772Y-20739482D02*
X8975248Y-20720435D01*
X8975248Y-20720435D02*
X8965724Y-20682339D01*
X8965724Y-20682339D02*
X8965724Y-20634720D01*
X8965724Y-20634720D02*
X8975248Y-20596625D01*
X8975248Y-20596625D02*
X8984772Y-20577577D01*
X8984772Y-20577577D02*
X8994296Y-20568054D01*
X8994296Y-20568054D02*
X9013343Y-20558530D01*
X9165724Y-20739482D02*
X9175248Y-20749006D01*
X9175248Y-20749006D02*
X9165724Y-20758530D01*
X9165724Y-20758530D02*
X9156201Y-20749006D01*
X9156201Y-20749006D02*
X9165724Y-20739482D01*
X9165724Y-20739482D02*
X9165724Y-20758530D01*
X9299058Y-20558530D02*
X9318105Y-20558530D01*
X9318105Y-20558530D02*
X9337153Y-20568054D01*
X9337153Y-20568054D02*
X9346677Y-20577577D01*
X9346677Y-20577577D02*
X9356201Y-20596625D01*
X9356201Y-20596625D02*
X9365724Y-20634720D01*
X9365724Y-20634720D02*
X9365724Y-20682339D01*
X9365724Y-20682339D02*
X9356201Y-20720435D01*
X9356201Y-20720435D02*
X9346677Y-20739482D01*
X9346677Y-20739482D02*
X9337153Y-20749006D01*
X9337153Y-20749006D02*
X9318105Y-20758530D01*
X9318105Y-20758530D02*
X9299058Y-20758530D01*
X9299058Y-20758530D02*
X9280010Y-20749006D01*
X9280010Y-20749006D02*
X9270486Y-20739482D01*
X9270486Y-20739482D02*
X9260962Y-20720435D01*
X9260962Y-20720435D02*
X9251439Y-20682339D01*
X9251439Y-20682339D02*
X9251439Y-20634720D01*
X9251439Y-20634720D02*
X9260962Y-20596625D01*
X9260962Y-20596625D02*
X9270486Y-20577577D01*
X9270486Y-20577577D02*
X9280010Y-20568054D01*
X9280010Y-20568054D02*
X9299058Y-20558530D01*
X9537153Y-20558530D02*
X9499058Y-20558530D01*
X9499058Y-20558530D02*
X9480010Y-20568054D01*
X9480010Y-20568054D02*
X9470486Y-20577577D01*
X9470486Y-20577577D02*
X9451439Y-20606149D01*
X9451439Y-20606149D02*
X9441915Y-20644244D01*
X9441915Y-20644244D02*
X9441915Y-20720435D01*
X9441915Y-20720435D02*
X9451439Y-20739482D01*
X9451439Y-20739482D02*
X9460962Y-20749006D01*
X9460962Y-20749006D02*
X9480010Y-20758530D01*
X9480010Y-20758530D02*
X9518105Y-20758530D01*
X9518105Y-20758530D02*
X9537153Y-20749006D01*
X9537153Y-20749006D02*
X9546677Y-20739482D01*
X9546677Y-20739482D02*
X9556201Y-20720435D01*
X9556201Y-20720435D02*
X9556201Y-20672816D01*
X9556201Y-20672816D02*
X9546677Y-20653768D01*
X9546677Y-20653768D02*
X9537153Y-20644244D01*
X9537153Y-20644244D02*
X9518105Y-20634720D01*
X9518105Y-20634720D02*
X9480010Y-20634720D01*
X9480010Y-20634720D02*
X9460962Y-20644244D01*
X9460962Y-20644244D02*
X9451439Y-20653768D01*
X9451439Y-20653768D02*
X9441915Y-20672816D01*
X9622867Y-20558530D02*
X9756201Y-20558530D01*
X9756201Y-20558530D02*
X9670486Y-20758530D01*
X9870486Y-20558530D02*
X9889534Y-20558530D01*
X9889534Y-20558530D02*
X9908582Y-20568054D01*
X9908582Y-20568054D02*
X9918105Y-20577577D01*
X9918105Y-20577577D02*
X9927629Y-20596625D01*
X9927629Y-20596625D02*
X9937153Y-20634720D01*
X9937153Y-20634720D02*
X9937153Y-20682339D01*
X9937153Y-20682339D02*
X9927629Y-20720435D01*
X9927629Y-20720435D02*
X9918105Y-20739482D01*
X9918105Y-20739482D02*
X9908582Y-20749006D01*
X9908582Y-20749006D02*
X9889534Y-20758530D01*
X9889534Y-20758530D02*
X9870486Y-20758530D01*
X9870486Y-20758530D02*
X9851439Y-20749006D01*
X9851439Y-20749006D02*
X9841915Y-20739482D01*
X9841915Y-20739482D02*
X9832391Y-20720435D01*
X9832391Y-20720435D02*
X9822867Y-20682339D01*
X9822867Y-20682339D02*
X9822867Y-20634720D01*
X9822867Y-20634720D02*
X9832391Y-20596625D01*
X9832391Y-20596625D02*
X9841915Y-20577577D01*
X9841915Y-20577577D02*
X9851439Y-20568054D01*
X9851439Y-20568054D02*
X9870486Y-20558530D01*
X10013343Y-20558530D02*
X10013343Y-20596625D01*
X10089534Y-20558530D02*
X10089534Y-20596625D01*
X10384772Y-20834720D02*
X10375248Y-20825196D01*
X10375248Y-20825196D02*
X10356201Y-20796625D01*
X10356201Y-20796625D02*
X10346677Y-20777577D01*
X10346677Y-20777577D02*
X10337153Y-20749006D01*
X10337153Y-20749006D02*
X10327629Y-20701387D01*
X10327629Y-20701387D02*
X10327629Y-20663292D01*
X10327629Y-20663292D02*
X10337153Y-20615673D01*
X10337153Y-20615673D02*
X10346677Y-20587101D01*
X10346677Y-20587101D02*
X10356201Y-20568054D01*
X10356201Y-20568054D02*
X10375248Y-20539482D01*
X10375248Y-20539482D02*
X10384772Y-20529958D01*
X10489534Y-20644244D02*
X10470486Y-20634720D01*
X10470486Y-20634720D02*
X10460963Y-20625196D01*
X10460963Y-20625196D02*
X10451439Y-20606149D01*
X10451439Y-20606149D02*
X10451439Y-20596625D01*
X10451439Y-20596625D02*
X10460963Y-20577577D01*
X10460963Y-20577577D02*
X10470486Y-20568054D01*
X10470486Y-20568054D02*
X10489534Y-20558530D01*
X10489534Y-20558530D02*
X10527629Y-20558530D01*
X10527629Y-20558530D02*
X10546677Y-20568054D01*
X10546677Y-20568054D02*
X10556201Y-20577577D01*
X10556201Y-20577577D02*
X10565724Y-20596625D01*
X10565724Y-20596625D02*
X10565724Y-20606149D01*
X10565724Y-20606149D02*
X10556201Y-20625196D01*
X10556201Y-20625196D02*
X10546677Y-20634720D01*
X10546677Y-20634720D02*
X10527629Y-20644244D01*
X10527629Y-20644244D02*
X10489534Y-20644244D01*
X10489534Y-20644244D02*
X10470486Y-20653768D01*
X10470486Y-20653768D02*
X10460963Y-20663292D01*
X10460963Y-20663292D02*
X10451439Y-20682339D01*
X10451439Y-20682339D02*
X10451439Y-20720435D01*
X10451439Y-20720435D02*
X10460963Y-20739482D01*
X10460963Y-20739482D02*
X10470486Y-20749006D01*
X10470486Y-20749006D02*
X10489534Y-20758530D01*
X10489534Y-20758530D02*
X10527629Y-20758530D01*
X10527629Y-20758530D02*
X10546677Y-20749006D01*
X10546677Y-20749006D02*
X10556201Y-20739482D01*
X10556201Y-20739482D02*
X10565724Y-20720435D01*
X10565724Y-20720435D02*
X10565724Y-20682339D01*
X10565724Y-20682339D02*
X10556201Y-20663292D01*
X10556201Y-20663292D02*
X10546677Y-20653768D01*
X10546677Y-20653768D02*
X10527629Y-20644244D01*
X10737153Y-20625196D02*
X10737153Y-20758530D01*
X10689534Y-20549006D02*
X10641915Y-20691863D01*
X10641915Y-20691863D02*
X10765724Y-20691863D01*
X10994296Y-20758530D02*
X10994296Y-20558530D01*
X11080010Y-20758530D02*
X11080010Y-20653768D01*
X11080010Y-20653768D02*
X11070486Y-20634720D01*
X11070486Y-20634720D02*
X11051439Y-20625196D01*
X11051439Y-20625196D02*
X11022867Y-20625196D01*
X11022867Y-20625196D02*
X11003820Y-20634720D01*
X11003820Y-20634720D02*
X10994296Y-20644244D01*
X11203820Y-20758530D02*
X11184772Y-20749006D01*
X11184772Y-20749006D02*
X11175248Y-20739482D01*
X11175248Y-20739482D02*
X11165725Y-20720435D01*
X11165725Y-20720435D02*
X11165725Y-20663292D01*
X11165725Y-20663292D02*
X11175248Y-20644244D01*
X11175248Y-20644244D02*
X11184772Y-20634720D01*
X11184772Y-20634720D02*
X11203820Y-20625196D01*
X11203820Y-20625196D02*
X11232391Y-20625196D01*
X11232391Y-20625196D02*
X11251439Y-20634720D01*
X11251439Y-20634720D02*
X11260963Y-20644244D01*
X11260963Y-20644244D02*
X11270486Y-20663292D01*
X11270486Y-20663292D02*
X11270486Y-20720435D01*
X11270486Y-20720435D02*
X11260963Y-20739482D01*
X11260963Y-20739482D02*
X11251439Y-20749006D01*
X11251439Y-20749006D02*
X11232391Y-20758530D01*
X11232391Y-20758530D02*
X11203820Y-20758530D01*
X11384772Y-20758530D02*
X11365724Y-20749006D01*
X11365724Y-20749006D02*
X11356201Y-20729958D01*
X11356201Y-20729958D02*
X11356201Y-20558530D01*
X11537153Y-20749006D02*
X11518105Y-20758530D01*
X11518105Y-20758530D02*
X11480010Y-20758530D01*
X11480010Y-20758530D02*
X11460963Y-20749006D01*
X11460963Y-20749006D02*
X11451439Y-20729958D01*
X11451439Y-20729958D02*
X11451439Y-20653768D01*
X11451439Y-20653768D02*
X11460963Y-20634720D01*
X11460963Y-20634720D02*
X11480010Y-20625196D01*
X11480010Y-20625196D02*
X11518105Y-20625196D01*
X11518105Y-20625196D02*
X11537153Y-20634720D01*
X11537153Y-20634720D02*
X11546677Y-20653768D01*
X11546677Y-20653768D02*
X11546677Y-20672816D01*
X11546677Y-20672816D02*
X11451439Y-20691863D01*
X11622867Y-20749006D02*
X11641915Y-20758530D01*
X11641915Y-20758530D02*
X11680010Y-20758530D01*
X11680010Y-20758530D02*
X11699058Y-20749006D01*
X11699058Y-20749006D02*
X11708582Y-20729958D01*
X11708582Y-20729958D02*
X11708582Y-20720435D01*
X11708582Y-20720435D02*
X11699058Y-20701387D01*
X11699058Y-20701387D02*
X11680010Y-20691863D01*
X11680010Y-20691863D02*
X11651439Y-20691863D01*
X11651439Y-20691863D02*
X11632391Y-20682339D01*
X11632391Y-20682339D02*
X11622867Y-20663292D01*
X11622867Y-20663292D02*
X11622867Y-20653768D01*
X11622867Y-20653768D02*
X11632391Y-20634720D01*
X11632391Y-20634720D02*
X11651439Y-20625196D01*
X11651439Y-20625196D02*
X11680010Y-20625196D01*
X11680010Y-20625196D02*
X11699058Y-20634720D01*
X11775248Y-20834720D02*
X11784772Y-20825196D01*
X11784772Y-20825196D02*
X11803820Y-20796625D01*
X11803820Y-20796625D02*
X11813344Y-20777577D01*
X11813344Y-20777577D02*
X11822867Y-20749006D01*
X11822867Y-20749006D02*
X11832391Y-20701387D01*
X11832391Y-20701387D02*
X11832391Y-20663292D01*
X11832391Y-20663292D02*
X11822867Y-20615673D01*
X11822867Y-20615673D02*
X11813344Y-20587101D01*
X11813344Y-20587101D02*
X11803820Y-20568054D01*
X11803820Y-20568054D02*
X11784772Y-20539482D01*
X11784772Y-20539482D02*
X11775248Y-20529958D01*
X12137153Y-20834720D02*
X12127629Y-20825196D01*
X12127629Y-20825196D02*
X12108582Y-20796625D01*
X12108582Y-20796625D02*
X12099058Y-20777577D01*
X12099058Y-20777577D02*
X12089534Y-20749006D01*
X12089534Y-20749006D02*
X12080010Y-20701387D01*
X12080010Y-20701387D02*
X12080010Y-20663292D01*
X12080010Y-20663292D02*
X12089534Y-20615673D01*
X12089534Y-20615673D02*
X12099058Y-20587101D01*
X12099058Y-20587101D02*
X12108582Y-20568054D01*
X12108582Y-20568054D02*
X12127629Y-20539482D01*
X12127629Y-20539482D02*
X12137153Y-20529958D01*
X12213344Y-20625196D02*
X12213344Y-20758530D01*
X12213344Y-20644244D02*
X12222867Y-20634720D01*
X12222867Y-20634720D02*
X12241915Y-20625196D01*
X12241915Y-20625196D02*
X12270486Y-20625196D01*
X12270486Y-20625196D02*
X12289534Y-20634720D01*
X12289534Y-20634720D02*
X12299058Y-20653768D01*
X12299058Y-20653768D02*
X12299058Y-20758530D01*
X12422867Y-20758530D02*
X12403820Y-20749006D01*
X12403820Y-20749006D02*
X12394296Y-20739482D01*
X12394296Y-20739482D02*
X12384772Y-20720435D01*
X12384772Y-20720435D02*
X12384772Y-20663292D01*
X12384772Y-20663292D02*
X12394296Y-20644244D01*
X12394296Y-20644244D02*
X12403820Y-20634720D01*
X12403820Y-20634720D02*
X12422867Y-20625196D01*
X12422867Y-20625196D02*
X12451439Y-20625196D01*
X12451439Y-20625196D02*
X12470486Y-20634720D01*
X12470486Y-20634720D02*
X12480010Y-20644244D01*
X12480010Y-20644244D02*
X12489534Y-20663292D01*
X12489534Y-20663292D02*
X12489534Y-20720435D01*
X12489534Y-20720435D02*
X12480010Y-20739482D01*
X12480010Y-20739482D02*
X12470486Y-20749006D01*
X12470486Y-20749006D02*
X12451439Y-20758530D01*
X12451439Y-20758530D02*
X12422867Y-20758530D01*
X12546677Y-20625196D02*
X12622867Y-20625196D01*
X12575248Y-20558530D02*
X12575248Y-20729958D01*
X12575248Y-20729958D02*
X12584772Y-20749006D01*
X12584772Y-20749006D02*
X12603820Y-20758530D01*
X12603820Y-20758530D02*
X12622867Y-20758530D01*
X12841915Y-20625196D02*
X12841915Y-20825196D01*
X12841915Y-20634720D02*
X12860963Y-20625196D01*
X12860963Y-20625196D02*
X12899058Y-20625196D01*
X12899058Y-20625196D02*
X12918106Y-20634720D01*
X12918106Y-20634720D02*
X12927629Y-20644244D01*
X12927629Y-20644244D02*
X12937153Y-20663292D01*
X12937153Y-20663292D02*
X12937153Y-20720435D01*
X12937153Y-20720435D02*
X12927629Y-20739482D01*
X12927629Y-20739482D02*
X12918106Y-20749006D01*
X12918106Y-20749006D02*
X12899058Y-20758530D01*
X12899058Y-20758530D02*
X12860963Y-20758530D01*
X12860963Y-20758530D02*
X12841915Y-20749006D01*
X13051439Y-20758530D02*
X13032391Y-20749006D01*
X13032391Y-20749006D02*
X13022867Y-20729958D01*
X13022867Y-20729958D02*
X13022867Y-20558530D01*
X13213344Y-20758530D02*
X13213344Y-20653768D01*
X13213344Y-20653768D02*
X13203820Y-20634720D01*
X13203820Y-20634720D02*
X13184772Y-20625196D01*
X13184772Y-20625196D02*
X13146677Y-20625196D01*
X13146677Y-20625196D02*
X13127629Y-20634720D01*
X13213344Y-20749006D02*
X13194296Y-20758530D01*
X13194296Y-20758530D02*
X13146677Y-20758530D01*
X13146677Y-20758530D02*
X13127629Y-20749006D01*
X13127629Y-20749006D02*
X13118106Y-20729958D01*
X13118106Y-20729958D02*
X13118106Y-20710911D01*
X13118106Y-20710911D02*
X13127629Y-20691863D01*
X13127629Y-20691863D02*
X13146677Y-20682339D01*
X13146677Y-20682339D02*
X13194296Y-20682339D01*
X13194296Y-20682339D02*
X13213344Y-20672816D01*
X13280010Y-20625196D02*
X13356201Y-20625196D01*
X13308582Y-20558530D02*
X13308582Y-20729958D01*
X13308582Y-20729958D02*
X13318106Y-20749006D01*
X13318106Y-20749006D02*
X13337153Y-20758530D01*
X13337153Y-20758530D02*
X13356201Y-20758530D01*
X13499058Y-20749006D02*
X13480010Y-20758530D01*
X13480010Y-20758530D02*
X13441915Y-20758530D01*
X13441915Y-20758530D02*
X13422867Y-20749006D01*
X13422867Y-20749006D02*
X13413344Y-20729958D01*
X13413344Y-20729958D02*
X13413344Y-20653768D01*
X13413344Y-20653768D02*
X13422867Y-20634720D01*
X13422867Y-20634720D02*
X13441915Y-20625196D01*
X13441915Y-20625196D02*
X13480010Y-20625196D01*
X13480010Y-20625196D02*
X13499058Y-20634720D01*
X13499058Y-20634720D02*
X13508582Y-20653768D01*
X13508582Y-20653768D02*
X13508582Y-20672816D01*
X13508582Y-20672816D02*
X13413344Y-20691863D01*
X13680010Y-20758530D02*
X13680010Y-20558530D01*
X13680010Y-20749006D02*
X13660963Y-20758530D01*
X13660963Y-20758530D02*
X13622867Y-20758530D01*
X13622867Y-20758530D02*
X13603820Y-20749006D01*
X13603820Y-20749006D02*
X13594296Y-20739482D01*
X13594296Y-20739482D02*
X13584772Y-20720435D01*
X13584772Y-20720435D02*
X13584772Y-20663292D01*
X13584772Y-20663292D02*
X13594296Y-20644244D01*
X13594296Y-20644244D02*
X13603820Y-20634720D01*
X13603820Y-20634720D02*
X13622867Y-20625196D01*
X13622867Y-20625196D02*
X13660963Y-20625196D01*
X13660963Y-20625196D02*
X13680010Y-20634720D01*
X13756201Y-20834720D02*
X13765725Y-20825196D01*
X13765725Y-20825196D02*
X13784772Y-20796625D01*
X13784772Y-20796625D02*
X13794296Y-20777577D01*
X13794296Y-20777577D02*
X13803820Y-20749006D01*
X13803820Y-20749006D02*
X13813344Y-20701387D01*
X13813344Y-20701387D02*
X13813344Y-20663292D01*
X13813344Y-20663292D02*
X13803820Y-20615673D01*
X13803820Y-20615673D02*
X13794296Y-20587101D01*
X13794296Y-20587101D02*
X13784772Y-20568054D01*
X13784772Y-20568054D02*
X13765725Y-20539482D01*
X13765725Y-20539482D02*
X13756201Y-20529958D01*
X6709709Y-20857226D02*
X6709709Y-21057226D01*
X6609709Y-20957226D02*
X6809709Y-20957226D01*
X7051438Y-20848710D02*
X7175248Y-20848710D01*
X7175248Y-20848710D02*
X7108581Y-20924900D01*
X7108581Y-20924900D02*
X7137153Y-20924900D01*
X7137153Y-20924900D02*
X7156200Y-20934424D01*
X7156200Y-20934424D02*
X7165724Y-20943948D01*
X7165724Y-20943948D02*
X7175248Y-20962996D01*
X7175248Y-20962996D02*
X7175248Y-21010615D01*
X7175248Y-21010615D02*
X7165724Y-21029662D01*
X7165724Y-21029662D02*
X7156200Y-21039186D01*
X7156200Y-21039186D02*
X7137153Y-21048710D01*
X7137153Y-21048710D02*
X7080010Y-21048710D01*
X7080010Y-21048710D02*
X7060962Y-21039186D01*
X7060962Y-21039186D02*
X7051438Y-21029662D01*
X7260962Y-21029662D02*
X7270486Y-21039186D01*
X7270486Y-21039186D02*
X7260962Y-21048710D01*
X7260962Y-21048710D02*
X7251438Y-21039186D01*
X7251438Y-21039186D02*
X7260962Y-21029662D01*
X7260962Y-21029662D02*
X7260962Y-21048710D01*
X7394295Y-20848710D02*
X7413343Y-20848710D01*
X7413343Y-20848710D02*
X7432391Y-20858234D01*
X7432391Y-20858234D02*
X7441915Y-20867757D01*
X7441915Y-20867757D02*
X7451438Y-20886805D01*
X7451438Y-20886805D02*
X7460962Y-20924900D01*
X7460962Y-20924900D02*
X7460962Y-20972519D01*
X7460962Y-20972519D02*
X7451438Y-21010615D01*
X7451438Y-21010615D02*
X7441915Y-21029662D01*
X7441915Y-21029662D02*
X7432391Y-21039186D01*
X7432391Y-21039186D02*
X7413343Y-21048710D01*
X7413343Y-21048710D02*
X7394295Y-21048710D01*
X7394295Y-21048710D02*
X7375248Y-21039186D01*
X7375248Y-21039186D02*
X7365724Y-21029662D01*
X7365724Y-21029662D02*
X7356200Y-21010615D01*
X7356200Y-21010615D02*
X7346676Y-20972519D01*
X7346676Y-20972519D02*
X7346676Y-20924900D01*
X7346676Y-20924900D02*
X7356200Y-20886805D01*
X7356200Y-20886805D02*
X7365724Y-20867757D01*
X7365724Y-20867757D02*
X7375248Y-20858234D01*
X7375248Y-20858234D02*
X7394295Y-20848710D01*
X7584772Y-20848710D02*
X7603819Y-20848710D01*
X7603819Y-20848710D02*
X7622867Y-20858234D01*
X7622867Y-20858234D02*
X7632391Y-20867757D01*
X7632391Y-20867757D02*
X7641915Y-20886805D01*
X7641915Y-20886805D02*
X7651438Y-20924900D01*
X7651438Y-20924900D02*
X7651438Y-20972519D01*
X7651438Y-20972519D02*
X7641915Y-21010615D01*
X7641915Y-21010615D02*
X7632391Y-21029662D01*
X7632391Y-21029662D02*
X7622867Y-21039186D01*
X7622867Y-21039186D02*
X7603819Y-21048710D01*
X7603819Y-21048710D02*
X7584772Y-21048710D01*
X7584772Y-21048710D02*
X7565724Y-21039186D01*
X7565724Y-21039186D02*
X7556200Y-21029662D01*
X7556200Y-21029662D02*
X7546676Y-21010615D01*
X7546676Y-21010615D02*
X7537153Y-20972519D01*
X7537153Y-20972519D02*
X7537153Y-20924900D01*
X7537153Y-20924900D02*
X7546676Y-20886805D01*
X7546676Y-20886805D02*
X7556200Y-20867757D01*
X7556200Y-20867757D02*
X7565724Y-20858234D01*
X7565724Y-20858234D02*
X7584772Y-20848710D01*
X7775248Y-20848710D02*
X7794296Y-20848710D01*
X7794296Y-20848710D02*
X7813343Y-20858234D01*
X7813343Y-20858234D02*
X7822867Y-20867757D01*
X7822867Y-20867757D02*
X7832391Y-20886805D01*
X7832391Y-20886805D02*
X7841915Y-20924900D01*
X7841915Y-20924900D02*
X7841915Y-20972519D01*
X7841915Y-20972519D02*
X7832391Y-21010615D01*
X7832391Y-21010615D02*
X7822867Y-21029662D01*
X7822867Y-21029662D02*
X7813343Y-21039186D01*
X7813343Y-21039186D02*
X7794296Y-21048710D01*
X7794296Y-21048710D02*
X7775248Y-21048710D01*
X7775248Y-21048710D02*
X7756200Y-21039186D01*
X7756200Y-21039186D02*
X7746676Y-21029662D01*
X7746676Y-21029662D02*
X7737153Y-21010615D01*
X7737153Y-21010615D02*
X7727629Y-20972519D01*
X7727629Y-20972519D02*
X7727629Y-20924900D01*
X7727629Y-20924900D02*
X7737153Y-20886805D01*
X7737153Y-20886805D02*
X7746676Y-20867757D01*
X7746676Y-20867757D02*
X7756200Y-20858234D01*
X7756200Y-20858234D02*
X7775248Y-20848710D01*
X7927629Y-21048710D02*
X7927629Y-20915376D01*
X7927629Y-20934424D02*
X7937153Y-20924900D01*
X7937153Y-20924900D02*
X7956200Y-20915376D01*
X7956200Y-20915376D02*
X7984772Y-20915376D01*
X7984772Y-20915376D02*
X8003819Y-20924900D01*
X8003819Y-20924900D02*
X8013343Y-20943948D01*
X8013343Y-20943948D02*
X8013343Y-21048710D01*
X8013343Y-20943948D02*
X8022867Y-20924900D01*
X8022867Y-20924900D02*
X8041915Y-20915376D01*
X8041915Y-20915376D02*
X8070486Y-20915376D01*
X8070486Y-20915376D02*
X8089534Y-20924900D01*
X8089534Y-20924900D02*
X8099057Y-20943948D01*
X8099057Y-20943948D02*
X8099057Y-21048710D01*
X8194296Y-21048710D02*
X8194296Y-20915376D01*
X8194296Y-20934424D02*
X8203819Y-20924900D01*
X8203819Y-20924900D02*
X8222867Y-20915376D01*
X8222867Y-20915376D02*
X8251438Y-20915376D01*
X8251438Y-20915376D02*
X8270486Y-20924900D01*
X8270486Y-20924900D02*
X8280010Y-20943948D01*
X8280010Y-20943948D02*
X8280010Y-21048710D01*
X8280010Y-20943948D02*
X8289534Y-20924900D01*
X8289534Y-20924900D02*
X8308581Y-20915376D01*
X8308581Y-20915376D02*
X8337153Y-20915376D01*
X8337153Y-20915376D02*
X8356200Y-20924900D01*
X8356200Y-20924900D02*
X8365724Y-20943948D01*
X8365724Y-20943948D02*
X8365724Y-21048710D01*
X8756200Y-20839186D02*
X8584772Y-21096329D01*
X9013343Y-20848710D02*
X9032391Y-20848710D01*
X9032391Y-20848710D02*
X9051439Y-20858234D01*
X9051439Y-20858234D02*
X9060962Y-20867757D01*
X9060962Y-20867757D02*
X9070486Y-20886805D01*
X9070486Y-20886805D02*
X9080010Y-20924900D01*
X9080010Y-20924900D02*
X9080010Y-20972519D01*
X9080010Y-20972519D02*
X9070486Y-21010615D01*
X9070486Y-21010615D02*
X9060962Y-21029662D01*
X9060962Y-21029662D02*
X9051439Y-21039186D01*
X9051439Y-21039186D02*
X9032391Y-21048710D01*
X9032391Y-21048710D02*
X9013343Y-21048710D01*
X9013343Y-21048710D02*
X8994296Y-21039186D01*
X8994296Y-21039186D02*
X8984772Y-21029662D01*
X8984772Y-21029662D02*
X8975248Y-21010615D01*
X8975248Y-21010615D02*
X8965724Y-20972519D01*
X8965724Y-20972519D02*
X8965724Y-20924900D01*
X8965724Y-20924900D02*
X8975248Y-20886805D01*
X8975248Y-20886805D02*
X8984772Y-20867757D01*
X8984772Y-20867757D02*
X8994296Y-20858234D01*
X8994296Y-20858234D02*
X9013343Y-20848710D01*
X9165724Y-21029662D02*
X9175248Y-21039186D01*
X9175248Y-21039186D02*
X9165724Y-21048710D01*
X9165724Y-21048710D02*
X9156201Y-21039186D01*
X9156201Y-21039186D02*
X9165724Y-21029662D01*
X9165724Y-21029662D02*
X9165724Y-21048710D01*
X9365724Y-21048710D02*
X9251439Y-21048710D01*
X9308581Y-21048710D02*
X9308581Y-20848710D01*
X9308581Y-20848710D02*
X9289534Y-20877281D01*
X9289534Y-20877281D02*
X9270486Y-20896329D01*
X9270486Y-20896329D02*
X9251439Y-20905853D01*
X9556201Y-21048710D02*
X9441915Y-21048710D01*
X9499058Y-21048710D02*
X9499058Y-20848710D01*
X9499058Y-20848710D02*
X9480010Y-20877281D01*
X9480010Y-20877281D02*
X9460962Y-20896329D01*
X9460962Y-20896329D02*
X9441915Y-20905853D01*
X9670486Y-20934424D02*
X9651439Y-20924900D01*
X9651439Y-20924900D02*
X9641915Y-20915376D01*
X9641915Y-20915376D02*
X9632391Y-20896329D01*
X9632391Y-20896329D02*
X9632391Y-20886805D01*
X9632391Y-20886805D02*
X9641915Y-20867757D01*
X9641915Y-20867757D02*
X9651439Y-20858234D01*
X9651439Y-20858234D02*
X9670486Y-20848710D01*
X9670486Y-20848710D02*
X9708582Y-20848710D01*
X9708582Y-20848710D02*
X9727629Y-20858234D01*
X9727629Y-20858234D02*
X9737153Y-20867757D01*
X9737153Y-20867757D02*
X9746677Y-20886805D01*
X9746677Y-20886805D02*
X9746677Y-20896329D01*
X9746677Y-20896329D02*
X9737153Y-20915376D01*
X9737153Y-20915376D02*
X9727629Y-20924900D01*
X9727629Y-20924900D02*
X9708582Y-20934424D01*
X9708582Y-20934424D02*
X9670486Y-20934424D01*
X9670486Y-20934424D02*
X9651439Y-20943948D01*
X9651439Y-20943948D02*
X9641915Y-20953472D01*
X9641915Y-20953472D02*
X9632391Y-20972519D01*
X9632391Y-20972519D02*
X9632391Y-21010615D01*
X9632391Y-21010615D02*
X9641915Y-21029662D01*
X9641915Y-21029662D02*
X9651439Y-21039186D01*
X9651439Y-21039186D02*
X9670486Y-21048710D01*
X9670486Y-21048710D02*
X9708582Y-21048710D01*
X9708582Y-21048710D02*
X9727629Y-21039186D01*
X9727629Y-21039186D02*
X9737153Y-21029662D01*
X9737153Y-21029662D02*
X9746677Y-21010615D01*
X9746677Y-21010615D02*
X9746677Y-20972519D01*
X9746677Y-20972519D02*
X9737153Y-20953472D01*
X9737153Y-20953472D02*
X9727629Y-20943948D01*
X9727629Y-20943948D02*
X9708582Y-20934424D01*
X9937153Y-21048710D02*
X9822867Y-21048710D01*
X9880010Y-21048710D02*
X9880010Y-20848710D01*
X9880010Y-20848710D02*
X9860962Y-20877281D01*
X9860962Y-20877281D02*
X9841915Y-20896329D01*
X9841915Y-20896329D02*
X9822867Y-20905853D01*
X10013343Y-20848710D02*
X10013343Y-20886805D01*
X10089534Y-20848710D02*
X10089534Y-20886805D01*
X10384772Y-21124900D02*
X10375248Y-21115376D01*
X10375248Y-21115376D02*
X10356201Y-21086805D01*
X10356201Y-21086805D02*
X10346677Y-21067757D01*
X10346677Y-21067757D02*
X10337153Y-21039186D01*
X10337153Y-21039186D02*
X10327629Y-20991567D01*
X10327629Y-20991567D02*
X10327629Y-20953472D01*
X10327629Y-20953472D02*
X10337153Y-20905853D01*
X10337153Y-20905853D02*
X10346677Y-20877281D01*
X10346677Y-20877281D02*
X10356201Y-20858234D01*
X10356201Y-20858234D02*
X10375248Y-20829662D01*
X10375248Y-20829662D02*
X10384772Y-20820138D01*
X10489534Y-20934424D02*
X10470486Y-20924900D01*
X10470486Y-20924900D02*
X10460963Y-20915376D01*
X10460963Y-20915376D02*
X10451439Y-20896329D01*
X10451439Y-20896329D02*
X10451439Y-20886805D01*
X10451439Y-20886805D02*
X10460963Y-20867757D01*
X10460963Y-20867757D02*
X10470486Y-20858234D01*
X10470486Y-20858234D02*
X10489534Y-20848710D01*
X10489534Y-20848710D02*
X10527629Y-20848710D01*
X10527629Y-20848710D02*
X10546677Y-20858234D01*
X10546677Y-20858234D02*
X10556201Y-20867757D01*
X10556201Y-20867757D02*
X10565724Y-20886805D01*
X10565724Y-20886805D02*
X10565724Y-20896329D01*
X10565724Y-20896329D02*
X10556201Y-20915376D01*
X10556201Y-20915376D02*
X10546677Y-20924900D01*
X10546677Y-20924900D02*
X10527629Y-20934424D01*
X10527629Y-20934424D02*
X10489534Y-20934424D01*
X10489534Y-20934424D02*
X10470486Y-20943948D01*
X10470486Y-20943948D02*
X10460963Y-20953472D01*
X10460963Y-20953472D02*
X10451439Y-20972519D01*
X10451439Y-20972519D02*
X10451439Y-21010615D01*
X10451439Y-21010615D02*
X10460963Y-21029662D01*
X10460963Y-21029662D02*
X10470486Y-21039186D01*
X10470486Y-21039186D02*
X10489534Y-21048710D01*
X10489534Y-21048710D02*
X10527629Y-21048710D01*
X10527629Y-21048710D02*
X10546677Y-21039186D01*
X10546677Y-21039186D02*
X10556201Y-21029662D01*
X10556201Y-21029662D02*
X10565724Y-21010615D01*
X10565724Y-21010615D02*
X10565724Y-20972519D01*
X10565724Y-20972519D02*
X10556201Y-20953472D01*
X10556201Y-20953472D02*
X10546677Y-20943948D01*
X10546677Y-20943948D02*
X10527629Y-20934424D01*
X10737153Y-20915376D02*
X10737153Y-21048710D01*
X10689534Y-20839186D02*
X10641915Y-20982043D01*
X10641915Y-20982043D02*
X10765724Y-20982043D01*
X10994296Y-21048710D02*
X10994296Y-20848710D01*
X11080010Y-21048710D02*
X11080010Y-20943948D01*
X11080010Y-20943948D02*
X11070486Y-20924900D01*
X11070486Y-20924900D02*
X11051439Y-20915376D01*
X11051439Y-20915376D02*
X11022867Y-20915376D01*
X11022867Y-20915376D02*
X11003820Y-20924900D01*
X11003820Y-20924900D02*
X10994296Y-20934424D01*
X11203820Y-21048710D02*
X11184772Y-21039186D01*
X11184772Y-21039186D02*
X11175248Y-21029662D01*
X11175248Y-21029662D02*
X11165725Y-21010615D01*
X11165725Y-21010615D02*
X11165725Y-20953472D01*
X11165725Y-20953472D02*
X11175248Y-20934424D01*
X11175248Y-20934424D02*
X11184772Y-20924900D01*
X11184772Y-20924900D02*
X11203820Y-20915376D01*
X11203820Y-20915376D02*
X11232391Y-20915376D01*
X11232391Y-20915376D02*
X11251439Y-20924900D01*
X11251439Y-20924900D02*
X11260963Y-20934424D01*
X11260963Y-20934424D02*
X11270486Y-20953472D01*
X11270486Y-20953472D02*
X11270486Y-21010615D01*
X11270486Y-21010615D02*
X11260963Y-21029662D01*
X11260963Y-21029662D02*
X11251439Y-21039186D01*
X11251439Y-21039186D02*
X11232391Y-21048710D01*
X11232391Y-21048710D02*
X11203820Y-21048710D01*
X11384772Y-21048710D02*
X11365724Y-21039186D01*
X11365724Y-21039186D02*
X11356201Y-21020138D01*
X11356201Y-21020138D02*
X11356201Y-20848710D01*
X11537153Y-21039186D02*
X11518105Y-21048710D01*
X11518105Y-21048710D02*
X11480010Y-21048710D01*
X11480010Y-21048710D02*
X11460963Y-21039186D01*
X11460963Y-21039186D02*
X11451439Y-21020138D01*
X11451439Y-21020138D02*
X11451439Y-20943948D01*
X11451439Y-20943948D02*
X11460963Y-20924900D01*
X11460963Y-20924900D02*
X11480010Y-20915376D01*
X11480010Y-20915376D02*
X11518105Y-20915376D01*
X11518105Y-20915376D02*
X11537153Y-20924900D01*
X11537153Y-20924900D02*
X11546677Y-20943948D01*
X11546677Y-20943948D02*
X11546677Y-20962996D01*
X11546677Y-20962996D02*
X11451439Y-20982043D01*
X11622867Y-21039186D02*
X11641915Y-21048710D01*
X11641915Y-21048710D02*
X11680010Y-21048710D01*
X11680010Y-21048710D02*
X11699058Y-21039186D01*
X11699058Y-21039186D02*
X11708582Y-21020138D01*
X11708582Y-21020138D02*
X11708582Y-21010615D01*
X11708582Y-21010615D02*
X11699058Y-20991567D01*
X11699058Y-20991567D02*
X11680010Y-20982043D01*
X11680010Y-20982043D02*
X11651439Y-20982043D01*
X11651439Y-20982043D02*
X11632391Y-20972519D01*
X11632391Y-20972519D02*
X11622867Y-20953472D01*
X11622867Y-20953472D02*
X11622867Y-20943948D01*
X11622867Y-20943948D02*
X11632391Y-20924900D01*
X11632391Y-20924900D02*
X11651439Y-20915376D01*
X11651439Y-20915376D02*
X11680010Y-20915376D01*
X11680010Y-20915376D02*
X11699058Y-20924900D01*
X11775248Y-21124900D02*
X11784772Y-21115376D01*
X11784772Y-21115376D02*
X11803820Y-21086805D01*
X11803820Y-21086805D02*
X11813344Y-21067757D01*
X11813344Y-21067757D02*
X11822867Y-21039186D01*
X11822867Y-21039186D02*
X11832391Y-20991567D01*
X11832391Y-20991567D02*
X11832391Y-20953472D01*
X11832391Y-20953472D02*
X11822867Y-20905853D01*
X11822867Y-20905853D02*
X11813344Y-20877281D01*
X11813344Y-20877281D02*
X11803820Y-20858234D01*
X11803820Y-20858234D02*
X11784772Y-20829662D01*
X11784772Y-20829662D02*
X11775248Y-20820138D01*
X12137153Y-21124900D02*
X12127629Y-21115376D01*
X12127629Y-21115376D02*
X12108582Y-21086805D01*
X12108582Y-21086805D02*
X12099058Y-21067757D01*
X12099058Y-21067757D02*
X12089534Y-21039186D01*
X12089534Y-21039186D02*
X12080010Y-20991567D01*
X12080010Y-20991567D02*
X12080010Y-20953472D01*
X12080010Y-20953472D02*
X12089534Y-20905853D01*
X12089534Y-20905853D02*
X12099058Y-20877281D01*
X12099058Y-20877281D02*
X12108582Y-20858234D01*
X12108582Y-20858234D02*
X12127629Y-20829662D01*
X12127629Y-20829662D02*
X12137153Y-20820138D01*
X12213344Y-20915376D02*
X12213344Y-21048710D01*
X12213344Y-20934424D02*
X12222867Y-20924900D01*
X12222867Y-20924900D02*
X12241915Y-20915376D01*
X12241915Y-20915376D02*
X12270486Y-20915376D01*
X12270486Y-20915376D02*
X12289534Y-20924900D01*
X12289534Y-20924900D02*
X12299058Y-20943948D01*
X12299058Y-20943948D02*
X12299058Y-21048710D01*
X12422867Y-21048710D02*
X12403820Y-21039186D01*
X12403820Y-21039186D02*
X12394296Y-21029662D01*
X12394296Y-21029662D02*
X12384772Y-21010615D01*
X12384772Y-21010615D02*
X12384772Y-20953472D01*
X12384772Y-20953472D02*
X12394296Y-20934424D01*
X12394296Y-20934424D02*
X12403820Y-20924900D01*
X12403820Y-20924900D02*
X12422867Y-20915376D01*
X12422867Y-20915376D02*
X12451439Y-20915376D01*
X12451439Y-20915376D02*
X12470486Y-20924900D01*
X12470486Y-20924900D02*
X12480010Y-20934424D01*
X12480010Y-20934424D02*
X12489534Y-20953472D01*
X12489534Y-20953472D02*
X12489534Y-21010615D01*
X12489534Y-21010615D02*
X12480010Y-21029662D01*
X12480010Y-21029662D02*
X12470486Y-21039186D01*
X12470486Y-21039186D02*
X12451439Y-21048710D01*
X12451439Y-21048710D02*
X12422867Y-21048710D01*
X12546677Y-20915376D02*
X12622867Y-20915376D01*
X12575248Y-20848710D02*
X12575248Y-21020138D01*
X12575248Y-21020138D02*
X12584772Y-21039186D01*
X12584772Y-21039186D02*
X12603820Y-21048710D01*
X12603820Y-21048710D02*
X12622867Y-21048710D01*
X12841915Y-20915376D02*
X12841915Y-21115376D01*
X12841915Y-20924900D02*
X12860963Y-20915376D01*
X12860963Y-20915376D02*
X12899058Y-20915376D01*
X12899058Y-20915376D02*
X12918106Y-20924900D01*
X12918106Y-20924900D02*
X12927629Y-20934424D01*
X12927629Y-20934424D02*
X12937153Y-20953472D01*
X12937153Y-20953472D02*
X12937153Y-21010615D01*
X12937153Y-21010615D02*
X12927629Y-21029662D01*
X12927629Y-21029662D02*
X12918106Y-21039186D01*
X12918106Y-21039186D02*
X12899058Y-21048710D01*
X12899058Y-21048710D02*
X12860963Y-21048710D01*
X12860963Y-21048710D02*
X12841915Y-21039186D01*
X13051439Y-21048710D02*
X13032391Y-21039186D01*
X13032391Y-21039186D02*
X13022867Y-21020138D01*
X13022867Y-21020138D02*
X13022867Y-20848710D01*
X13213344Y-21048710D02*
X13213344Y-20943948D01*
X13213344Y-20943948D02*
X13203820Y-20924900D01*
X13203820Y-20924900D02*
X13184772Y-20915376D01*
X13184772Y-20915376D02*
X13146677Y-20915376D01*
X13146677Y-20915376D02*
X13127629Y-20924900D01*
X13213344Y-21039186D02*
X13194296Y-21048710D01*
X13194296Y-21048710D02*
X13146677Y-21048710D01*
X13146677Y-21048710D02*
X13127629Y-21039186D01*
X13127629Y-21039186D02*
X13118106Y-21020138D01*
X13118106Y-21020138D02*
X13118106Y-21001091D01*
X13118106Y-21001091D02*
X13127629Y-20982043D01*
X13127629Y-20982043D02*
X13146677Y-20972519D01*
X13146677Y-20972519D02*
X13194296Y-20972519D01*
X13194296Y-20972519D02*
X13213344Y-20962996D01*
X13280010Y-20915376D02*
X13356201Y-20915376D01*
X13308582Y-20848710D02*
X13308582Y-21020138D01*
X13308582Y-21020138D02*
X13318106Y-21039186D01*
X13318106Y-21039186D02*
X13337153Y-21048710D01*
X13337153Y-21048710D02*
X13356201Y-21048710D01*
X13499058Y-21039186D02*
X13480010Y-21048710D01*
X13480010Y-21048710D02*
X13441915Y-21048710D01*
X13441915Y-21048710D02*
X13422867Y-21039186D01*
X13422867Y-21039186D02*
X13413344Y-21020138D01*
X13413344Y-21020138D02*
X13413344Y-20943948D01*
X13413344Y-20943948D02*
X13422867Y-20924900D01*
X13422867Y-20924900D02*
X13441915Y-20915376D01*
X13441915Y-20915376D02*
X13480010Y-20915376D01*
X13480010Y-20915376D02*
X13499058Y-20924900D01*
X13499058Y-20924900D02*
X13508582Y-20943948D01*
X13508582Y-20943948D02*
X13508582Y-20962996D01*
X13508582Y-20962996D02*
X13413344Y-20982043D01*
X13680010Y-21048710D02*
X13680010Y-20848710D01*
X13680010Y-21039186D02*
X13660963Y-21048710D01*
X13660963Y-21048710D02*
X13622867Y-21048710D01*
X13622867Y-21048710D02*
X13603820Y-21039186D01*
X13603820Y-21039186D02*
X13594296Y-21029662D01*
X13594296Y-21029662D02*
X13584772Y-21010615D01*
X13584772Y-21010615D02*
X13584772Y-20953472D01*
X13584772Y-20953472D02*
X13594296Y-20934424D01*
X13594296Y-20934424D02*
X13603820Y-20924900D01*
X13603820Y-20924900D02*
X13622867Y-20915376D01*
X13622867Y-20915376D02*
X13660963Y-20915376D01*
X13660963Y-20915376D02*
X13680010Y-20924900D01*
X13756201Y-21124900D02*
X13765725Y-21115376D01*
X13765725Y-21115376D02*
X13784772Y-21086805D01*
X13784772Y-21086805D02*
X13794296Y-21067757D01*
X13794296Y-21067757D02*
X13803820Y-21039186D01*
X13803820Y-21039186D02*
X13813344Y-20991567D01*
X13813344Y-20991567D02*
X13813344Y-20953472D01*
X13813344Y-20953472D02*
X13803820Y-20905853D01*
X13803820Y-20905853D02*
X13794296Y-20877281D01*
X13794296Y-20877281D02*
X13784772Y-20858234D01*
X13784772Y-20858234D02*
X13765725Y-20829662D01*
X13765725Y-20829662D02*
X13756201Y-20820138D01*
X6780421Y-21347937D02*
X6780421Y-21206515D01*
X6638998Y-21206515D01*
X6638998Y-21347937D01*
X6780421Y-21347937D01*
X7165724Y-21168710D02*
X7070486Y-21168710D01*
X7070486Y-21168710D02*
X7060962Y-21263948D01*
X7060962Y-21263948D02*
X7070486Y-21254424D01*
X7070486Y-21254424D02*
X7089534Y-21244900D01*
X7089534Y-21244900D02*
X7137153Y-21244900D01*
X7137153Y-21244900D02*
X7156200Y-21254424D01*
X7156200Y-21254424D02*
X7165724Y-21263948D01*
X7165724Y-21263948D02*
X7175248Y-21282996D01*
X7175248Y-21282996D02*
X7175248Y-21330615D01*
X7175248Y-21330615D02*
X7165724Y-21349662D01*
X7165724Y-21349662D02*
X7156200Y-21359186D01*
X7156200Y-21359186D02*
X7137153Y-21368710D01*
X7137153Y-21368710D02*
X7089534Y-21368710D01*
X7089534Y-21368710D02*
X7070486Y-21359186D01*
X7070486Y-21359186D02*
X7060962Y-21349662D01*
X7260962Y-21349662D02*
X7270486Y-21359186D01*
X7270486Y-21359186D02*
X7260962Y-21368710D01*
X7260962Y-21368710D02*
X7251438Y-21359186D01*
X7251438Y-21359186D02*
X7260962Y-21349662D01*
X7260962Y-21349662D02*
X7260962Y-21368710D01*
X7394295Y-21168710D02*
X7413343Y-21168710D01*
X7413343Y-21168710D02*
X7432391Y-21178234D01*
X7432391Y-21178234D02*
X7441915Y-21187757D01*
X7441915Y-21187757D02*
X7451438Y-21206805D01*
X7451438Y-21206805D02*
X7460962Y-21244900D01*
X7460962Y-21244900D02*
X7460962Y-21292519D01*
X7460962Y-21292519D02*
X7451438Y-21330615D01*
X7451438Y-21330615D02*
X7441915Y-21349662D01*
X7441915Y-21349662D02*
X7432391Y-21359186D01*
X7432391Y-21359186D02*
X7413343Y-21368710D01*
X7413343Y-21368710D02*
X7394295Y-21368710D01*
X7394295Y-21368710D02*
X7375248Y-21359186D01*
X7375248Y-21359186D02*
X7365724Y-21349662D01*
X7365724Y-21349662D02*
X7356200Y-21330615D01*
X7356200Y-21330615D02*
X7346676Y-21292519D01*
X7346676Y-21292519D02*
X7346676Y-21244900D01*
X7346676Y-21244900D02*
X7356200Y-21206805D01*
X7356200Y-21206805D02*
X7365724Y-21187757D01*
X7365724Y-21187757D02*
X7375248Y-21178234D01*
X7375248Y-21178234D02*
X7394295Y-21168710D01*
X7641915Y-21168710D02*
X7546676Y-21168710D01*
X7546676Y-21168710D02*
X7537153Y-21263948D01*
X7537153Y-21263948D02*
X7546676Y-21254424D01*
X7546676Y-21254424D02*
X7565724Y-21244900D01*
X7565724Y-21244900D02*
X7613343Y-21244900D01*
X7613343Y-21244900D02*
X7632391Y-21254424D01*
X7632391Y-21254424D02*
X7641915Y-21263948D01*
X7641915Y-21263948D02*
X7651438Y-21282996D01*
X7651438Y-21282996D02*
X7651438Y-21330615D01*
X7651438Y-21330615D02*
X7641915Y-21349662D01*
X7641915Y-21349662D02*
X7632391Y-21359186D01*
X7632391Y-21359186D02*
X7613343Y-21368710D01*
X7613343Y-21368710D02*
X7565724Y-21368710D01*
X7565724Y-21368710D02*
X7546676Y-21359186D01*
X7546676Y-21359186D02*
X7537153Y-21349662D01*
X7775248Y-21168710D02*
X7794296Y-21168710D01*
X7794296Y-21168710D02*
X7813343Y-21178234D01*
X7813343Y-21178234D02*
X7822867Y-21187757D01*
X7822867Y-21187757D02*
X7832391Y-21206805D01*
X7832391Y-21206805D02*
X7841915Y-21244900D01*
X7841915Y-21244900D02*
X7841915Y-21292519D01*
X7841915Y-21292519D02*
X7832391Y-21330615D01*
X7832391Y-21330615D02*
X7822867Y-21349662D01*
X7822867Y-21349662D02*
X7813343Y-21359186D01*
X7813343Y-21359186D02*
X7794296Y-21368710D01*
X7794296Y-21368710D02*
X7775248Y-21368710D01*
X7775248Y-21368710D02*
X7756200Y-21359186D01*
X7756200Y-21359186D02*
X7746676Y-21349662D01*
X7746676Y-21349662D02*
X7737153Y-21330615D01*
X7737153Y-21330615D02*
X7727629Y-21292519D01*
X7727629Y-21292519D02*
X7727629Y-21244900D01*
X7727629Y-21244900D02*
X7737153Y-21206805D01*
X7737153Y-21206805D02*
X7746676Y-21187757D01*
X7746676Y-21187757D02*
X7756200Y-21178234D01*
X7756200Y-21178234D02*
X7775248Y-21168710D01*
X7927629Y-21368710D02*
X7927629Y-21235376D01*
X7927629Y-21254424D02*
X7937153Y-21244900D01*
X7937153Y-21244900D02*
X7956200Y-21235376D01*
X7956200Y-21235376D02*
X7984772Y-21235376D01*
X7984772Y-21235376D02*
X8003819Y-21244900D01*
X8003819Y-21244900D02*
X8013343Y-21263948D01*
X8013343Y-21263948D02*
X8013343Y-21368710D01*
X8013343Y-21263948D02*
X8022867Y-21244900D01*
X8022867Y-21244900D02*
X8041915Y-21235376D01*
X8041915Y-21235376D02*
X8070486Y-21235376D01*
X8070486Y-21235376D02*
X8089534Y-21244900D01*
X8089534Y-21244900D02*
X8099057Y-21263948D01*
X8099057Y-21263948D02*
X8099057Y-21368710D01*
X8194296Y-21368710D02*
X8194296Y-21235376D01*
X8194296Y-21254424D02*
X8203819Y-21244900D01*
X8203819Y-21244900D02*
X8222867Y-21235376D01*
X8222867Y-21235376D02*
X8251438Y-21235376D01*
X8251438Y-21235376D02*
X8270486Y-21244900D01*
X8270486Y-21244900D02*
X8280010Y-21263948D01*
X8280010Y-21263948D02*
X8280010Y-21368710D01*
X8280010Y-21263948D02*
X8289534Y-21244900D01*
X8289534Y-21244900D02*
X8308581Y-21235376D01*
X8308581Y-21235376D02*
X8337153Y-21235376D01*
X8337153Y-21235376D02*
X8356200Y-21244900D01*
X8356200Y-21244900D02*
X8365724Y-21263948D01*
X8365724Y-21263948D02*
X8365724Y-21368710D01*
X8756200Y-21159186D02*
X8584772Y-21416329D01*
X9013343Y-21168710D02*
X9032391Y-21168710D01*
X9032391Y-21168710D02*
X9051439Y-21178234D01*
X9051439Y-21178234D02*
X9060962Y-21187757D01*
X9060962Y-21187757D02*
X9070486Y-21206805D01*
X9070486Y-21206805D02*
X9080010Y-21244900D01*
X9080010Y-21244900D02*
X9080010Y-21292519D01*
X9080010Y-21292519D02*
X9070486Y-21330615D01*
X9070486Y-21330615D02*
X9060962Y-21349662D01*
X9060962Y-21349662D02*
X9051439Y-21359186D01*
X9051439Y-21359186D02*
X9032391Y-21368710D01*
X9032391Y-21368710D02*
X9013343Y-21368710D01*
X9013343Y-21368710D02*
X8994296Y-21359186D01*
X8994296Y-21359186D02*
X8984772Y-21349662D01*
X8984772Y-21349662D02*
X8975248Y-21330615D01*
X8975248Y-21330615D02*
X8965724Y-21292519D01*
X8965724Y-21292519D02*
X8965724Y-21244900D01*
X8965724Y-21244900D02*
X8975248Y-21206805D01*
X8975248Y-21206805D02*
X8984772Y-21187757D01*
X8984772Y-21187757D02*
X8994296Y-21178234D01*
X8994296Y-21178234D02*
X9013343Y-21168710D01*
X9165724Y-21349662D02*
X9175248Y-21359186D01*
X9175248Y-21359186D02*
X9165724Y-21368710D01*
X9165724Y-21368710D02*
X9156201Y-21359186D01*
X9156201Y-21359186D02*
X9165724Y-21349662D01*
X9165724Y-21349662D02*
X9165724Y-21368710D01*
X9365724Y-21368710D02*
X9251439Y-21368710D01*
X9308581Y-21368710D02*
X9308581Y-21168710D01*
X9308581Y-21168710D02*
X9289534Y-21197281D01*
X9289534Y-21197281D02*
X9270486Y-21216329D01*
X9270486Y-21216329D02*
X9251439Y-21225853D01*
X9460962Y-21368710D02*
X9499058Y-21368710D01*
X9499058Y-21368710D02*
X9518105Y-21359186D01*
X9518105Y-21359186D02*
X9527629Y-21349662D01*
X9527629Y-21349662D02*
X9546677Y-21321091D01*
X9546677Y-21321091D02*
X9556201Y-21282996D01*
X9556201Y-21282996D02*
X9556201Y-21206805D01*
X9556201Y-21206805D02*
X9546677Y-21187757D01*
X9546677Y-21187757D02*
X9537153Y-21178234D01*
X9537153Y-21178234D02*
X9518105Y-21168710D01*
X9518105Y-21168710D02*
X9480010Y-21168710D01*
X9480010Y-21168710D02*
X9460962Y-21178234D01*
X9460962Y-21178234D02*
X9451439Y-21187757D01*
X9451439Y-21187757D02*
X9441915Y-21206805D01*
X9441915Y-21206805D02*
X9441915Y-21254424D01*
X9441915Y-21254424D02*
X9451439Y-21273472D01*
X9451439Y-21273472D02*
X9460962Y-21282996D01*
X9460962Y-21282996D02*
X9480010Y-21292519D01*
X9480010Y-21292519D02*
X9518105Y-21292519D01*
X9518105Y-21292519D02*
X9537153Y-21282996D01*
X9537153Y-21282996D02*
X9546677Y-21273472D01*
X9546677Y-21273472D02*
X9556201Y-21254424D01*
X9670486Y-21254424D02*
X9651439Y-21244900D01*
X9651439Y-21244900D02*
X9641915Y-21235376D01*
X9641915Y-21235376D02*
X9632391Y-21216329D01*
X9632391Y-21216329D02*
X9632391Y-21206805D01*
X9632391Y-21206805D02*
X9641915Y-21187757D01*
X9641915Y-21187757D02*
X9651439Y-21178234D01*
X9651439Y-21178234D02*
X9670486Y-21168710D01*
X9670486Y-21168710D02*
X9708582Y-21168710D01*
X9708582Y-21168710D02*
X9727629Y-21178234D01*
X9727629Y-21178234D02*
X9737153Y-21187757D01*
X9737153Y-21187757D02*
X9746677Y-21206805D01*
X9746677Y-21206805D02*
X9746677Y-21216329D01*
X9746677Y-21216329D02*
X9737153Y-21235376D01*
X9737153Y-21235376D02*
X9727629Y-21244900D01*
X9727629Y-21244900D02*
X9708582Y-21254424D01*
X9708582Y-21254424D02*
X9670486Y-21254424D01*
X9670486Y-21254424D02*
X9651439Y-21263948D01*
X9651439Y-21263948D02*
X9641915Y-21273472D01*
X9641915Y-21273472D02*
X9632391Y-21292519D01*
X9632391Y-21292519D02*
X9632391Y-21330615D01*
X9632391Y-21330615D02*
X9641915Y-21349662D01*
X9641915Y-21349662D02*
X9651439Y-21359186D01*
X9651439Y-21359186D02*
X9670486Y-21368710D01*
X9670486Y-21368710D02*
X9708582Y-21368710D01*
X9708582Y-21368710D02*
X9727629Y-21359186D01*
X9727629Y-21359186D02*
X9737153Y-21349662D01*
X9737153Y-21349662D02*
X9746677Y-21330615D01*
X9746677Y-21330615D02*
X9746677Y-21292519D01*
X9746677Y-21292519D02*
X9737153Y-21273472D01*
X9737153Y-21273472D02*
X9727629Y-21263948D01*
X9727629Y-21263948D02*
X9708582Y-21254424D01*
X9860962Y-21254424D02*
X9841915Y-21244900D01*
X9841915Y-21244900D02*
X9832391Y-21235376D01*
X9832391Y-21235376D02*
X9822867Y-21216329D01*
X9822867Y-21216329D02*
X9822867Y-21206805D01*
X9822867Y-21206805D02*
X9832391Y-21187757D01*
X9832391Y-21187757D02*
X9841915Y-21178234D01*
X9841915Y-21178234D02*
X9860962Y-21168710D01*
X9860962Y-21168710D02*
X9899058Y-21168710D01*
X9899058Y-21168710D02*
X9918105Y-21178234D01*
X9918105Y-21178234D02*
X9927629Y-21187757D01*
X9927629Y-21187757D02*
X9937153Y-21206805D01*
X9937153Y-21206805D02*
X9937153Y-21216329D01*
X9937153Y-21216329D02*
X9927629Y-21235376D01*
X9927629Y-21235376D02*
X9918105Y-21244900D01*
X9918105Y-21244900D02*
X9899058Y-21254424D01*
X9899058Y-21254424D02*
X9860962Y-21254424D01*
X9860962Y-21254424D02*
X9841915Y-21263948D01*
X9841915Y-21263948D02*
X9832391Y-21273472D01*
X9832391Y-21273472D02*
X9822867Y-21292519D01*
X9822867Y-21292519D02*
X9822867Y-21330615D01*
X9822867Y-21330615D02*
X9832391Y-21349662D01*
X9832391Y-21349662D02*
X9841915Y-21359186D01*
X9841915Y-21359186D02*
X9860962Y-21368710D01*
X9860962Y-21368710D02*
X9899058Y-21368710D01*
X9899058Y-21368710D02*
X9918105Y-21359186D01*
X9918105Y-21359186D02*
X9927629Y-21349662D01*
X9927629Y-21349662D02*
X9937153Y-21330615D01*
X9937153Y-21330615D02*
X9937153Y-21292519D01*
X9937153Y-21292519D02*
X9927629Y-21273472D01*
X9927629Y-21273472D02*
X9918105Y-21263948D01*
X9918105Y-21263948D02*
X9899058Y-21254424D01*
X10013343Y-21168710D02*
X10013343Y-21206805D01*
X10089534Y-21168710D02*
X10089534Y-21206805D01*
X10384772Y-21444900D02*
X10375248Y-21435376D01*
X10375248Y-21435376D02*
X10356201Y-21406805D01*
X10356201Y-21406805D02*
X10346677Y-21387757D01*
X10346677Y-21387757D02*
X10337153Y-21359186D01*
X10337153Y-21359186D02*
X10327629Y-21311567D01*
X10327629Y-21311567D02*
X10327629Y-21273472D01*
X10327629Y-21273472D02*
X10337153Y-21225853D01*
X10337153Y-21225853D02*
X10346677Y-21197281D01*
X10346677Y-21197281D02*
X10356201Y-21178234D01*
X10356201Y-21178234D02*
X10375248Y-21149662D01*
X10375248Y-21149662D02*
X10384772Y-21140138D01*
X10546677Y-21235376D02*
X10546677Y-21368710D01*
X10499058Y-21159186D02*
X10451439Y-21302043D01*
X10451439Y-21302043D02*
X10575248Y-21302043D01*
X10641915Y-21187757D02*
X10651439Y-21178234D01*
X10651439Y-21178234D02*
X10670486Y-21168710D01*
X10670486Y-21168710D02*
X10718105Y-21168710D01*
X10718105Y-21168710D02*
X10737153Y-21178234D01*
X10737153Y-21178234D02*
X10746677Y-21187757D01*
X10746677Y-21187757D02*
X10756201Y-21206805D01*
X10756201Y-21206805D02*
X10756201Y-21225853D01*
X10756201Y-21225853D02*
X10746677Y-21254424D01*
X10746677Y-21254424D02*
X10632391Y-21368710D01*
X10632391Y-21368710D02*
X10756201Y-21368710D01*
X10994296Y-21368710D02*
X10994296Y-21168710D01*
X11080010Y-21368710D02*
X11080010Y-21263948D01*
X11080010Y-21263948D02*
X11070486Y-21244900D01*
X11070486Y-21244900D02*
X11051439Y-21235376D01*
X11051439Y-21235376D02*
X11022867Y-21235376D01*
X11022867Y-21235376D02*
X11003820Y-21244900D01*
X11003820Y-21244900D02*
X10994296Y-21254424D01*
X11203820Y-21368710D02*
X11184772Y-21359186D01*
X11184772Y-21359186D02*
X11175248Y-21349662D01*
X11175248Y-21349662D02*
X11165725Y-21330615D01*
X11165725Y-21330615D02*
X11165725Y-21273472D01*
X11165725Y-21273472D02*
X11175248Y-21254424D01*
X11175248Y-21254424D02*
X11184772Y-21244900D01*
X11184772Y-21244900D02*
X11203820Y-21235376D01*
X11203820Y-21235376D02*
X11232391Y-21235376D01*
X11232391Y-21235376D02*
X11251439Y-21244900D01*
X11251439Y-21244900D02*
X11260963Y-21254424D01*
X11260963Y-21254424D02*
X11270486Y-21273472D01*
X11270486Y-21273472D02*
X11270486Y-21330615D01*
X11270486Y-21330615D02*
X11260963Y-21349662D01*
X11260963Y-21349662D02*
X11251439Y-21359186D01*
X11251439Y-21359186D02*
X11232391Y-21368710D01*
X11232391Y-21368710D02*
X11203820Y-21368710D01*
X11384772Y-21368710D02*
X11365724Y-21359186D01*
X11365724Y-21359186D02*
X11356201Y-21340138D01*
X11356201Y-21340138D02*
X11356201Y-21168710D01*
X11537153Y-21359186D02*
X11518105Y-21368710D01*
X11518105Y-21368710D02*
X11480010Y-21368710D01*
X11480010Y-21368710D02*
X11460963Y-21359186D01*
X11460963Y-21359186D02*
X11451439Y-21340138D01*
X11451439Y-21340138D02*
X11451439Y-21263948D01*
X11451439Y-21263948D02*
X11460963Y-21244900D01*
X11460963Y-21244900D02*
X11480010Y-21235376D01*
X11480010Y-21235376D02*
X11518105Y-21235376D01*
X11518105Y-21235376D02*
X11537153Y-21244900D01*
X11537153Y-21244900D02*
X11546677Y-21263948D01*
X11546677Y-21263948D02*
X11546677Y-21282996D01*
X11546677Y-21282996D02*
X11451439Y-21302043D01*
X11622867Y-21359186D02*
X11641915Y-21368710D01*
X11641915Y-21368710D02*
X11680010Y-21368710D01*
X11680010Y-21368710D02*
X11699058Y-21359186D01*
X11699058Y-21359186D02*
X11708582Y-21340138D01*
X11708582Y-21340138D02*
X11708582Y-21330615D01*
X11708582Y-21330615D02*
X11699058Y-21311567D01*
X11699058Y-21311567D02*
X11680010Y-21302043D01*
X11680010Y-21302043D02*
X11651439Y-21302043D01*
X11651439Y-21302043D02*
X11632391Y-21292519D01*
X11632391Y-21292519D02*
X11622867Y-21273472D01*
X11622867Y-21273472D02*
X11622867Y-21263948D01*
X11622867Y-21263948D02*
X11632391Y-21244900D01*
X11632391Y-21244900D02*
X11651439Y-21235376D01*
X11651439Y-21235376D02*
X11680010Y-21235376D01*
X11680010Y-21235376D02*
X11699058Y-21244900D01*
X11775248Y-21444900D02*
X11784772Y-21435376D01*
X11784772Y-21435376D02*
X11803820Y-21406805D01*
X11803820Y-21406805D02*
X11813344Y-21387757D01*
X11813344Y-21387757D02*
X11822867Y-21359186D01*
X11822867Y-21359186D02*
X11832391Y-21311567D01*
X11832391Y-21311567D02*
X11832391Y-21273472D01*
X11832391Y-21273472D02*
X11822867Y-21225853D01*
X11822867Y-21225853D02*
X11813344Y-21197281D01*
X11813344Y-21197281D02*
X11803820Y-21178234D01*
X11803820Y-21178234D02*
X11784772Y-21149662D01*
X11784772Y-21149662D02*
X11775248Y-21140138D01*
X12137153Y-21444900D02*
X12127629Y-21435376D01*
X12127629Y-21435376D02*
X12108582Y-21406805D01*
X12108582Y-21406805D02*
X12099058Y-21387757D01*
X12099058Y-21387757D02*
X12089534Y-21359186D01*
X12089534Y-21359186D02*
X12080010Y-21311567D01*
X12080010Y-21311567D02*
X12080010Y-21273472D01*
X12080010Y-21273472D02*
X12089534Y-21225853D01*
X12089534Y-21225853D02*
X12099058Y-21197281D01*
X12099058Y-21197281D02*
X12108582Y-21178234D01*
X12108582Y-21178234D02*
X12127629Y-21149662D01*
X12127629Y-21149662D02*
X12137153Y-21140138D01*
X12213344Y-21235376D02*
X12213344Y-21368710D01*
X12213344Y-21254424D02*
X12222867Y-21244900D01*
X12222867Y-21244900D02*
X12241915Y-21235376D01*
X12241915Y-21235376D02*
X12270486Y-21235376D01*
X12270486Y-21235376D02*
X12289534Y-21244900D01*
X12289534Y-21244900D02*
X12299058Y-21263948D01*
X12299058Y-21263948D02*
X12299058Y-21368710D01*
X12422867Y-21368710D02*
X12403820Y-21359186D01*
X12403820Y-21359186D02*
X12394296Y-21349662D01*
X12394296Y-21349662D02*
X12384772Y-21330615D01*
X12384772Y-21330615D02*
X12384772Y-21273472D01*
X12384772Y-21273472D02*
X12394296Y-21254424D01*
X12394296Y-21254424D02*
X12403820Y-21244900D01*
X12403820Y-21244900D02*
X12422867Y-21235376D01*
X12422867Y-21235376D02*
X12451439Y-21235376D01*
X12451439Y-21235376D02*
X12470486Y-21244900D01*
X12470486Y-21244900D02*
X12480010Y-21254424D01*
X12480010Y-21254424D02*
X12489534Y-21273472D01*
X12489534Y-21273472D02*
X12489534Y-21330615D01*
X12489534Y-21330615D02*
X12480010Y-21349662D01*
X12480010Y-21349662D02*
X12470486Y-21359186D01*
X12470486Y-21359186D02*
X12451439Y-21368710D01*
X12451439Y-21368710D02*
X12422867Y-21368710D01*
X12546677Y-21235376D02*
X12622867Y-21235376D01*
X12575248Y-21168710D02*
X12575248Y-21340138D01*
X12575248Y-21340138D02*
X12584772Y-21359186D01*
X12584772Y-21359186D02*
X12603820Y-21368710D01*
X12603820Y-21368710D02*
X12622867Y-21368710D01*
X12841915Y-21235376D02*
X12841915Y-21435376D01*
X12841915Y-21244900D02*
X12860963Y-21235376D01*
X12860963Y-21235376D02*
X12899058Y-21235376D01*
X12899058Y-21235376D02*
X12918106Y-21244900D01*
X12918106Y-21244900D02*
X12927629Y-21254424D01*
X12927629Y-21254424D02*
X12937153Y-21273472D01*
X12937153Y-21273472D02*
X12937153Y-21330615D01*
X12937153Y-21330615D02*
X12927629Y-21349662D01*
X12927629Y-21349662D02*
X12918106Y-21359186D01*
X12918106Y-21359186D02*
X12899058Y-21368710D01*
X12899058Y-21368710D02*
X12860963Y-21368710D01*
X12860963Y-21368710D02*
X12841915Y-21359186D01*
X13051439Y-21368710D02*
X13032391Y-21359186D01*
X13032391Y-21359186D02*
X13022867Y-21340138D01*
X13022867Y-21340138D02*
X13022867Y-21168710D01*
X13213344Y-21368710D02*
X13213344Y-21263948D01*
X13213344Y-21263948D02*
X13203820Y-21244900D01*
X13203820Y-21244900D02*
X13184772Y-21235376D01*
X13184772Y-21235376D02*
X13146677Y-21235376D01*
X13146677Y-21235376D02*
X13127629Y-21244900D01*
X13213344Y-21359186D02*
X13194296Y-21368710D01*
X13194296Y-21368710D02*
X13146677Y-21368710D01*
X13146677Y-21368710D02*
X13127629Y-21359186D01*
X13127629Y-21359186D02*
X13118106Y-21340138D01*
X13118106Y-21340138D02*
X13118106Y-21321091D01*
X13118106Y-21321091D02*
X13127629Y-21302043D01*
X13127629Y-21302043D02*
X13146677Y-21292519D01*
X13146677Y-21292519D02*
X13194296Y-21292519D01*
X13194296Y-21292519D02*
X13213344Y-21282996D01*
X13280010Y-21235376D02*
X13356201Y-21235376D01*
X13308582Y-21168710D02*
X13308582Y-21340138D01*
X13308582Y-21340138D02*
X13318106Y-21359186D01*
X13318106Y-21359186D02*
X13337153Y-21368710D01*
X13337153Y-21368710D02*
X13356201Y-21368710D01*
X13499058Y-21359186D02*
X13480010Y-21368710D01*
X13480010Y-21368710D02*
X13441915Y-21368710D01*
X13441915Y-21368710D02*
X13422867Y-21359186D01*
X13422867Y-21359186D02*
X13413344Y-21340138D01*
X13413344Y-21340138D02*
X13413344Y-21263948D01*
X13413344Y-21263948D02*
X13422867Y-21244900D01*
X13422867Y-21244900D02*
X13441915Y-21235376D01*
X13441915Y-21235376D02*
X13480010Y-21235376D01*
X13480010Y-21235376D02*
X13499058Y-21244900D01*
X13499058Y-21244900D02*
X13508582Y-21263948D01*
X13508582Y-21263948D02*
X13508582Y-21282996D01*
X13508582Y-21282996D02*
X13413344Y-21302043D01*
X13680010Y-21368710D02*
X13680010Y-21168710D01*
X13680010Y-21359186D02*
X13660963Y-21368710D01*
X13660963Y-21368710D02*
X13622867Y-21368710D01*
X13622867Y-21368710D02*
X13603820Y-21359186D01*
X13603820Y-21359186D02*
X13594296Y-21349662D01*
X13594296Y-21349662D02*
X13584772Y-21330615D01*
X13584772Y-21330615D02*
X13584772Y-21273472D01*
X13584772Y-21273472D02*
X13594296Y-21254424D01*
X13594296Y-21254424D02*
X13603820Y-21244900D01*
X13603820Y-21244900D02*
X13622867Y-21235376D01*
X13622867Y-21235376D02*
X13660963Y-21235376D01*
X13660963Y-21235376D02*
X13680010Y-21244900D01*
X13756201Y-21444900D02*
X13765725Y-21435376D01*
X13765725Y-21435376D02*
X13784772Y-21406805D01*
X13784772Y-21406805D02*
X13794296Y-21387757D01*
X13794296Y-21387757D02*
X13803820Y-21359186D01*
X13803820Y-21359186D02*
X13813344Y-21311567D01*
X13813344Y-21311567D02*
X13813344Y-21273472D01*
X13813344Y-21273472D02*
X13803820Y-21225853D01*
X13803820Y-21225853D02*
X13794296Y-21197281D01*
X13794296Y-21197281D02*
X13784772Y-21178234D01*
X13784772Y-21178234D02*
X13765725Y-21149662D01*
X13765725Y-21149662D02*
X13756201Y-21140138D01*
M02*
