%TF.GenerationSoftware,KiCad,Pcbnew,9.0.7*%
%TF.CreationDate,2026-02-05T22:02:29+07:00*%
%TF.ProjectId,Lapka42,4c61706b-6134-4322-9e6b-696361645f70,rev?*%
%TF.SameCoordinates,Original*%
%TF.FileFunction,Legend,Bot*%
%TF.FilePolarity,Positive*%
%FSLAX46Y46*%
G04 Gerber Fmt 4.6, Leading zero omitted, Abs format (unit mm)*
G04 Created by KiCad (PCBNEW 9.0.7) date 2026-02-05 22:02:29*
%MOMM*%
%LPD*%
G01*
G04 APERTURE LIST*
%ADD10C,0.100000*%
G04 APERTURE END LIST*
D10*
%TO.C,D42*%
X186651603Y-156012710D02*
X186348402Y-156242792D01*
X186348403Y-155760192D01*
X186651603Y-156012710D01*
G36*
X186651603Y-156012710D02*
G01*
X186348402Y-156242792D01*
X186348403Y-155760192D01*
X186651603Y-156012710D01*
G37*
X186651604Y-155771409D02*
X186651603Y-156254010D01*
%TO.C,D41*%
X186651600Y-134012710D02*
X186348399Y-134242792D01*
X186348400Y-133760192D01*
X186651600Y-134012710D01*
G36*
X186651600Y-134012710D02*
G01*
X186348399Y-134242792D01*
X186348400Y-133760192D01*
X186651600Y-134012710D01*
G37*
X186651601Y-133771409D02*
X186651600Y-134254010D01*
%TO.C,D40*%
X186651598Y-126012707D02*
X186348397Y-126242789D01*
X186348398Y-125760189D01*
X186651598Y-126012707D01*
G36*
X186651598Y-126012707D02*
G01*
X186348397Y-126242789D01*
X186348398Y-125760189D01*
X186651598Y-126012707D01*
G37*
X186651599Y-125771406D02*
X186651598Y-126254007D01*
%TO.C,D39*%
X186651599Y-152012708D02*
X186348398Y-152242790D01*
X186348399Y-151760190D01*
X186651599Y-152012708D01*
G36*
X186651599Y-152012708D02*
G01*
X186348398Y-152242790D01*
X186348399Y-151760190D01*
X186651599Y-152012708D01*
G37*
X186651600Y-151771407D02*
X186651599Y-152254008D01*
%TO.C,D38*%
X186651603Y-136012710D02*
X186348402Y-136242792D01*
X186348403Y-135760192D01*
X186651603Y-136012710D01*
G36*
X186651603Y-136012710D02*
G01*
X186348402Y-136242792D01*
X186348403Y-135760192D01*
X186651603Y-136012710D01*
G37*
X186651604Y-135771409D02*
X186651603Y-136254010D01*
%TO.C,D37*%
X186651600Y-128012704D02*
X186348399Y-128242786D01*
X186348400Y-127760186D01*
X186651600Y-128012704D01*
G36*
X186651600Y-128012704D02*
G01*
X186348399Y-128242786D01*
X186348400Y-127760186D01*
X186651600Y-128012704D01*
G37*
X186651601Y-127771403D02*
X186651600Y-128254004D01*
%TO.C,D36*%
X186651600Y-148012709D02*
X186348399Y-148242791D01*
X186348400Y-147760191D01*
X186651600Y-148012709D01*
G36*
X186651600Y-148012709D02*
G01*
X186348399Y-148242791D01*
X186348400Y-147760191D01*
X186651600Y-148012709D01*
G37*
X186651601Y-147771408D02*
X186651600Y-148254009D01*
%TO.C,D35*%
X186651600Y-138012716D02*
X186348399Y-138242798D01*
X186348400Y-137760198D01*
X186651600Y-138012716D01*
G36*
X186651600Y-138012716D02*
G01*
X186348399Y-138242798D01*
X186348400Y-137760198D01*
X186651600Y-138012716D01*
G37*
X186651601Y-137771415D02*
X186651600Y-138254016D01*
%TO.C,D34*%
X186651599Y-124012706D02*
X186348398Y-124242788D01*
X186348399Y-123760188D01*
X186651599Y-124012706D01*
G36*
X186651599Y-124012706D02*
G01*
X186348398Y-124242788D01*
X186348399Y-123760188D01*
X186651599Y-124012706D01*
G37*
X186651600Y-123771405D02*
X186651599Y-124254006D01*
%TO.C,D33*%
X186651598Y-158012707D02*
X186348397Y-158242789D01*
X186348398Y-157760189D01*
X186651598Y-158012707D01*
G36*
X186651598Y-158012707D02*
G01*
X186348397Y-158242789D01*
X186348398Y-157760189D01*
X186651598Y-158012707D01*
G37*
X186651599Y-157771406D02*
X186651598Y-158254007D01*
%TO.C,D32*%
X186651600Y-146012706D02*
X186348399Y-146242788D01*
X186348400Y-145760188D01*
X186651600Y-146012706D01*
G36*
X186651600Y-146012706D02*
G01*
X186348399Y-146242788D01*
X186348400Y-145760188D01*
X186651600Y-146012706D01*
G37*
X186651601Y-145771405D02*
X186651600Y-146254006D01*
%TO.C,D31*%
X186651599Y-140012706D02*
X186348398Y-140242788D01*
X186348399Y-139760188D01*
X186651599Y-140012706D01*
G36*
X186651599Y-140012706D02*
G01*
X186348398Y-140242788D01*
X186348399Y-139760188D01*
X186651599Y-140012706D01*
G37*
X186651600Y-139771405D02*
X186651599Y-140254006D01*
%TO.C,D30*%
X186651599Y-122012712D02*
X186348398Y-122242794D01*
X186348399Y-121760194D01*
X186651599Y-122012712D01*
G36*
X186651599Y-122012712D02*
G01*
X186348398Y-122242794D01*
X186348399Y-121760194D01*
X186651599Y-122012712D01*
G37*
X186651600Y-121771411D02*
X186651599Y-122254012D01*
%TO.C,D29*%
X186651599Y-162012711D02*
X186348398Y-162242793D01*
X186348399Y-161760193D01*
X186651599Y-162012711D01*
G36*
X186651599Y-162012711D02*
G01*
X186348398Y-162242793D01*
X186348399Y-161760193D01*
X186651599Y-162012711D01*
G37*
X186651600Y-161771410D02*
X186651599Y-162254011D01*
%TO.C,D28*%
X186651594Y-150012711D02*
X186348393Y-150242793D01*
X186348394Y-149760193D01*
X186651594Y-150012711D01*
G36*
X186651594Y-150012711D02*
G01*
X186348393Y-150242793D01*
X186348394Y-149760193D01*
X186651594Y-150012711D01*
G37*
X186651595Y-149771410D02*
X186651594Y-150254011D01*
%TO.C,D27*%
X186651597Y-142012704D02*
X186348396Y-142242786D01*
X186348397Y-141760186D01*
X186651597Y-142012704D01*
G36*
X186651597Y-142012704D02*
G01*
X186348396Y-142242786D01*
X186348397Y-141760186D01*
X186651597Y-142012704D01*
G37*
X186651598Y-141771403D02*
X186651597Y-142254004D01*
%TO.C,D26*%
X186651603Y-130012707D02*
X186348402Y-130242789D01*
X186348403Y-129760189D01*
X186651603Y-130012707D01*
G36*
X186651603Y-130012707D02*
G01*
X186348402Y-130242789D01*
X186348403Y-129760189D01*
X186651603Y-130012707D01*
G37*
X186651604Y-129771406D02*
X186651603Y-130254007D01*
%TO.C,D25*%
X186651602Y-160012708D02*
X186348401Y-160242790D01*
X186348402Y-159760190D01*
X186651602Y-160012708D01*
G36*
X186651602Y-160012708D02*
G01*
X186348401Y-160242790D01*
X186348402Y-159760190D01*
X186651602Y-160012708D01*
G37*
X186651603Y-159771407D02*
X186651602Y-160254008D01*
%TO.C,D24*%
X186651602Y-154012706D02*
X186348401Y-154242788D01*
X186348402Y-153760188D01*
X186651602Y-154012706D01*
G36*
X186651602Y-154012706D02*
G01*
X186348401Y-154242788D01*
X186348402Y-153760188D01*
X186651602Y-154012706D01*
G37*
X186651603Y-153771405D02*
X186651602Y-154254006D01*
%TO.C,D23*%
X186651599Y-144012706D02*
X186348398Y-144242788D01*
X186348399Y-143760188D01*
X186651599Y-144012706D01*
G36*
X186651599Y-144012706D02*
G01*
X186348398Y-144242788D01*
X186348399Y-143760188D01*
X186651599Y-144012706D01*
G37*
X186651600Y-143771405D02*
X186651599Y-144254006D01*
%TO.C,D22*%
X186651603Y-132012707D02*
X186348402Y-132242789D01*
X186348403Y-131760189D01*
X186651603Y-132012707D01*
G36*
X186651603Y-132012707D02*
G01*
X186348402Y-132242789D01*
X186348403Y-131760189D01*
X186651603Y-132012707D01*
G37*
X186651604Y-131771406D02*
X186651603Y-132254007D01*
%TO.C,D21*%
X249063759Y-158246094D02*
X248760559Y-157993576D01*
X249063760Y-157763494D01*
X249063759Y-158246094D01*
G36*
X249063759Y-158246094D02*
G01*
X248760559Y-157993576D01*
X249063760Y-157763494D01*
X249063759Y-158246094D01*
G37*
X248760558Y-158234877D02*
X248760559Y-157752276D01*
%TO.C,D20*%
X249063759Y-162246092D02*
X248760559Y-161993574D01*
X249063760Y-161763492D01*
X249063759Y-162246092D01*
G36*
X249063759Y-162246092D02*
G01*
X248760559Y-161993574D01*
X249063760Y-161763492D01*
X249063759Y-162246092D01*
G37*
X248760558Y-162234875D02*
X248760559Y-161752274D01*
%TO.C,D19*%
X249063759Y-160246094D02*
X248760559Y-159993576D01*
X249063760Y-159763494D01*
X249063759Y-160246094D01*
G36*
X249063759Y-160246094D02*
G01*
X248760559Y-159993576D01*
X249063760Y-159763494D01*
X249063759Y-160246094D01*
G37*
X248760558Y-160234877D02*
X248760559Y-159752276D01*
%TO.C,D18*%
X249063758Y-154246096D02*
X248760558Y-153993578D01*
X249063759Y-153763496D01*
X249063758Y-154246096D01*
G36*
X249063758Y-154246096D02*
G01*
X248760558Y-153993578D01*
X249063759Y-153763496D01*
X249063758Y-154246096D01*
G37*
X248760557Y-154234879D02*
X248760558Y-153752278D01*
%TO.C,D17*%
X249063758Y-156154958D02*
X248760558Y-155902440D01*
X249063759Y-155672358D01*
X249063758Y-156154958D01*
G36*
X249063758Y-156154958D02*
G01*
X248760558Y-155902440D01*
X249063759Y-155672358D01*
X249063758Y-156154958D01*
G37*
X248760557Y-156143741D02*
X248760558Y-155661140D01*
%TO.C,D16*%
X249063758Y-152246094D02*
X248760558Y-151993576D01*
X249063759Y-151763494D01*
X249063758Y-152246094D01*
G36*
X249063758Y-152246094D02*
G01*
X248760558Y-151993576D01*
X249063759Y-151763494D01*
X249063758Y-152246094D01*
G37*
X248760557Y-152234877D02*
X248760558Y-151752276D01*
%TO.C,D15*%
X249063758Y-150246095D02*
X248760558Y-149993577D01*
X249063759Y-149763495D01*
X249063758Y-150246095D01*
G36*
X249063758Y-150246095D02*
G01*
X248760558Y-149993577D01*
X249063759Y-149763495D01*
X249063758Y-150246095D01*
G37*
X248760557Y-150234878D02*
X248760558Y-149752277D01*
%TO.C,D14*%
X249063758Y-146246094D02*
X248760558Y-145993576D01*
X249063759Y-145763494D01*
X249063758Y-146246094D01*
G36*
X249063758Y-146246094D02*
G01*
X248760558Y-145993576D01*
X249063759Y-145763494D01*
X249063758Y-146246094D01*
G37*
X248760557Y-146234877D02*
X248760558Y-145752276D01*
%TO.C,D13*%
X249063759Y-148246094D02*
X248760559Y-147993576D01*
X249063760Y-147763494D01*
X249063759Y-148246094D01*
G36*
X249063759Y-148246094D02*
G01*
X248760559Y-147993576D01*
X249063760Y-147763494D01*
X249063759Y-148246094D01*
G37*
X248760558Y-148234877D02*
X248760559Y-147752276D01*
%TO.C,D12*%
X249063759Y-136246095D02*
X248760559Y-135993577D01*
X249063760Y-135763495D01*
X249063759Y-136246095D01*
G36*
X249063759Y-136246095D02*
G01*
X248760559Y-135993577D01*
X249063760Y-135763495D01*
X249063759Y-136246095D01*
G37*
X248760558Y-136234878D02*
X248760559Y-135752277D01*
%TO.C,D11*%
X249063758Y-134246095D02*
X248760558Y-133993577D01*
X249063759Y-133763495D01*
X249063758Y-134246095D01*
G36*
X249063758Y-134246095D02*
G01*
X248760558Y-133993577D01*
X249063759Y-133763495D01*
X249063758Y-134246095D01*
G37*
X248760557Y-134234878D02*
X248760558Y-133752277D01*
%TO.C,D10*%
X249063759Y-138246095D02*
X248760559Y-137993577D01*
X249063760Y-137763495D01*
X249063759Y-138246095D01*
G36*
X249063759Y-138246095D02*
G01*
X248760559Y-137993577D01*
X249063760Y-137763495D01*
X249063759Y-138246095D01*
G37*
X248760558Y-138234878D02*
X248760559Y-137752277D01*
%TO.C,D9*%
X249063760Y-140246096D02*
X248760560Y-139993578D01*
X249063761Y-139763496D01*
X249063760Y-140246096D01*
G36*
X249063760Y-140246096D02*
G01*
X248760560Y-139993578D01*
X249063761Y-139763496D01*
X249063760Y-140246096D01*
G37*
X248760559Y-140234879D02*
X248760560Y-139752278D01*
%TO.C,D8*%
X249063759Y-142246093D02*
X248760559Y-141993575D01*
X249063760Y-141763493D01*
X249063759Y-142246093D01*
G36*
X249063759Y-142246093D02*
G01*
X248760559Y-141993575D01*
X249063760Y-141763493D01*
X249063759Y-142246093D01*
G37*
X248760558Y-142234876D02*
X248760559Y-141752275D01*
%TO.C,D7*%
X249063760Y-144246095D02*
X248760560Y-143993577D01*
X249063761Y-143763495D01*
X249063760Y-144246095D01*
G36*
X249063760Y-144246095D02*
G01*
X248760560Y-143993577D01*
X249063761Y-143763495D01*
X249063760Y-144246095D01*
G37*
X248760559Y-144234878D02*
X248760560Y-143752277D01*
%TO.C,D6*%
X249063760Y-122233559D02*
X248760560Y-121981041D01*
X249063761Y-121750959D01*
X249063760Y-122233559D01*
G36*
X249063760Y-122233559D02*
G01*
X248760560Y-121981041D01*
X249063761Y-121750959D01*
X249063760Y-122233559D01*
G37*
X248760559Y-122222342D02*
X248760560Y-121739741D01*
%TO.C,D5*%
X249063759Y-124233560D02*
X248760559Y-123981042D01*
X249063760Y-123750960D01*
X249063759Y-124233560D01*
G36*
X249063759Y-124233560D02*
G01*
X248760559Y-123981042D01*
X249063760Y-123750960D01*
X249063759Y-124233560D01*
G37*
X248760558Y-124222343D02*
X248760559Y-123739742D01*
%TO.C,D4*%
X249063758Y-128233556D02*
X248760558Y-127981038D01*
X249063759Y-127750956D01*
X249063758Y-128233556D01*
G36*
X249063758Y-128233556D02*
G01*
X248760558Y-127981038D01*
X249063759Y-127750956D01*
X249063758Y-128233556D01*
G37*
X248760557Y-128222339D02*
X248760558Y-127739738D01*
%TO.C,D3*%
X249063759Y-126233562D02*
X248760559Y-125981044D01*
X249063760Y-125750962D01*
X249063759Y-126233562D01*
G36*
X249063759Y-126233562D02*
G01*
X248760559Y-125981044D01*
X249063760Y-125750962D01*
X249063759Y-126233562D01*
G37*
X248760558Y-126222345D02*
X248760559Y-125739744D01*
%TO.C,D2*%
X249063759Y-132233557D02*
X248760559Y-131981039D01*
X249063760Y-131750957D01*
X249063759Y-132233557D01*
G36*
X249063759Y-132233557D02*
G01*
X248760559Y-131981039D01*
X249063760Y-131750957D01*
X249063759Y-132233557D01*
G37*
X248760558Y-132222340D02*
X248760559Y-131739739D01*
%TO.C,D1*%
X249063759Y-130233563D02*
X248760559Y-129981045D01*
X249063760Y-129750963D01*
X249063759Y-130233563D01*
G36*
X249063759Y-130233563D02*
G01*
X248760559Y-129981045D01*
X249063760Y-129750963D01*
X249063759Y-130233563D01*
G37*
X248760558Y-130222346D02*
X248760559Y-129739745D01*
%TD*%
M02*
